<svg width="53" height="45" viewBox="0 0 53 45" fill="none" xmlns="http://www.w3.org/2000/svg">
<g clip-path="url(#clip0_5_498)">
<mask id="mask0_5_498" style="mask-type:luminance" maskUnits="userSpaceOnUse" x="5" y="20" width="47" height="6">
<path d="M6.84758 22.9302C6.81457 22.9114 6.77972 22.896 6.74358 22.8843C6.85458 22.8638 6.90688 22.8623 6.84758 22.9302Z" fill="white"/>
<path d="M5.37314 22.7487C5.83446 22.6889 6.30334 22.7351 6.74414 22.8837C6.38014 22.958 5.36534 23.3137 5.37314 22.7487Z" fill="white"/>
<path d="M6.70996 23.8528L6.25746 23.7014C6.57986 23.536 6.46606 23.8068 6.70996 23.8528Z" fill="white"/>
<path d="M6.65333 23.3269L6.72403 23.1147L6.94043 23.3085L6.65333 23.3269Z" fill="white"/>
<path d="M25.8008 21.4848C25.7664 21.3811 25.7735 21.2681 25.8206 21.1695L25.8008 21.4848Z" fill="white"/>
<path d="M26.4739 22.1711C26.5449 22.1969 26.6184 22.2153 26.6931 22.2262C26.6548 22.2323 26.6156 22.2306 26.5779 22.2211C26.5402 22.2116 26.5048 22.1946 26.4739 22.1711Z" fill="white"/>
<path d="M24.9789 21.5166L25.1875 21.4848C25.1229 21.5165 25.05 21.5276 24.9789 21.5166Z" fill="white"/>
<path d="M15.3291 22.2304C15.1771 22.0841 15.0307 21.9518 14.9183 21.8606C15.3221 21.6888 15.2726 22.0325 15.3291 22.2304Z" fill="white"/>
<path d="M29.8994 24.5526L29.9899 24.3843C30.0231 24.46 30.0316 24.5335 29.8994 24.5526Z" fill="white"/>
<path d="M26.2039 24.3348C26.2167 24.2564 26.2441 24.1811 26.2845 24.1128C26.3017 24.125 26.3182 24.1383 26.334 24.1524L26.2039 24.3348Z" fill="white"/>
<path d="M24.3508 21.7831L24.3338 21.8001L24.1973 21.6989C24.2928 21.6657 24.3423 21.6954 24.3508 21.7831Z" fill="white"/>
<path d="M31.0649 24.6777C31.1203 24.7938 31.1554 24.9184 31.1689 25.0462C31.1088 25.0088 31.0648 24.9503 31.0456 24.8822C31.0263 24.814 31.0332 24.7411 31.0649 24.6777Z" fill="white"/>
<path d="M26.6895 22.2183V22.2254L26.6612 22.2197C26.6718 22.2177 26.6782 22.2212 26.6895 22.2183Z" fill="white"/>
<path d="M24.9764 24.1523C25.0555 24.1791 25.1312 24.1983 25.2139 24.2343C25.1929 24.2446 25.1701 24.2507 25.1468 24.2521C25.1235 24.2536 25.1001 24.2504 25.078 24.2428C25.056 24.2352 25.0356 24.2233 25.0182 24.2077C25.0007 24.1922 24.9865 24.1734 24.9764 24.1523Z" fill="white"/>
<path d="M15.2624 22.1443L15.3889 22.2709C15.3562 22.2685 15.3254 22.2543 15.3021 22.2311C15.2789 22.2079 15.2648 22.1771 15.2624 22.1443Z" fill="white"/>
<path d="M8.25349 22.4976C8.41339 22.4877 8.42609 22.6079 8.42749 22.7253C8.34633 22.6703 8.28526 22.5904 8.25349 22.4976Z" fill="white"/>
<path d="M50.8542 22.7437L50.915 22.7494C50.9052 22.7535 50.8945 22.7552 50.8839 22.7542C50.8733 22.7532 50.8631 22.7496 50.8542 22.7437Z" fill="white"/>
<path d="M44.9857 22.1443C44.9633 22.1021 44.9482 22.0565 44.9411 22.0093C45.0041 21.9675 45.0118 22.0446 44.9857 22.1443Z" fill="white"/>
<path d="M41.9251 25.3796L41.2445 24.9647C41.1866 25.1217 40.8326 25.1619 41.027 25.345L40.7888 25.0714L40.7676 25.2523C39.4716 25.5492 38.7416 24.2154 37.3382 24.9689L37.3438 25.0368L36.7326 24.6035C36.5913 24.6472 36.4775 24.9633 36.2365 25.0743C36.4202 24.7364 35.8352 25.0276 35.7722 24.7342C35.5708 24.8692 35.722 24.9597 35.7347 25.0941C34.9709 25.4072 34.561 24.8417 33.7561 25.0629C34.1897 24.8209 34.6585 24.6482 35.1454 24.5511C34.5886 24.3461 34.4042 24.6833 33.7823 24.5689L34.048 24.7272C33.5929 25.2205 33.1223 24.4345 32.8869 24.9965C32.5174 24.9095 32.3203 24.3447 31.8241 24.4352L31.909 24.93L31.4772 24.9307L31.5514 24.5922C31.5006 24.58 31.4471 24.5859 31.4002 24.6088C31.3532 24.6318 31.3157 24.6704 31.2942 24.718C31.0913 24.3284 30.6264 24.5377 30.2935 24.2373L30.208 24.4034C30.1852 24.3651 30.1667 24.3243 30.1529 24.2819C30.0024 24.5738 29.7042 24.4649 29.6236 24.7349C29.7387 24.8007 30.0045 24.9576 30.0222 24.7774C30.273 25.1131 29.5742 24.9597 29.3572 24.9604C29.6257 24.8049 29.3374 24.7583 29.2215 24.6918C29.1905 24.737 29.2286 24.7597 29.2307 24.824C28.7827 25.0064 28.8406 24.1511 28.4308 24.7378L28.4336 24.4225L28.0626 24.6522C28.1805 24.0224 27.6245 24.5901 27.7092 24.0048C27.3461 23.9864 27.6747 24.3645 27.558 24.2974C27.1878 24.4203 26.72 23.845 26.5355 24.1412C26.2896 23.9235 25.9363 24.0605 25.7165 23.9341L25.6366 24.2034C25.5214 24.1376 25.3985 24.0048 25.26 24.0514C25.252 24.0897 25.2586 24.1295 25.2784 24.1631C24.8733 24.0319 24.4491 23.9697 24.0234 23.9793C24.0064 24.1588 23.9816 24.2712 24.2043 24.3355C23.7618 24.5887 23.2651 23.9899 22.6602 24.0888L22.6701 24.2204L22.3952 24.0005C22.444 24.0931 22.3768 24.18 22.3535 24.2924C21.7797 24.3489 21.0913 24.339 20.924 23.804C21.0483 23.937 20.601 24.127 20.8745 24.3426C20.3876 23.9815 19.6463 24.0655 19.0415 23.9751L19.059 23.9574L18.8273 23.8273L18.7969 23.8733L18.9601 23.9659C18.7286 23.9366 18.5114 23.8381 18.3369 23.6832C18.2551 23.8521 18.136 24.0003 17.9885 24.1164C18.0585 23.7792 17.1892 24.4253 16.9639 24.0499C16.9023 24.1412 17.0818 24.1157 16.9497 24.2309C16.1816 24.1836 15.1189 23.7891 14.1315 24.0627C14.2001 23.4117 13.3818 23.5955 12.9486 23.295C12.7402 23.6817 13.1896 23.4894 13.2609 23.7771C12.9974 23.6959 13.0991 24.2515 12.6624 23.9518C12.6694 24.0195 12.6404 24.0641 12.7466 24.0613C12.4624 24.0923 12.9091 23.5863 12.4504 23.7129L12.3755 23.9843L12.1861 23.6322C11.2647 23.816 10.546 23.6216 9.70789 23.9185C9.67471 23.8585 9.72198 23.7262 9.83581 23.6492C9.48243 23.6676 9.16444 23.225 8.70513 23.5078L8.78997 23.6167C8.09602 23.8655 8.20555 23.305 7.46422 23.2236C7.6431 23.1946 7.99638 23.3813 8.10022 23.0639C8.07623 22.8645 7.67978 22.9034 7.51658 23.0668L7.6579 22.7049C7.72086 22.9246 8.00977 22.8914 8.20554 22.9953C8.15328 22.9671 8.15538 22.8913 8.14828 22.8222C8.31648 22.9366 8.57581 22.9261 8.83085 23.0158L8.43171 23.0533C8.51505 23.4068 9.08669 23.03 9.2118 23.1592C9.27966 22.8214 9.03092 22.8751 9.32413 22.5974C10.0004 22.461 9.62454 22.943 10.1715 23.2357L10.0407 23.3523C10.2273 23.3905 10.3071 23.7446 10.64 23.4866C10.6838 23.2618 10.4668 23.2696 10.3814 23.1614C10.4711 23.025 10.6499 23.5545 10.912 23.3205C10.7968 23.0116 10.3467 22.8963 10.0196 22.907C10.0821 22.8065 10.1054 22.6865 10.0853 22.5698C10.9936 22.9294 11.9733 23.072 12.9464 22.9861C12.5338 22.5733 13.1649 22.9784 13.1465 22.5331C13.1493 22.8454 13.5119 22.5437 13.7471 22.6702C13.9238 22.3294 13.2779 22.4171 13.5423 22.1824C14.0269 22.2559 14.5732 22.8645 15.2502 22.7359C15.234 22.6023 15.0856 22.5839 15.0778 22.5182C15.4905 22.6171 15.8743 23.3898 16.2847 22.866C16.125 22.6751 15.9293 22.4695 15.7463 22.2863C15.8477 22.271 15.9422 22.2257 16.0177 22.1563L15.9158 21.9132C16.4536 21.8304 16.1972 22.4419 16.4169 22.7479L16.8119 22.4023C17.0597 22.2898 17.3407 22.2745 17.5993 22.3593C17.8578 22.4441 18.0752 22.6229 18.2083 22.8603C18.3178 22.8567 18.7509 22.8476 18.645 22.5366C18.4499 22.1153 18.3807 21.8268 17.7969 21.817C17.6464 22.1089 18.1617 22.1449 17.9828 22.1712C17.7596 22.1118 17.2748 22.3436 17.137 22.0799L17.7582 22.1089C17.8521 21.6587 17.5016 22.0927 17.4394 21.8707C17.6889 21.5067 17.9517 21.904 18.2542 21.6961L18.2161 21.6749C18.6994 21.7569 18.6506 21.6643 19.105 21.8573C19.0429 22.2616 18.8803 22.1089 18.6083 22.2721C19.411 22.275 20.3324 23.0371 21.3027 22.3266L20.9007 21.9753C21.2194 21.9026 21.6596 22.275 21.7479 21.7569C21.3656 21.9216 21.586 21.6035 21.4313 21.5166L21.4003 21.5618C21.3621 21.5406 21.2461 21.4756 21.3444 21.4056C21.591 21.6384 21.8808 21.8206 22.1973 21.9421C22.0956 21.8291 22.403 21.6657 22.4546 21.5872C22.7196 21.6713 22.4065 21.8121 22.3535 21.971C22.502 21.9908 22.68 22.2792 22.8679 22.0064C23.1322 21.7774 22.6602 21.7647 22.6369 21.5632L23.4015 21.9294L23.3937 21.8622C23.4042 21.8863 23.4196 21.9079 23.4391 21.9256C23.4585 21.9432 23.4815 21.9566 23.5065 21.9647C23.5314 21.9729 23.5579 21.9757 23.584 21.9729C23.6101 21.97 23.6353 21.9617 23.658 21.9485C23.783 21.7668 23.598 21.7258 23.4573 21.7717C23.9654 21.4982 24.1018 22.3725 24.6077 21.8142L24.8184 21.9767C24.8509 21.9315 24.9137 21.8403 24.8755 21.8191L25.0748 21.9958C25.4925 22.169 25.2862 21.612 25.4607 21.5194L25.4374 21.5229C25.5921 21.46 25.7342 21.2968 25.648 21.2487L26.0727 21.4897L26.072 21.4805C26.1822 21.8127 26.867 21.8954 26.72 22.4935C26.8578 22.4475 26.9871 22.3365 26.9482 22.251C27.2952 22.2898 26.9722 21.7859 27.5242 21.8799C27.5509 21.7654 27.4796 21.7915 27.4012 21.7469C27.5538 21.7357 27.6061 21.7767 27.616 21.8403C27.6366 21.7586 27.6697 21.6807 27.7142 21.6092C27.6655 21.8333 27.9141 21.7866 28.0534 21.7406L27.9397 21.3597C28.0301 21.5392 28.1078 21.583 28.3565 21.5364L28.2591 21.2904C28.6287 21.3773 28.1664 21.8071 28.6873 21.6L28.2067 21.8262C28.6866 21.9117 28.4103 22.386 28.5785 22.6094C29.0123 22.9883 29.8123 22.3111 30.0321 23.0738C30.1515 22.8257 30.107 22.7359 30.3034 22.5324C30.1675 22.5078 30.0432 22.4404 29.9485 22.3398C29.8539 22.2393 29.794 22.1111 29.7777 21.9739C29.2314 21.5944 29.401 22.8978 28.8363 22.316C28.9467 22.0021 29.165 22.0001 29.3254 22.1563C29.4074 21.8863 29.2074 21.7088 29.0859 21.5731C29.4533 21.7244 30.1084 21.3886 30.3494 21.4303C30.4377 21.5753 30.7083 21.7781 30.8659 21.6982C30.8002 21.9054 31.3888 22.0616 31.0892 22.4871C31.4969 22.598 31.5012 21.8997 31.8022 22.3945C31.7273 22.0368 32.1379 22.1464 32.0347 21.8311C31.8142 22.145 31.4729 21.6297 31.3062 21.4048L31.9747 21.2253C31.8001 21.3151 31.969 21.5406 32.0453 21.5788L32.1966 21.2862C32.1216 22.0057 33.4134 20.7899 33.5257 21.6261C33.3407 21.5823 33.1117 21.8283 33.1088 21.4466C32.6969 21.6481 33.0544 21.9859 32.8262 22.2341C33.3237 22.5267 34.2911 22.0736 34.7744 22.6164C34.7172 22.391 34.4303 22.4135 34.4748 22.1202C34.9652 21.9647 35.3525 22.6419 35.8104 22.9133L35.8083 22.531C36.1659 22.8702 36.014 22.396 36.4577 22.533C36.4273 22.5789 36.3298 22.7133 36.44 22.7133C36.8329 22.6935 36.5517 22.4009 36.8336 22.3096C37.1778 22.8971 37.158 21.9273 37.6929 22.2475L37.6837 22.1153C38.1021 22.3669 38.849 21.8544 39.3811 21.7915C39.319 21.882 38.9522 21.7865 38.9104 22.1478L39.5345 22.2658C39.5974 22.1761 39.8829 22.1563 39.7578 21.952C39.6808 21.906 39.5776 21.9725 39.5097 21.9951L39.6461 21.8092C40.203 22.017 39.478 22.3478 39.396 22.6899C39.7458 22.5804 39.7762 22.919 39.9924 22.9204C40.1783 22.5832 39.6701 22.5359 40.0313 22.1747C40.268 21.9957 40.8348 22.2715 40.9669 22.6143C41.4743 21.8311 42.2509 22.4949 42.4134 21.8884C42.3816 21.933 42.4367 22.1605 42.6092 22.0715L42.5604 21.9139C43.077 21.6502 42.8614 22.4807 43.173 22.3514C43.2 22.2369 43.1228 22.1924 43.1115 22.0566C43.7475 21.9323 43.86 22.8378 44.5468 22.4885C44.5411 22.4207 44.539 22.3549 44.4677 22.374C44.4606 22.3061 44.568 22.309 44.7255 22.4695L44.4557 22.69C44.5885 23.4153 45.3672 22.4129 45.8131 22.6242C45.8046 22.4913 45.4408 22.4596 45.6796 22.2828C46.0018 22.2884 45.7756 23.0533 46.2505 22.7013C46.0993 22.6079 46.2428 22.2538 46.0972 22.1747C46.3566 22.1344 46.5841 21.9323 46.6053 22.2122C46.6447 22.1904 46.679 22.1604 46.7057 22.1241C46.7324 22.0879 46.7509 22.0463 46.76 22.0022C46.8668 22.2206 47.1593 22.0806 47.3451 22.022L47.3382 21.8877C47.4681 22.6144 47.8448 21.9464 48.2426 21.9979L48.2271 21.7944C48.3769 21.8877 48.5755 22.1429 48.9471 21.8573L48.8567 21.6057C49.0511 21.7916 49.5952 21.4225 49.6977 21.8092C49.8008 21.7442 49.5895 21.3519 49.9845 21.3414C50.0332 21.5017 50.2955 21.6664 50.458 21.4444C50.487 21.3321 50.475 21.1956 50.3413 21.3067C50.2707 21.3265 50.3068 21.3497 50.3124 21.419L50.2262 21.2367C50.5718 21.0635 50.4212 21.4218 50.7689 21.3173C50.8678 21.1843 50.7166 21.0868 50.7074 20.9546L51.7822 21.4331C51.7589 21.6134 51.5873 21.7003 51.6373 21.9273L51.2148 21.9838C50.9477 22.2722 51.347 22.3267 51.4968 22.4214L51.2106 22.4376C51.1894 22.4673 51.1858 22.5062 51.207 22.5232L51.0007 22.4992C51.46 22.919 50.287 23.0236 50.812 23.3552C50.7327 23.3187 50.663 23.2641 50.6085 23.1959C50.554 23.1276 50.5163 23.0476 50.4982 22.9621C50.241 22.8645 50.2531 23.0661 50.1202 23.179L50.4644 23.4611C49.8468 23.3312 50.4495 23.7771 49.9301 23.9673C49.446 23.7276 48.9062 24.6197 48.6199 24.636C48.0801 24.5541 48.9188 24.3045 48.6185 24.1142C48.3267 24.0612 48.4186 24.3143 48.208 24.3751L48.1762 23.9673C47.8483 23.8923 48.0631 24.3504 47.9077 24.1878C47.5685 24.4296 47.955 24.3468 47.943 24.6628C47.9006 24.5709 47.6356 24.4049 47.4703 24.5618C47.4434 24.6762 47.8045 24.7052 47.5586 24.7448C46.7515 24.5031 46.4279 24.9455 45.6732 24.8622L45.6895 25.0651C45.6132 25.0184 45.5701 24.9271 45.4725 24.9894L45.481 25.1224C45.049 24.9684 44.5953 24.8839 44.1369 24.8721L44.3362 25.1237L43.9532 24.824L43.9129 25.1853C43.8494 24.8247 43.2551 25.0375 42.8529 24.918L42.7978 25.1457L42.5717 25.0057L42.6197 25.1655C42.366 25.1365 42.1561 24.7512 41.8156 24.9265C42.0268 24.8622 41.9831 25.2226 41.9251 25.3796ZM31.4079 24.5208L31.297 24.5059C31.3111 24.5213 31.3302 24.5313 31.351 24.5343C31.3717 24.5373 31.3928 24.533 31.4108 24.5222L31.5896 24.5498C31.6171 24.3369 31.5132 24.4776 31.4079 24.5208ZM14.5365 23.7835L14.8304 23.8202C14.7626 23.8442 14.5683 23.7375 14.622 23.8945C14.5845 23.8711 14.4743 23.874 14.5365 23.7835ZM32.3422 22.321L32.2502 22.1386L32.0933 22.3634L32.3422 22.321ZM34.7597 22.3429L34.532 22.2072L34.4995 22.2524L34.7299 22.3881L34.7597 22.3429ZM37.6166 24.4331C37.5487 24.0358 37.3693 24.4388 37.2096 24.2748C37.199 24.2571 37.1841 24.2423 37.1664 24.2317C37.1787 24.248 37.1933 24.2625 37.2096 24.2748C37.2858 24.4105 37.3304 24.7618 37.6137 24.4303L37.6166 24.4331ZM32.1174 24.0994C32.068 24.3242 32.3583 24.3687 32.4106 24.5271C32.5513 24.4811 32.4219 24.2798 32.4085 24.1447C32.4778 24.1221 32.5167 24.144 32.5944 24.1892C32.6552 23.7129 32.3216 24.3447 32.1174 24.0994ZM26.3121 23.775L26.5129 23.9532L26.4415 23.9765L26.3121 23.775ZM25.0678 23.944C25.0057 23.9491 24.9433 23.9375 24.8872 23.9104C24.831 23.8833 24.7831 23.8417 24.7484 23.7899C24.7138 23.738 24.6936 23.6779 24.69 23.6156C24.6863 23.5533 24.6994 23.4913 24.7278 23.4357C24.9491 23.4972 25.3074 23.4498 25.3744 23.7403C25.2805 23.5601 25.3448 24.1645 25.0713 23.9475L25.0678 23.944ZM35.2175 23.7637C35.0649 23.6733 34.9454 23.1536 34.5377 23.423L34.7652 23.5587L34.696 23.5813L34.7144 23.7835C34.7723 23.2434 35.0712 23.7403 35.2175 23.7637ZM22.8192 23.5495C22.7594 23.5386 22.7028 23.5146 22.6532 23.4794C22.6037 23.4441 22.5625 23.3985 22.5325 23.3456C22.5025 23.2927 22.4845 23.2338 22.4797 23.1732C22.4749 23.1126 22.4834 23.0517 22.5047 22.9947C22.4185 23.1982 22.8037 23.4138 23.0029 23.5919C22.9273 23.5474 22.887 23.5269 22.8192 23.5495ZM23.0305 23.1656C23.1697 23.1197 23.1817 22.873 23.3796 23.0484C23.2926 23.2513 23.2743 23.7446 23.6559 23.582C23.4721 23.2243 23.487 23.0442 23.1802 22.8702L23.0305 23.1656ZM23.4495 23.8944L23.923 23.7361C23.7894 23.3043 23.653 23.736 23.4495 23.8944L23.2954 23.9468C23.3234 23.9496 23.3517 23.9464 23.3783 23.9375C23.405 23.9286 23.4295 23.9142 23.4502 23.8952L23.4495 23.8944ZM20.2746 23.8188L20.3685 23.9298C20.3402 23.9906 20.3445 24.0471 20.4815 24.0613L20.3685 23.9298C20.4299 23.8146 20.6194 23.6817 20.2781 23.8209L20.2746 23.8188ZM23.0348 23.8641L22.632 23.8245C22.7719 23.775 23.0497 23.681 23.0348 23.8641ZM21.1175 23.5396C20.9247 23.5432 20.7324 23.5616 20.5424 23.5948C20.6257 23.7022 21.0293 23.7397 21.1154 23.5375L21.1175 23.5396ZM11.623 23.4533L11.8074 23.1798L11.5508 23.1649L11.623 23.4533ZM14.4057 23.0236L14.5527 23.042L14.6466 22.9055L14.4057 23.0236ZM17.5787 22.7621C17.5538 22.7673 17.5306 22.7788 17.5114 22.7955C17.4922 22.8122 17.4776 22.8336 17.4691 22.8575C17.1236 23.0404 16.7327 23.1197 16.3434 23.0858C16.1809 23.2484 16.4989 23.4845 16.5836 23.5934C16.6218 22.6758 16.9886 23.6266 17.3158 23.3064C17.2663 23.2144 17.0925 23.247 17.0741 23.1113C17.124 23.0684 17.1848 23.0404 17.2498 23.0304C17.3147 23.0204 17.3811 23.0288 17.4416 23.0547C17.4501 23.1197 17.4755 23.1706 17.5143 23.1685C17.5125 23.145 17.5049 23.1223 17.4922 23.1025C17.4796 23.0826 17.4621 23.0662 17.4416 23.0547C17.432 22.9883 17.441 22.9205 17.4677 22.8589C17.5108 22.8344 17.5486 22.8015 17.5787 22.7621ZM21.4596 22.7168C21.4956 22.7982 21.3296 22.9034 21.526 23.0137C21.5504 22.964 21.5571 22.9076 21.545 22.8536C21.5329 22.7996 21.5028 22.7513 21.4596 22.7168C21.4454 22.6858 21.4037 22.661 21.3041 22.6362C21.3626 22.6476 21.4166 22.6755 21.4596 22.7168ZM21.3692 22.232L21.8087 22.6051L21.6787 22.4058L21.9903 22.5761C21.99 22.5038 21.9704 22.4328 21.9336 22.3705C21.8967 22.3082 21.8439 22.2569 21.7806 22.2218C21.7174 22.1868 21.6459 22.1692 21.5735 22.171C21.5012 22.1728 21.4307 22.1938 21.3692 22.232ZM22.7012 22.4759L22.1436 22.3521L22.1493 22.4016L22.1125 22.3973L22.1712 22.6214L22.1493 22.4016L22.7012 22.4759ZM27.3842 22.9317L27.6691 22.9055C27.5229 22.7831 27.3358 22.7207 27.1454 22.731C27.587 22.0983 27.2294 22.8433 27.782 22.5903C27.2104 22.5966 27.522 22.203 27.6061 21.9492C27.6351 22.316 28.4223 22.0997 28.0272 22.8568C27.8683 22.7049 27.4337 23.4025 27.3842 22.9317ZM31.0829 22.7282L31.4143 22.7939L31.0525 22.7727L31.0829 22.7282ZM40.7203 22.5882C40.6913 22.2482 40.1422 22.5584 40.1238 22.7381C40.2178 22.6044 40.4715 22.6307 40.7203 22.5882ZM44.1765 22.7062C43.9688 22.7727 43.7857 22.3379 43.6055 22.7416L43.9765 22.9062C44.0754 22.772 44.1956 22.9132 44.1765 22.7062ZM46.7162 22.6652L46.7508 23.0731L46.6378 23.0024L46.7162 22.6652ZM46.3955 22.203C46.4674 22.1818 46.7254 22.2785 46.5968 22.4567L46.3955 22.203ZM48.9698 22.5782L48.909 22.215L49.0863 22.1973L48.9698 22.5782ZM48.738 22.8215C48.6963 22.7798 48.6963 22.6963 48.7062 22.6045C48.6397 22.5056 48.4984 22.4673 48.3246 22.562C48.3026 22.7423 48.4356 22.632 48.5125 22.6794C48.4426 22.6999 48.3069 22.8102 48.1946 22.7402C48.4215 22.4284 48.314 22.427 48.3995 22.1563C48.8383 22 48.7303 22.3457 48.7048 22.603C48.7249 22.6356 48.738 22.6721 48.7431 22.7101C48.7482 22.7481 48.7453 22.7868 48.7345 22.8236L48.738 22.8215ZM47.3113 22.907C47.3613 22.864 47.4006 22.8101 47.4264 22.7494C47.7034 22.6546 47.984 22.5662 47.796 22.2383L47.5515 22.2764C47.6589 22.2778 47.6257 22.3224 47.6314 22.3903C47.4271 22.5211 47.3727 22.2941 47.2618 22.2242C47.3 22.3541 47.5303 22.5211 47.4285 22.7458C47.355 22.7709 47.283 22.8004 47.213 22.8342C47.1834 22.789 47.1424 22.7635 47.0611 22.8744L47.0674 22.943C47.107 22.896 47.1568 22.8588 47.213 22.8342C47.2377 22.8787 47.261 22.9359 47.3113 22.907ZM48.8659 23.1007C48.8716 23.1685 48.8065 23.2576 48.8489 23.3495L48.9598 23.4209C49.1648 23.2879 49.0086 23.1247 48.8638 23.0986L48.8659 23.1007ZM41.5703 22.8504C41.5329 22.8271 41.1407 22.8447 41.1952 22.6165L41.0093 22.9522C41.217 22.8857 41.3499 23.16 41.2467 23.2265C41.441 23.0265 41.5583 23.1635 41.5675 22.8476L41.5703 22.8504ZM31.6651 22.7508C31.7471 22.8638 32.3004 22.6158 32.2686 23.0434C32.5471 22.5683 31.9414 22.6581 31.6637 22.748L31.6651 22.7508ZM31.4955 23.2229C31.4562 23.2113 31.4156 23.2045 31.3747 23.2024C31.2447 23.1106 31.3415 22.7692 31.0355 22.955C31.08 23.0448 31.2143 22.9317 31.2546 23.0187C31.1881 23.2349 31.2376 23.1926 31.3719 23.1996C31.3892 23.2122 31.4091 23.2207 31.4302 23.2243C31.4513 23.228 31.4729 23.2268 31.4934 23.2208L31.4955 23.2229ZM37.0025 23.6138L36.717 23.6351L36.6118 23.3162L37.0025 23.6138ZM39.5861 24.0196L39.3656 23.9503L39.4681 23.8832C39.4885 23.8004 39.5634 23.6803 39.5125 23.6238C39.4753 23.6187 39.4394 23.6067 39.4066 23.5884C39.4257 23.5866 39.4451 23.5888 39.4633 23.5949C39.4816 23.601 39.4983 23.6108 39.5125 23.6238C39.68 23.6499 39.8991 23.6288 39.8616 23.8655C39.8143 23.7715 39.4963 23.7715 39.4745 23.9518L39.5861 24.0196ZM45.0231 24.3263C44.9107 24.2564 44.9051 24.1885 44.6684 24.3659C44.7236 24.4 44.7886 24.4145 44.853 24.4072C44.9175 24.3999 44.9769 24.3719 45.0231 24.3263ZM38.1685 24.2557C38.1883 24.0747 37.871 24.1405 38.0293 23.9157L38.1692 23.8719C37.9572 23.9426 38.1642 23.4216 37.8294 23.6662L38.0039 23.6457C37.7643 23.7566 38.182 24.0076 37.8314 24.1178C37.6936 24.1638 38.0003 24.3433 38.1742 24.2543L38.1685 24.2557ZM45.3142 24.8283C45.1327 24.7795 45.3085 24.308 44.9319 24.5278C45.1537 24.5986 45.0089 25.0262 45.3142 24.8283ZM39.921 24.9922L39.8892 25.0368L39.6638 24.8976L39.6948 24.8537L39.921 24.9922Z" fill="white"/>
<path d="M43.8727 22.391C43.9093 22.3751 43.9486 22.3667 43.9884 22.3662C44.0283 22.3657 44.0678 22.3731 44.1047 22.3881C44.0283 22.4038 43.9495 22.4048 43.8727 22.391Z" fill="white"/>
<path d="M30.7598 21.5415C30.7489 21.5742 30.7316 21.6044 30.7087 21.6302C30.6858 21.656 30.658 21.6768 30.6268 21.6915C30.6541 21.6287 30.7007 21.5762 30.7598 21.5415Z" fill="white"/>
<path d="M30.1523 21.4041L30.1212 21.4027L30.1021 21.3752L30.1523 21.4041Z" fill="white"/>
<path d="M8.59613 22.0941C8.50283 21.7165 8.78283 22.0248 8.92773 22.017C8.78273 22.0248 8.66613 22.2971 8.59613 22.0941Z" fill="white"/>
<path d="M9.58398 22.6898C9.55278 22.6336 9.50907 22.5853 9.45625 22.5486C9.40342 22.5119 9.34287 22.4879 9.27928 22.4783C9.37538 22.4628 9.46808 22.4988 9.58398 22.6898Z" fill="white"/>
<path d="M8.69635 22.5606C8.87945 22.4806 9.08098 22.4522 9.27905 22.4786C9.12985 22.5005 8.97355 22.6539 8.69635 22.5606Z" fill="white"/>
<path d="M12.6571 22.4705C12.5334 22.2406 12.1621 22.3785 12.1621 22.3785C12.9591 22.1289 12.1141 21.9373 12.0936 21.7612C12.5384 21.827 12.4732 22.1254 12.6571 22.4705Z" fill="white"/>
<path d="M13.6162 22.5569C13.5408 22.5579 13.4666 22.5761 13.3992 22.6099C13.4286 22.5845 13.4636 22.5665 13.5014 22.5573C13.5391 22.5481 13.5784 22.548 13.6162 22.5569Z" fill="white"/>
<path d="M13.9447 22.3179C14.1901 22.3653 14.2191 22.6305 14.2891 22.8334C13.9327 23.0356 13.8323 22.6156 13.6145 22.5576C13.7983 22.5463 13.9709 22.569 13.9447 22.3179Z" fill="white"/>
<path d="M18.1874 21.5275C18.1344 21.4999 17.9915 21.5055 18.0234 21.3564L18.4561 21.3394C18.6088 21.4228 18.2814 21.4943 18.1874 21.5275Z" fill="white"/>
<path d="M19.2225 22.046C19.5605 22.063 19.4735 21.6804 19.627 21.7646L19.4862 22.273L19.2225 22.046Z" fill="white"/>
<path d="M18.698 24.0047L18.6068 23.9545L18.7185 23.97L18.698 24.0047Z" fill="white"/>
<path d="M20.6468 21.7189L20.5443 21.1582C20.7988 21.2968 20.6949 21.7472 20.6468 21.7189Z" fill="white"/>
<path d="M21.6714 21.3866L21.5116 21.2154L22.1035 21.3731L21.6714 21.3866Z" fill="white"/>
<path d="M22.8025 21.5673L22.888 21.4463L23.2861 21.5828L22.8025 21.5673Z" fill="white"/>
<path d="M35.9346 22.02C35.8766 22.498 35.2416 22.2972 35.0104 22.4195C35.301 21.8192 35.5068 22.6218 35.9346 22.02Z" fill="white"/>
<path d="M43.2188 22.5979L42.5943 22.477C43.1508 22.2981 42.7359 22.4769 43.2188 22.5979Z" fill="white"/>
</mask>
<g mask="url(#mask0_5_498)">
<path d="M51.3582 21.0928C50.5587 22.8922 46.7611 23.7919 45.262 23.8919C44.5625 23.9919 43.663 23.492 42.9635 23.592C42.5637 23.692 42.3639 24.3917 41.8642 24.2917C41.4644 24.2917 41.1646 24.1918 40.7649 24.0918C39.1659 23.692 37.3671 23.492 35.6681 23.692C34.7687 23.7919 33.9692 23.2921 33.1697 23.0922C32.5701 22.9922 31.7706 23.2921 31.0711 23.1921C29.9718 22.9922 28.8725 23.2921 27.8731 23.1921C26.1742 23.0922 24.5752 23.0922 22.8763 22.9922C21.5771 22.8922 20.2779 23.1921 19.0787 23.2921C17.8795 23.3921 16.6802 23.3921 15.481 23.3921C13.0825 23.3921 10.684 23.2921 8.28556 23.2921" stroke="#202020" stroke-width="3.99865" stroke-miterlimit="10" stroke-linejoin="round" stroke-dasharray="41.99 41.99"/>
</g>
<mask id="mask1_5_498" style="mask-type:luminance" maskUnits="userSpaceOnUse" x="1" y="12" width="30" height="18">
<path d="M28.5631 28.9297C28.5882 28.9567 28.6162 28.9808 28.6465 29.0018C28.5433 28.999 28.4974 28.9841 28.5631 28.9297Z" fill="white"/>
<path d="M29.8265 29.4626C29.4 29.4135 28.9934 29.2549 28.6463 29.0022C28.98 29.0107 29.9418 28.8764 29.8265 29.4626Z" fill="white"/>
<path d="M28.8623 28.0044L29.2314 28.266C28.9161 28.3636 29.0708 28.1055 28.8623 28.0044Z" fill="white"/>
<path d="M28.8135 28.5654L28.7089 28.7677L28.5561 28.5159L28.8135 28.5654Z" fill="white"/>
<path d="M5.94 25.1182C5.94847 25.2325 5.91859 25.3465 5.8551 25.442L5.94 25.1182Z" fill="white"/>
<path d="M5.36304 23.9079C5.30761 23.8638 5.24764 23.8256 5.18414 23.7941C5.25134 23.7961 5.28734 23.8323 5.36304 23.9079Z" fill="white"/>
<path d="M6.87207 25.2861L6.68397 25.2663C6.74698 25.2501 6.81381 25.2572 6.87207 25.2861Z" fill="white"/>
<path d="M18.2304 27.4104C18.3336 27.5999 18.4334 27.7732 18.5154 27.8962C18.1279 27.9754 18.2403 27.6296 18.2304 27.4104Z" fill="white"/>
<path d="M3.29828 24.2911L3.36628 24.1171C3.41008 24.1821 3.42698 24.2501 3.29828 24.2911Z" fill="white"/>
<path d="M6.33398 21.1044C6.30676 21.1805 6.26657 21.2513 6.21518 21.3137C6.20518 21.2953 6.19178 21.2805 6.18048 21.2579L6.33398 21.1044Z" fill="white"/>
<path d="M7.71408 25.1471L7.73038 25.1308L7.83008 25.2744C7.74108 25.2828 7.70138 25.2432 7.71408 25.1471Z" fill="white"/>
<path d="M4.84005 24.2345C4.91001 24.3337 4.96132 24.4449 4.99146 24.5625C4.95986 24.5511 4.93085 24.5335 4.9061 24.5107C4.88135 24.488 4.86136 24.4606 4.84727 24.4301C4.83319 24.3996 4.82531 24.3666 4.82407 24.333C4.82283 24.2994 4.82826 24.266 4.84005 24.2345Z" fill="white"/>
<path d="M5.15627 23.7851L5.16057 23.7808L5.18457 23.795C5.17327 23.795 5.16977 23.7887 5.15627 23.7851Z" fill="white"/>
<path d="M7.66992 21.6886C7.60772 21.6391 7.54692 21.5995 7.48252 21.5394C7.50474 21.5361 7.52739 21.5374 7.54908 21.5432C7.57077 21.5491 7.59102 21.5593 7.60859 21.5733C7.62616 21.5873 7.64067 21.6047 7.65122 21.6246C7.66177 21.6444 7.66814 21.6662 7.66992 21.6886Z" fill="white"/>
<path d="M18.2295 27.4105C18.2012 27.3566 18.1722 27.3031 18.1425 27.25C18.2069 27.2705 18.2267 27.3313 18.2295 27.4105Z" fill="white"/>
<path d="M27.2451 29.0491C27.1043 29.0201 27.1191 28.8935 27.1376 28.7705C27.1997 28.851 27.237 28.9478 27.2451 29.0491Z" fill="white"/>
<path d="M30.4737 14.4584L30.5352 14.4351C30.527 14.4429 30.5174 14.4491 30.5068 14.4531C30.4962 14.4571 30.485 14.4589 30.4737 14.4584Z" fill="white"/>
<path d="M24.6025 16.2469C24.5711 16.217 24.5458 16.1812 24.5282 16.1415C24.5827 16.0871 24.6039 16.1521 24.6025 16.2469Z" fill="white"/>
<path d="M19.0129 22.1379L18.0116 21.8432C17.9656 22.0545 17.4971 22.2164 17.7947 22.3796L17.4208 22.1146L17.4271 22.3443C15.7354 23.1078 14.5469 21.6403 12.8247 22.96L12.8424 23.0427L11.9682 22.6673C11.7901 22.7593 11.6905 23.1841 11.3916 23.3856C11.5789 22.9154 10.8574 23.4336 10.7273 23.0844C10.485 23.3057 10.6976 23.3785 10.7365 23.5432C9.7825 24.1355 9.1536 23.5389 8.13115 24.0288C8.6623 23.6127 9.2497 23.2741 9.87584 23.0229C9.11193 22.9133 8.92245 23.3841 8.08378 23.4018L8.45894 23.5297C7.93748 24.2663 7.19905 23.4004 6.97499 24.1659C6.47831 24.1496 6.12983 23.4971 5.49313 23.7383L5.68041 24.3342L5.11297 24.4465L5.15894 24.0047C5.08864 24.0031 5.01968 24.024 4.96218 24.0645C4.90467 24.105 4.86166 24.1629 4.83945 24.2296C4.51295 23.7955 3.93782 24.1758 3.45303 23.8817L3.36469 24.1115C3.33051 24.0708 3.30089 24.0264 3.27634 23.9793C3.12374 24.3836 2.7153 24.3215 2.64954 24.6798C2.81064 24.7349 3.1824 24.8636 3.1795 24.6332C3.55906 24.99 2.61776 24.9745 2.33434 25.0304C2.66713 24.7625 2.27718 24.7823 2.11598 24.7272C2.0814 24.7915 2.13507 24.8099 2.15206 24.8933C2.09478 24.9309 2.02932 24.9541 1.96118 24.9611L3.5039 19.5105C3.82829 19.6554 3.6502 20.4584 4.21834 19.8731L4.1208 20.3071L4.61969 20.1177C4.2897 20.9426 5.10308 20.3496 4.82676 21.1235C5.238 21.2664 4.97666 20.6415 5.08959 20.7702C5.5533 20.7221 5.91576 21.6629 6.21817 21.3166C6.43373 21.6947 6.88375 21.6191 7.09941 21.863L7.2739 21.5187C7.38693 21.646 7.48586 21.8721 7.66045 21.8488C7.68143 21.7995 7.68659 21.7449 7.67524 21.6925C8.09154 22 8.564 22.2228 9.06596 22.3485C9.14021 22.1076 9.20237 21.9605 8.96502 21.8021C9.55005 21.5958 9.9422 22.5761 10.6708 22.6292L10.6969 22.4405L10.9464 22.8314C10.9203 22.6949 11.0213 22.591 11.0814 22.4447C11.7562 22.5543 12.5491 22.7819 12.5858 23.5665C12.4813 23.346 13.0607 23.2328 12.8035 22.8427C13.2572 23.4901 14.1412 23.6025 14.8125 23.9178L14.7885 23.9418L15.0189 24.1921L15.0698 24.1411L14.9072 23.9645C15.176 24.0847 15.3996 24.2875 15.5453 24.5434C15.6831 24.3434 15.8643 24.1771 16.0753 24.057C15.8958 24.4981 17.0901 23.8803 17.2421 24.4607C17.3388 24.3539 17.1247 24.3363 17.3105 24.2182C18.182 24.5243 19.3032 25.386 20.528 25.3061C20.2651 26.1741 21.2587 26.1783 21.6826 26.7156C22.036 26.2476 21.4558 26.377 21.4565 25.9621C21.7399 26.1522 21.7767 25.3591 22.2006 25.9005C22.2119 25.8059 22.2586 25.7522 22.1335 25.7246C22.4733 25.7663 21.8119 26.329 22.3794 26.2901L22.5433 25.9409L22.6607 26.4823C23.785 26.5028 24.5637 26.9822 25.6237 26.8223C25.6232 26.8933 25.6015 26.9626 25.5614 27.0212C25.5214 27.0799 25.4648 27.1253 25.3989 27.1517C25.8159 27.2295 26.0632 27.9278 26.6759 27.6769L26.6066 27.503C27.4857 27.363 27.203 28.0997 28.0447 28.4284C27.8291 28.4164 27.4681 28.0579 27.2596 28.4616C27.232 28.7422 27.7055 28.8044 27.9409 28.6284L27.68 29.0871C27.6652 28.7641 27.321 28.7281 27.1218 28.5287C27.1747 28.5817 27.1551 28.6835 27.1402 28.7831C26.9099 28.6023 26.6604 28.4475 26.396 28.3216L26.8695 28.3711C26.8695 27.8622 26.0992 28.2141 25.9891 28.0007C25.8159 28.4439 26.1205 28.4418 25.7007 28.7373C24.8739 28.7273 25.4456 28.1753 24.8909 27.6161L25.0753 27.4952C24.8675 27.3878 24.8746 26.8774 24.4153 27.1333C24.3016 27.4282 24.5566 27.4826 24.6252 27.6557C24.4818 27.8162 24.4231 27.0379 24.0513 27.2797C24.1046 27.4946 24.2209 27.6886 24.3854 27.8368C24.5499 27.9849 24.755 28.0804 24.9742 28.111C24.8707 28.2362 24.8109 28.3918 24.8039 28.5541C23.8097 27.9653 22.8041 27.1446 21.5894 27.1355C21.9548 27.8219 21.3329 27.081 21.229 27.6967C21.3145 27.2691 20.8071 27.5731 20.5689 27.3277C20.2665 27.7406 21.0424 27.8169 20.6729 28.0551C20.1308 27.8056 19.668 26.8095 18.8454 26.7827C18.8257 26.9708 18.9923 27.04 18.9833 27.134C18.5345 26.8761 18.3084 25.6985 17.6809 26.2922C17.8116 26.6025 17.9791 26.944 18.1381 27.2486C18.0751 27.2296 17.9706 27.2507 17.7847 27.3433L17.8328 27.708C17.1841 27.6585 17.6547 26.8966 17.4915 26.411L16.9333 26.7629C16.7659 26.7935 16.5942 26.7901 16.4282 26.753C16.2622 26.7159 16.1053 26.6458 15.9669 26.547C15.8285 26.4481 15.7114 26.3224 15.6224 26.1774C15.5335 26.0323 15.4746 25.8709 15.4492 25.7027C15.3213 25.6737 14.8161 25.5527 14.8486 26.0123C14.951 26.6491 14.9475 27.0683 15.6224 27.2599C15.8789 26.9001 15.2938 26.698 15.5058 26.719C15.7496 26.874 16.3771 26.6958 16.4619 27.1029L15.7488 26.8732C15.51 27.4628 16.0428 26.9736 16.0506 27.2966C15.6549 27.7193 15.4634 27.0966 15.0521 27.2875L15.0916 27.327C14.5553 27.0732 14.5842 27.2069 14.1109 26.8039C14.3009 26.2689 14.4457 26.5283 14.809 26.3884C13.8783 26.1359 13.0367 24.8021 11.7033 25.4744L12.0651 26.0809C11.6743 26.0816 11.2751 25.4319 11.0192 26.1134C11.5096 26.0074 11.1612 26.3743 11.3153 26.5424L11.3662 26.4914C11.4065 26.5318 11.5188 26.6584 11.3852 26.7226C11.1763 26.3362 10.8934 25.9947 10.5527 25.7175C10.6377 25.9041 10.2355 26.0349 10.1486 26.1218C9.86805 25.9218 10.2709 25.8284 10.3818 25.6298C10.2164 25.5548 10.097 25.1032 9.79879 25.4171C9.42703 25.6475 9.96559 25.8158 9.93371 26.0992L9.1607 25.3598L9.1501 25.4538C9.12252 25.3174 9.0081 25.1916 8.87029 25.253C8.67101 25.4623 8.87308 25.5796 9.04907 25.5577C8.3777 25.7741 8.48373 24.53 7.73041 25.1336L7.53683 24.8438C7.48516 24.8954 7.38273 24.9979 7.423 25.0424L7.24562 24.7363C6.81529 24.3652 6.88525 25.1944 6.65629 25.2651L6.68457 25.2693C6.4874 25.3053 6.27403 25.4821 6.35808 25.5775L5.94045 25.1075L5.93765 25.1188C5.91077 24.6283 5.14405 24.2953 5.49663 23.5226C5.32354 23.5403 5.14545 23.6492 5.15884 23.7813C4.77159 23.616 4.98995 24.4111 4.38234 24.103C4.31938 24.2493 4.40702 24.2394 4.48327 24.3257C4.30599 24.2897 4.25642 24.2189 4.26351 24.1284C4.21602 24.2314 4.15417 24.3271 4.07983 24.4126C4.20485 24.1207 3.90314 24.1044 3.72865 24.1221L3.74274 24.6819C3.74483 24.6274 3.73476 24.573 3.71328 24.5228C3.6918 24.4726 3.65944 24.4277 3.61853 24.3916C3.57763 24.3554 3.5292 24.3287 3.47674 24.3135C3.42429 24.2984 3.36912 24.295 3.31522 24.3038L3.35269 24.6734C2.95195 24.4338 3.61622 23.9956 2.95415 24.1066L3.57955 23.9517C3.05378 23.6761 3.51799 23.1155 3.39367 22.7551C3.15272 22.3386 2.61916 22.4482 2.2496 22.3104L2.30536 22.1231C2.43726 22.0957 2.57462 22.118 2.69109 22.1857C2.80756 22.2534 2.89494 22.3618 2.93646 22.49C3.05588 22.1499 2.98443 22.0488 3.21208 21.7435C3.03764 21.7529 2.8653 21.7019 2.72409 21.599C2.58288 21.4961 2.48145 21.3477 2.43688 21.1787L2.41919 21.161L1.82767 23.2555C2.33154 23.9008 2.53791 22.1026 3.00431 23.0752C2.78026 23.4703 2.52862 23.4011 2.39171 23.1353C2.33639 23.2786 2.3163 23.433 2.33314 23.5857C2.34997 23.7384 2.40324 23.8848 2.48844 24.0126C2.21105 23.8492 1.88568 23.787 1.56763 23.8365L2.49204 20.5778C2.6851 20.47 2.89361 20.3925 3.11025 20.3481C3.24736 20.5079 3.62892 20.6917 3.82609 20.5538C3.76813 20.828 4.56602 20.8768 4.24093 21.4805C4.79138 21.5165 4.69104 20.6428 5.16104 21.1836C5.01194 20.7518 5.56029 20.7843 5.3836 20.4167C5.14195 20.8676 4.61759 20.3078 4.36605 20.0689L5.21471 19.6723C5.00055 19.83 5.25428 20.0682 5.36242 20.1029L5.52072 19.6957C5.53271 20.6139 7.03715 18.7612 7.31697 19.7734C7.06903 19.7643 6.8068 20.1326 6.74463 19.6561C6.23586 20.0152 6.76012 20.3474 6.49519 20.7128C7.19195 20.9504 8.38829 20.1382 9.10693 20.6874C8.9967 20.4217 8.62574 20.5241 8.63703 20.1467C9.25534 19.8237 9.86875 20.5672 10.5125 20.7857L10.4398 20.3198C10.9605 20.6471 10.6885 20.0979 11.2912 20.1509C11.2588 20.2159 11.1527 20.4096 11.2962 20.3807C11.8085 20.2513 11.3972 19.9572 11.7471 19.7727C12.2919 20.4139 12.1124 19.2108 12.8635 19.4674L12.8262 19.3013C13.4155 19.502 14.3101 18.6651 14.9963 18.441C14.9291 18.5704 14.433 18.5519 14.438 19.0136L15.2725 18.9916C15.3397 18.8623 15.7107 18.7598 15.5122 18.5399C15.4061 18.5046 15.281 18.6142 15.1949 18.6609L15.3348 18.4022C16.0958 18.5088 15.2041 19.1196 15.1574 19.5608C15.5976 19.3282 15.6937 19.7423 15.9786 19.6837C16.1644 19.215 15.4889 19.2929 15.9057 18.7484C16.1835 18.4607 16.9671 18.6481 17.2067 19.0264C17.7296 17.9122 18.8666 18.4968 18.9599 17.6967C18.9281 17.761 19.0426 18.0254 19.2489 17.8613L19.1535 17.6839C19.7697 17.1962 19.6588 18.2841 20.0397 18.0232C20.0461 17.8755 19.9379 17.8423 19.8977 17.6833C20.6948 17.3199 21.0431 18.3851 21.8621 17.7087C21.8381 17.6295 21.8169 17.549 21.7314 17.6005C21.7067 17.5207 21.8466 17.4853 22.0912 17.621L21.7915 17.9858C22.1441 18.8135 22.9178 17.3086 23.551 17.3821C23.4981 17.2302 23.0218 17.3333 23.2846 17.0308C23.7029 16.9107 23.621 17.903 24.1433 17.2874C23.9192 17.2415 24.0054 16.7622 23.7949 16.7311C24.1199 16.5742 24.3545 16.2419 24.4627 16.5622C24.5061 16.5222 24.5408 16.4737 24.5647 16.4197C24.5885 16.3657 24.6009 16.3073 24.6012 16.2483C24.8018 16.4561 25.1382 16.162 25.3566 16.0144L25.3028 15.8602C25.6958 16.6505 25.9692 15.6871 26.4929 15.5633L26.4059 15.335C26.5695 15.412 26.756 15.4249 26.9286 15.3713C27.1012 15.3177 27.2475 15.2013 27.3387 15.0452L27.1345 14.807C27.4455 14.9201 27.9889 14.2182 28.2644 14.5886C28.3662 14.4613 27.9577 14.1404 28.439 13.9149C28.4847 13.9606 28.5414 13.9938 28.6036 14.0111C28.6658 14.0285 28.7314 14.0294 28.7941 14.0139C28.8568 13.9984 28.9145 13.967 28.9614 13.9226C29.0084 13.8783 29.0431 13.8226 29.0622 13.7608C29.0502 13.623 28.9817 13.4809 28.8624 13.6782C28.7831 13.7403 28.8376 13.7452 28.8694 13.8124L28.6906 13.6619C29.0432 13.2752 29.0036 13.7516 29.3859 13.4385C29.4474 13.2356 29.2297 13.2215 29.1598 13.0794C29.1598 13.0794 29.5364 13.066 29.9123 13.0236L30.6777 12.9536C30.7371 13.1543 30.5618 13.3523 30.7321 13.5622L30.2332 13.886C30.0311 14.3581 30.5555 14.1645 30.79 14.1687L30.4368 14.3666C30.424 14.4118 30.4375 14.455 30.4727 14.4578L30.2014 14.5638C30.9872 14.708 29.5223 15.581 30.3554 15.5859C30.2473 15.6048 30.1361 15.5951 30.0329 15.5578C29.9296 15.5204 29.8379 15.4568 29.7668 15.3732C29.3923 15.4227 29.5033 15.6369 29.371 15.8355L29.9484 15.9253C29.0743 16.1692 30.0743 16.2731 29.4672 16.7996C28.7196 16.8491 28.3641 18.1265 27.974 18.3173C27.2045 18.5372 28.2482 17.7801 27.7649 17.7433C27.3507 17.8437 27.5712 18.0784 27.3091 18.2586L27.1119 17.8183C26.6406 17.9122 27.1006 18.3102 26.8307 18.2112C26.4582 18.6672 26.9558 18.3689 27.0561 18.7266C26.9429 18.6698 26.814 18.6524 26.6898 18.6773C26.5656 18.7021 26.4532 18.7677 26.3706 18.8637C26.3706 19.0051 26.8808 18.8567 26.5578 19.027C25.3686 19.1592 25.0711 19.8286 24.0048 20.0739L24.0917 20.3022C23.9722 20.2802 23.8853 20.1933 23.7666 20.3149L23.8246 20.469C23.1785 20.4798 22.5359 20.5669 21.9102 20.7284L22.2501 20.9539L21.6502 20.7412L21.6869 21.1907C21.5024 20.7829 20.752 21.2635 20.1782 21.2579L20.1562 21.5498L19.8199 21.4621L19.9231 21.6417C19.5733 21.6932 19.2058 21.2918 18.7818 21.6198C19.0397 21.4706 19.0567 21.9259 19.0129 22.1379ZM4.95747 23.9574L4.80697 23.9666C4.85574 24.0041 4.908 23.9899 4.95747 23.9574L5.19702 23.9454C5.20411 23.6725 5.09039 23.8768 4.95747 23.9574ZM19.9746 25.5613L19.6439 25.4214C19.7288 25.4101 19.9238 25.6151 19.9048 25.384C19.9435 25.427 20.0721 25.4554 19.9746 25.5613ZM5.8479 20.9646L5.6995 20.7667L5.52781 21.0884L5.8479 20.9646ZM9.01869 20.3688L8.70209 20.2612L8.66531 20.3263L8.98901 20.4352L9.01869 20.3688ZM13.0954 22.2158C12.942 21.74 12.7717 22.2907 12.5315 22.1253C12.5159 22.105 12.4955 22.0889 12.4721 22.0786C12.4895 22.097 12.5095 22.1128 12.5315 22.1253C12.6622 22.28 12.7773 22.7063 13.0954 22.2158ZM5.82522 23.2449C5.79484 23.5398 6.18279 23.5192 6.27613 23.7031C6.45282 23.6097 6.24995 23.3942 6.21537 23.2252C6.30372 23.1792 6.35668 23.1969 6.46481 23.2329C6.47471 22.6278 6.13053 23.5022 5.82602 23.2457L5.82522 23.2449ZM6.36018 21.8942L6.18349 21.586L6.27324 21.5768L6.36018 21.8942ZM7.84773 22.0602C7.9271 22.0853 7.99914 22.1294 8.05758 22.1886C8.11602 22.2479 8.1591 22.3206 8.18306 22.4003C8.20702 22.48 8.21114 22.5644 8.19506 22.6461C8.17897 22.7278 8.14317 22.8043 8.09078 22.869C7.85263 22.7099 7.428 22.661 7.43859 22.242C7.48656 22.5176 7.5926 21.6709 7.84773 22.0602ZM9.84187 22.0221C9.63 21.9514 9.38815 21.3322 8.89287 21.7796L9.21087 21.8856L9.12462 21.9324L9.18048 22.1804C9.17699 21.4898 9.64759 22.0298 9.84187 22.0221ZM10.3211 23.3157C10.3911 23.3588 10.4519 23.4155 10.4998 23.4824C10.5477 23.5493 10.5818 23.625 10.6002 23.7052C10.6185 23.7854 10.6207 23.8685 10.6066 23.9496C10.5925 24.0306 10.5625 24.1081 10.5181 24.1774C10.6778 23.9257 10.2998 23.5065 10.1218 23.2011C10.1924 23.2817 10.2362 23.3256 10.3211 23.3157ZM9.96129 23.7758C9.7874 23.7956 9.70125 24.1321 9.52317 23.8267C9.68506 23.5758 9.85326 22.907 9.36487 23.0068C9.4702 23.556 9.39745 23.7955 9.70195 24.1328L9.96129 23.7758ZM9.69776 22.6455L9.10344 22.7113C9.13032 23.3503 9.41504 22.7983 9.69776 22.6455L9.89133 22.6229C9.85965 22.6108 9.82548 22.6065 9.79176 22.6104C9.75805 22.6143 9.72579 22.6264 9.69776 22.6455ZM13.3391 23.7434L13.2635 23.5616C13.3145 23.4866 13.3271 23.4076 13.1709 23.3475L13.2635 23.5616C13.1604 23.7059 12.8967 23.8281 13.3391 23.7434ZM10.167 22.8167L10.62 22.9969C10.4433 23.0237 10.0942 23.0647 10.1684 22.8223L10.167 22.8167ZM12.2848 23.8748C12.5083 23.9298 12.7363 23.9648 12.9661 23.9794C12.8989 23.8005 12.4438 23.6225 12.2848 23.8748ZM23.2655 26.8868L22.9737 27.207L23.2684 27.3023L23.2655 26.8868ZM19.904 26.6344L19.738 26.5658L19.5903 26.7248L19.904 26.6344ZM16.1474 26.0336C16.1796 26.0325 16.2109 26.0228 16.2382 26.0055C16.2654 25.9883 16.2875 25.964 16.3023 25.9353C16.7497 25.79 17.2334 25.802 17.6731 25.9693C17.9098 25.7989 17.6081 25.3741 17.5417 25.1988C17.2329 26.4449 17.0859 25.0255 16.6103 25.3684C16.6399 25.5042 16.8555 25.5218 16.835 25.7091C16.7675 25.7531 16.6873 25.7738 16.6069 25.7679C16.5265 25.762 16.4503 25.73 16.3898 25.6766C16.399 25.5854 16.3834 25.5077 16.3388 25.4985C16.3336 25.5301 16.3355 25.5624 16.3443 25.5932C16.3532 25.624 16.3687 25.6525 16.3898 25.6766C16.382 25.7688 16.3516 25.8571 16.3023 25.9353C16.2455 25.9574 16.1944 25.9916 16.151 26.0343L16.1474 26.0336ZM11.6389 24.8885C11.6212 24.7647 11.8467 24.6721 11.6459 24.4572C11.6027 24.5205 11.579 24.5951 11.5778 24.6718C11.5765 24.7484 11.5978 24.8238 11.6389 24.8885C11.6459 24.9337 11.6849 24.9838 11.7958 25.0454C11.7312 25.0096 11.6785 24.9558 11.6439 24.8905L11.6389 24.8885ZM11.6007 25.5812L11.2022 24.9323L11.2933 25.2454L10.9881 24.9118C10.9573 25.0001 10.951 25.0951 10.97 25.1868C10.9889 25.2784 11.0324 25.3632 11.0957 25.432C11.159 25.5009 11.2399 25.5512 11.3296 25.5778C11.4193 25.6043 11.5145 25.6059 11.605 25.5825L11.6007 25.5812ZM10.1352 24.822L10.7422 25.1705L10.7514 25.1005L10.7924 25.1189L10.7945 24.8L10.7556 25.1076L10.1352 24.822ZM4.86983 22.695L4.53134 22.6392C4.59066 22.7412 4.67004 22.83 4.76467 22.9003C4.8593 22.9707 4.96722 23.0211 5.08189 23.0485C4.38014 23.773 5.01893 22.8683 4.30599 23.0343C4.97157 23.2167 4.48687 23.6507 4.31298 23.9717C4.39143 23.4592 3.41695 23.4994 4.10602 22.5897C4.24593 22.8555 4.95957 22.0383 4.87203 22.7L4.86983 22.695ZM4.25362 21.7959L4.69884 21.7945L4.22114 21.8595L4.25362 21.7959ZM16.8717 19.0688C16.775 18.6553 16.11 19.196 16.1163 19.4243C16.2174 19.2342 16.5529 19.1925 16.8717 19.0688ZM21.4248 18.1096C21.1605 18.2693 20.8312 17.7986 20.6813 18.3555L21.2063 18.427C21.3074 18.2255 21.4927 18.3485 21.4248 18.1096ZM24.7354 17.0471L24.9043 17.506L24.7333 17.4762L24.7354 17.0471ZM24.1813 16.6485C24.2683 16.5941 24.6295 16.599 24.5149 16.862L24.1813 16.6485ZM27.6277 15.8547L27.4122 15.4779L27.6312 15.3662L27.6277 15.8547ZM27.4179 16.2484C27.3479 16.2222 27.3168 16.1304 27.2964 16.0222C27.1748 15.9459 26.9784 15.9742 26.789 16.1735C26.8243 16.3884 26.955 16.1982 27.0744 16.2088C26.9918 16.2675 26.8539 16.4633 26.683 16.4435C26.8695 15.9741 26.7275 16.0257 26.7437 15.6758C27.2454 15.2743 27.2342 15.7197 27.2964 16.0237C27.3337 16.0472 27.3648 16.0794 27.3869 16.1175C27.4091 16.1557 27.4217 16.1986 27.4236 16.2427L27.4179 16.2484ZM25.5883 17.0521C25.6383 16.9808 25.6716 16.8991 25.6859 16.8132C26.0173 16.5693 26.3495 16.3333 25.9997 16.047L25.6937 16.2116C25.8336 16.1607 25.8053 16.2286 25.8343 16.3043C25.6116 16.5552 25.4696 16.317 25.3042 16.2845C25.394 16.4208 25.7438 16.505 25.688 16.8096C25.5982 16.8782 25.5099 16.9454 25.435 17.0132C25.3813 16.9736 25.3205 16.9581 25.2485 17.1292L25.2788 17.2062C25.3169 17.1317 25.3701 17.0659 25.435 17.0132C25.4859 17.0556 25.534 17.1136 25.5883 17.0521ZM27.6949 16.4831C27.7281 16.5559 27.6772 16.6916 27.7691 16.7693L27.9437 16.7842C28.1655 16.5198 27.8943 16.4322 27.6949 16.4831ZM18.0314 19.1388C17.9777 19.1218 17.466 19.259 17.4943 18.9692L17.3091 19.437C17.5719 19.2957 17.7946 19.5933 17.6724 19.7057C17.8949 19.3939 18.0766 19.5304 18.0314 19.1388ZM5.02183 21.6765C5.14405 21.7987 5.83372 21.3436 5.8578 21.8864C6.15461 21.2219 5.37371 21.4912 5.02323 21.6751L5.02183 21.6765ZM4.87053 22.3112C4.81602 22.3073 4.76123 22.3099 4.70733 22.3189C4.52365 22.237 4.5978 21.7853 4.22544 22.0942C4.29739 22.1946 4.45579 22.0192 4.52784 22.121C4.47488 22.4059 4.53205 22.3429 4.70733 22.3189C4.73376 22.3297 4.76223 22.3344 4.79071 22.3328C4.81919 22.3312 4.84696 22.3234 4.87203 22.3097L4.87053 22.3112ZM12.1626 21.3633L11.7915 21.4658L11.6064 21.0983L12.1626 21.3633ZM15.628 21.1668L15.3256 21.1398L15.4478 21.0289C15.4605 20.9201 15.5382 20.7505 15.4627 20.6932C15.4142 20.6974 15.3654 20.6931 15.3185 20.6805C15.3905 20.6663 15.4365 20.6727 15.4627 20.6932C15.6838 20.6854 15.9729 20.5914 15.9658 20.8967C15.8902 20.7971 15.4669 20.884 15.4711 21.1088L15.628 21.1668ZM22.9617 19.7248C22.7914 19.6873 22.7659 19.6082 22.4903 19.9136C22.5787 19.931 22.6703 19.9224 22.7539 19.8889C22.8376 19.8554 22.9097 19.7984 22.9617 19.7248ZM13.8048 21.8454C13.8013 21.6157 13.395 21.7817 13.5632 21.4622L13.7405 21.3697C13.4756 21.5089 13.6614 20.8098 13.2608 21.2049L13.4868 21.1314C13.1893 21.3344 13.7801 21.5351 13.3369 21.7662C13.1618 21.8581 13.59 22.0037 13.8048 21.8454ZM23.5023 20.1962C23.2401 20.2166 23.3454 19.5869 22.896 19.9996C23.2148 19.9961 23.1369 20.5672 23.5023 20.1962ZM16.2499 22.2723L16.2152 22.3365L15.8894 22.2298L15.9234 22.1662L16.2499 22.2723Z" fill="white"/>
<path d="M23.5706 16.8025C23.6346 16.7514 23.715 16.7252 23.7969 16.7289C23.7262 16.7662 23.6497 16.7911 23.5706 16.8025Z" fill="white"/>
<path d="M3.9375 20.3906C3.93069 20.4249 3.91703 20.4575 3.89734 20.4864C3.87765 20.5153 3.85233 20.5399 3.8229 20.5588C3.84285 20.4923 3.88288 20.4335 3.9375 20.3906Z" fill="white"/>
<path d="M3.13843 20.3467L3.10803 20.3502L3.08543 20.3276L3.13843 20.3467Z" fill="white"/>
<path d="M26.867 29.3875C26.874 29.8019 26.6888 29.4158 26.56 29.3889C26.6888 29.4158 26.8408 29.1634 26.867 29.3875Z" fill="white"/>
<path d="M26.1135 28.5356C26.1272 28.598 26.1546 28.6565 26.1938 28.7069C26.2329 28.7573 26.2828 28.7984 26.3398 28.827C26.2549 28.8185 26.175 28.757 26.1135 28.5356Z" fill="white"/>
<path d="M26.8672 28.8795C26.69 28.919 26.5048 28.9004 26.339 28.8265C26.4719 28.8349 26.6423 28.7169 26.8672 28.8795Z" fill="white"/>
<path d="M23.3735 28.0297C23.4365 28.2977 23.7893 28.2447 23.7893 28.2447C23.0412 28.3111 23.7441 28.7141 23.7278 28.9029C23.3502 28.7262 23.4668 28.4327 23.3735 28.0297Z" fill="white"/>
<path d="M22.5512 27.7087C22.6171 27.7262 22.6865 27.7253 22.752 27.7059C22.7221 27.7251 22.6874 27.7355 22.652 27.736C22.6165 27.7365 22.5815 27.7271 22.5512 27.7087Z" fill="white"/>
<path d="M22.2141 27.8771C22.0083 27.7689 22.0373 27.4854 22.0147 27.2591C22.3675 27.1339 22.3725 27.5957 22.5527 27.7109C22.3873 27.6756 22.2409 27.6099 22.2141 27.8771Z" fill="white"/>
<path d="M14.6934 27.4302C14.7337 27.4719 14.8596 27.5016 14.803 27.6502L14.419 27.5589C14.3038 27.4338 14.6043 27.4415 14.6934 27.4302Z" fill="white"/>
<path d="M13.5977 26.3616C13.3057 26.2591 13.3021 26.6784 13.1855 26.5518L13.4145 26.0582L13.5977 26.3616Z" fill="white"/>
<path d="M14.8338 23.8839L14.9045 23.9546L14.8069 23.9107L14.8338 23.8839Z" fill="white"/>
<path d="M11.9336 26.4738L11.906 27.0812C11.713 26.874 11.8947 26.4349 11.9336 26.4738Z" fill="white"/>
<path d="M10.6255 26.5382L10.7295 26.7567L10.2465 26.442L10.6255 26.5382Z" fill="white"/>
<path d="M9.35742 25.894L9.25982 26L8.93732 25.7568L9.35742 25.894Z" fill="white"/>
<path d="M10.6435 19.7026C10.6513 20.163 9.99298 20.0901 9.77798 20.2514C9.98798 19.6298 10.2984 20.3475 10.6435 19.7026Z" fill="white"/>
<path d="M22.9736 17.1736L22.333 17.2401C22.8456 16.924 22.473 17.2005 22.9736 17.1736Z" fill="white"/>
</mask>
<g mask="url(#mask1_5_498)">
<path d="M30.0722 12.7957C30.1721 13.4954 29.9722 14.2951 29.4726 14.795C27.9735 16.0945 26.3745 17.2941 24.6756 18.1938C24.1759 18.4937 23.5763 18.6937 23.0766 18.6937C22.8767 18.6937 22.0773 19.0935 21.9773 19.0935C21.2778 19.2935 21.4776 19.1935 20.878 19.2935C20.2784 19.3934 19.5788 19.2935 18.9792 19.3934C18.7794 19.3934 18.5795 19.4934 18.3796 19.4934C17.8799 19.5933 17.4802 19.5933 16.9805 19.6933C16.8806 19.6933 16.7806 19.6933 16.6807 19.7933C16.5808 19.7933 16.4808 19.8932 16.3809 19.9932C16.2809 19.9932 16.0811 19.9932 15.9811 19.9932C15.8812 19.9932 15.6813 20.0932 15.5814 20.1931C15.5814 20.1931 15.6813 20.0932 15.6813 19.9932C12.3834 20.7929 9.18546 20.9929 5.88756 21.4927C5.188 21.5927 3.88883 21.0928 3.18927 21.1928C1.39042 24.4917 4.0887 23.1921 4.88819 22.8922C5.08806 22.7923 5.28794 22.9922 5.48781 23.1921C5.58775 23.2921 4.78826 22.9922 6.2873 23.492C6.48718 23.492 7.18673 23.0922 7.3866 23.0922C8.18609 23.3921 7.78635 23.8919 8.58584 24.1918C9.08552 24.3917 10.3847 24.9915 10.8844 24.9915C13.5827 25.2914 15.9811 25.3914 18.4795 26.2911C19.7787 26.7909 20.978 26.8909 22.2771 27.2907C22.5769 27.3907 22.8768 27.4907 23.2765 27.4907C23.4764 27.4907 23.6762 27.4907 23.8761 27.4907C26.3745 27.2907 28.3733 29.2901 30.7717 29.8899" stroke="#202020" stroke-width="3.99865" stroke-miterlimit="10" stroke-linejoin="round" stroke-dasharray="61.98 61.98"/>
</g>
</g>
<defs>
<clipPath id="clip0_5_498">
<rect width="52.2656" height="44.9688" fill="white" transform="matrix(-1 0 0 1 52.2656 0)"/>
</clipPath>
</defs>
</svg>
