<svg width="53" height="45" viewBox="0 0 53 45" fill="none" xmlns="http://www.w3.org/2000/svg">
<mask id="mask0_5_586" style="mask-type:luminance" maskUnits="userSpaceOnUse" x="0" y="20" width="47" height="6">
<path d="M45.4183 22.9302C45.4513 22.9114 45.4861 22.896 45.5223 22.8843C45.4113 22.8638 45.359 22.8623 45.4183 22.9302Z" fill="white"/>
<path d="M46.8925 22.7487C46.4312 22.6889 45.9623 22.7351 45.5215 22.8837C45.8855 22.958 46.9003 23.3137 46.8925 22.7487Z" fill="white"/>
<path d="M45.5557 23.8528L46.0082 23.7014C45.6858 23.536 45.7996 23.8068 45.5557 23.8528Z" fill="white"/>
<path d="M45.6123 23.3269L45.5416 23.1147L45.3252 23.3085L45.6123 23.3269Z" fill="white"/>
<path d="M26.4651 21.4848C26.4995 21.3811 26.4924 21.2681 26.4453 21.1695L26.4651 21.4848Z" fill="white"/>
<path d="M25.7915 22.1711C25.7204 22.1969 25.647 22.2153 25.5723 22.2262C25.6106 22.2323 25.6498 22.2306 25.6875 22.2211C25.7252 22.2116 25.7605 22.1946 25.7915 22.1711Z" fill="white"/>
<path d="M27.2867 21.5166L27.0781 21.4848C27.1428 21.5165 27.2156 21.5276 27.2867 21.5166Z" fill="white"/>
<path d="M36.9365 22.2304C37.0885 22.0841 37.2349 21.9518 37.3473 21.8606C36.9435 21.6888 36.993 22.0325 36.9365 22.2304Z" fill="white"/>
<path d="M22.3662 24.5526L22.2757 24.3843C22.2425 24.46 22.234 24.5335 22.3662 24.5526Z" fill="white"/>
<path d="M26.0617 24.3348C26.0489 24.2564 26.0216 24.1811 25.9811 24.1128C25.9639 24.125 25.9474 24.1383 25.9316 24.1524L26.0617 24.3348Z" fill="white"/>
<path d="M27.915 21.7831L27.932 21.8001L28.0685 21.6989C27.973 21.6657 27.9235 21.6954 27.915 21.7831Z" fill="white"/>
<path d="M21.2007 24.6777C21.1454 24.7938 21.1102 24.9184 21.0967 25.0462C21.1568 25.0088 21.2008 24.9503 21.2201 24.8822C21.2393 24.814 21.2324 24.7411 21.2007 24.6777Z" fill="white"/>
<path d="M25.5762 22.2183V22.2254L25.6045 22.2197C25.5939 22.2177 25.5875 22.2212 25.5762 22.2183Z" fill="white"/>
<path d="M27.2893 24.1523C27.2102 24.1791 27.1345 24.1983 27.0518 24.2343C27.0727 24.2446 27.0955 24.2507 27.1188 24.2521C27.1421 24.2536 27.1655 24.2504 27.1876 24.2428C27.2097 24.2352 27.23 24.2233 27.2475 24.2077C27.2649 24.1922 27.2791 24.1734 27.2893 24.1523Z" fill="white"/>
<path d="M37.0035 22.1443L36.877 22.2709C36.9097 22.2685 36.9405 22.2543 36.9637 22.2311C36.987 22.2079 37.001 22.1771 37.0035 22.1443Z" fill="white"/>
<path d="M44.0119 22.4976C43.852 22.4877 43.8393 22.6079 43.8379 22.7253C43.9191 22.6703 43.9801 22.5904 44.0119 22.4976Z" fill="white"/>
<path d="M1.41139 22.7437L1.35059 22.7494C1.36039 22.7535 1.37109 22.7552 1.38171 22.7542C1.39233 22.7532 1.40253 22.7496 1.41139 22.7437Z" fill="white"/>
<path d="M7.27969 22.1443C7.30206 22.1021 7.31714 22.0565 7.32429 22.0093C7.26129 21.9675 7.25359 22.0446 7.27969 22.1443Z" fill="white"/>
<path d="M10.3405 25.3796L11.0211 24.9647C11.0791 25.1217 11.433 25.1619 11.2387 25.345L11.4768 25.0714L11.498 25.2523C12.7941 25.5492 13.524 24.2154 14.9274 24.9689L14.9218 25.0368L15.533 24.6035C15.6743 24.6472 15.7882 24.9633 16.0291 25.0743C15.8454 24.7364 16.4305 25.0276 16.4934 24.7342C16.6948 24.8692 16.5436 24.9597 16.5309 25.0941C17.2947 25.4072 17.7046 24.8417 18.5095 25.0629C18.0759 24.8209 17.6071 24.6482 17.1202 24.5511C17.6771 24.3461 17.8614 24.6833 18.4833 24.5689L18.2176 24.7272C18.6727 25.2205 19.1433 24.4345 19.3787 24.9965C19.7482 24.9095 19.9453 24.3447 20.4415 24.4352L20.3567 24.93L20.7884 24.9307L20.7142 24.5922C20.765 24.58 20.8185 24.5859 20.8655 24.6088C20.9124 24.6318 20.9499 24.6704 20.9715 24.718C21.1743 24.3284 21.6392 24.5377 21.9721 24.2373L22.0576 24.4034C22.0804 24.3651 22.0989 24.3243 22.1127 24.2819C22.2632 24.5738 22.5615 24.4649 22.642 24.7349C22.5269 24.8007 22.2611 24.9576 22.2435 24.7774C21.9926 25.1131 22.6915 24.9597 22.9084 24.9604C22.6399 24.8049 22.9282 24.7583 23.0441 24.6918C23.0751 24.737 23.0371 24.7597 23.035 24.824C23.483 25.0064 23.425 24.1511 23.8348 24.7378L23.832 24.4225L24.203 24.6522C24.0851 24.0224 24.6411 24.5901 24.5564 24.0048C24.9196 23.9864 24.591 24.3645 24.7076 24.2974C25.0779 24.4203 25.5457 23.845 25.7301 24.1412C25.976 23.9235 26.3294 24.0605 26.5491 23.9341L26.6291 24.2034C26.7442 24.1376 26.8671 24.0048 27.0056 24.0514C27.0136 24.0897 27.007 24.1295 26.9872 24.1631C27.3923 24.0319 27.8166 23.9697 28.2422 23.9793C28.2592 24.1588 28.284 24.2712 28.0614 24.3355C28.5038 24.5887 29.0006 23.9899 29.6054 24.0888L29.5955 24.2204L29.8704 24.0005C29.8216 24.0931 29.8888 24.18 29.9121 24.2924C30.4859 24.3489 31.1743 24.339 31.3417 23.804C31.2174 23.937 31.6647 24.127 31.3911 24.3426C31.878 23.9815 32.6194 24.0655 33.2242 23.9751L33.2066 23.9574L33.4383 23.8273L33.4687 23.8733L33.3055 23.9659C33.537 23.9366 33.7542 23.8381 33.9287 23.6832C34.0105 23.8521 34.1296 24.0003 34.2771 24.1164C34.2071 23.7792 35.0764 24.4253 35.3018 24.0499C35.3633 24.1412 35.1838 24.1157 35.3159 24.2309C36.0841 24.1836 37.1468 23.7891 38.1341 24.0627C38.0655 23.4117 38.8839 23.5955 39.317 23.295C39.5255 23.6817 39.076 23.4894 39.0047 23.7771C39.2682 23.6959 39.1665 24.2515 39.6032 23.9518C39.5962 24.0195 39.6252 24.0641 39.5191 24.0613C39.8032 24.0923 39.3566 23.5863 39.8152 23.7129L39.8901 23.9843L40.0795 23.6322C41.0009 23.816 41.7197 23.6216 42.5577 23.9185C42.5909 23.8585 42.5436 23.7262 42.4298 23.6492C42.7832 23.6676 43.1012 23.225 43.5605 23.5078L43.4757 23.6167C44.1696 23.8655 44.0601 23.305 44.8014 23.2236C44.6225 23.1946 44.2692 23.3813 44.1654 23.0639C44.1894 22.8645 44.5858 22.9034 44.749 23.0668L44.6077 22.7049C44.5448 22.9246 44.2559 22.8914 44.0601 22.9953C44.1123 22.9671 44.1102 22.8913 44.1173 22.8222C43.9491 22.9366 43.6898 22.9261 43.4348 23.0158L43.8339 23.0533C43.7506 23.4068 43.1789 23.03 43.0538 23.1592C42.986 22.8214 43.2347 22.8751 42.9415 22.5974C42.2652 22.461 42.6411 22.943 42.0941 23.2357L42.2249 23.3523C42.0384 23.3905 41.9585 23.7446 41.6256 23.4866C41.5819 23.2618 41.7988 23.2696 41.8843 23.1614C41.7945 23.025 41.6157 23.5545 41.3536 23.3205C41.4688 23.0116 41.9189 22.8963 42.246 22.907C42.1836 22.8065 42.1602 22.6865 42.1804 22.5698C41.272 22.9294 40.2923 23.072 39.3192 22.9861C39.7318 22.5733 39.1007 22.9784 39.1191 22.5331C39.1163 22.8454 38.7538 22.5437 38.5185 22.6702C38.3418 22.3294 38.9877 22.4171 38.7234 22.1824C38.2387 22.2559 37.6924 22.8645 37.0155 22.7359C37.0316 22.6023 37.1801 22.5839 37.1879 22.5182C36.7751 22.6171 36.3914 23.3898 35.9809 22.866C36.1406 22.6751 36.3363 22.4695 36.5194 22.2863C36.418 22.271 36.3234 22.2257 36.2479 22.1563L36.3498 21.9132C35.812 21.8304 36.0685 22.4419 35.8487 22.7479L35.4538 22.4023C35.2059 22.2898 34.9249 22.2745 34.6664 22.3593C34.4078 22.4441 34.1904 22.6229 34.0573 22.8603C33.9478 22.8567 33.5147 22.8476 33.6206 22.5366C33.8157 22.1153 33.8849 21.8268 34.4687 21.817C34.6192 22.1089 34.1039 22.1449 34.2828 22.1712C34.5061 22.1118 34.9908 22.3436 35.1287 22.0799L34.5075 22.1089C34.4135 21.6587 34.764 22.0927 34.8263 21.8707C34.5767 21.5067 34.3139 21.904 34.0115 21.6961L34.0495 21.6749C33.5663 21.7569 33.615 21.6643 33.1606 21.8573C33.2228 22.2616 33.3854 22.1089 33.6573 22.2721C32.8546 22.275 31.9332 23.0371 30.9629 22.3266L31.365 21.9753C31.0463 21.9026 30.606 22.275 30.5177 21.7569C30.9001 21.9216 30.6796 21.6035 30.8343 21.5166L30.8654 21.5618C30.9035 21.5406 31.0195 21.4756 30.9212 21.4056C30.6746 21.6384 30.3849 21.8206 30.0683 21.9421C30.17 21.8291 29.8626 21.6657 29.811 21.5872C29.546 21.6713 29.8591 21.8121 29.9121 21.971C29.7637 21.9908 29.5856 22.2792 29.3977 22.0064C29.1334 21.7774 29.6054 21.7647 29.6288 21.5632L28.8641 21.9294L28.8719 21.8622C28.8615 21.8863 28.846 21.9079 28.8265 21.9256C28.8071 21.9432 28.7841 21.9566 28.7592 21.9647C28.7342 21.9729 28.7078 21.9757 28.6816 21.9729C28.6555 21.97 28.6303 21.9617 28.6076 21.9485C28.4826 21.7668 28.6677 21.7258 28.8083 21.7717C28.3002 21.4982 28.1638 22.3725 27.6579 21.8142L27.4472 21.9767C27.4148 21.9315 27.3519 21.8403 27.3901 21.8191L27.1908 21.9958C26.7731 22.169 26.9794 21.612 26.805 21.5194L26.8282 21.5229C26.6735 21.46 26.5314 21.2968 26.6177 21.2487L26.1929 21.4897L26.1936 21.4805C26.0834 21.8127 25.3987 21.8954 25.5457 22.4935C25.4078 22.4475 25.2785 22.3365 25.3174 22.251C24.9704 22.2898 25.2934 21.7859 24.7415 21.8799C24.7147 21.7654 24.786 21.7915 24.8644 21.7469C24.7118 21.7357 24.6595 21.7767 24.6496 21.8403C24.629 21.7586 24.5959 21.6807 24.5514 21.6092C24.6002 21.8333 24.3515 21.7866 24.2122 21.7406L24.3259 21.3597C24.2355 21.5392 24.1578 21.583 23.9091 21.5364L24.0065 21.2904C23.637 21.3773 24.0992 21.8071 23.5783 21.6L24.0589 21.8262C23.579 21.9117 23.8553 22.386 23.6871 22.6094C23.2533 22.9883 22.4533 22.3111 22.2336 23.0738C22.1141 22.8257 22.1586 22.7359 21.9622 22.5324C22.0981 22.5078 22.2225 22.4404 22.3171 22.3398C22.4117 22.2393 22.4716 22.1111 22.4879 21.9739C23.0343 21.5944 22.8647 22.8978 23.4293 22.316C23.319 22.0021 23.1006 22.0001 22.9402 22.1563C22.8583 21.8863 23.0582 21.7088 23.1798 21.5731C22.8123 21.7244 22.1572 21.3886 21.9163 21.4303C21.8279 21.5753 21.5573 21.7781 21.3997 21.6982C21.4655 21.9054 20.8768 22.0616 21.1764 22.4871C20.7687 22.598 20.7644 21.8997 20.4634 22.3945C20.5383 22.0368 20.1277 22.1464 20.2309 21.8311C20.4514 22.145 20.7927 21.6297 20.9595 21.4048L20.2909 21.2253C20.4655 21.3151 20.2966 21.5406 20.2203 21.5788L20.069 21.2862C20.144 22.0057 18.8522 20.7899 18.7399 21.6261C18.925 21.5823 19.1539 21.8283 19.1568 21.4466C19.5688 21.6481 19.2112 21.9859 19.4394 22.2341C18.942 22.5267 17.9746 22.0736 17.4912 22.6164C17.5484 22.391 17.8354 22.4135 17.7908 22.1202C17.3004 21.9647 16.9131 22.6419 16.4552 22.9133L16.4573 22.531C16.0998 22.8702 16.2517 22.396 15.808 22.533C15.8383 22.5789 15.9359 22.7133 15.8256 22.7133C15.4327 22.6935 15.7139 22.4009 15.432 22.3096C15.0878 22.8971 15.1076 21.9273 14.5727 22.2475L14.5819 22.1153C14.1635 22.3669 13.4167 21.8544 12.8845 21.7915C12.9467 21.882 13.3134 21.7865 13.3552 22.1478L12.7311 22.2658C12.6682 22.1761 12.3827 22.1563 12.5078 21.952C12.5848 21.906 12.688 21.9725 12.7559 21.9951L12.6195 21.8092C12.0626 22.017 12.7877 22.3478 12.8696 22.6899C12.5198 22.5804 12.4895 22.919 12.2732 22.9204C12.0873 22.5832 12.5955 22.5359 12.2343 22.1747C11.9977 21.9957 11.4308 22.2715 11.2987 22.6143C10.7913 21.8311 10.0147 22.4949 9.85224 21.8884C9.88402 21.933 9.82895 22.1605 9.65646 22.0715L9.70523 21.9139C9.18866 21.6502 9.40422 22.4807 9.09262 22.3514C9.06564 22.2369 9.14279 22.1924 9.15408 22.0566C8.51809 21.9323 8.40566 22.8378 7.7188 22.4885C7.72449 22.4207 7.72659 22.3549 7.79795 22.374C7.80504 22.3061 7.69761 22.309 7.54011 22.4695L7.80994 22.69C7.67712 23.4153 6.89842 22.4129 6.4525 22.6242C6.461 22.4913 6.82486 22.4596 6.58602 22.2828C6.26382 22.2884 6.48998 23.0533 6.01508 22.7013C6.16628 22.6079 6.02287 22.2538 6.16838 22.1747C5.90905 22.1344 5.68149 21.9323 5.66031 22.2122C5.6209 22.1904 5.58667 22.1604 5.55997 22.1241C5.53326 22.0879 5.51472 22.0463 5.5056 22.0022C5.39887 22.2206 5.10636 22.0806 4.92048 22.022L4.92747 21.8877C4.79755 22.6144 4.42079 21.9464 4.02305 21.9979L4.03854 21.7944C3.88873 21.8877 3.69016 22.1429 3.3185 21.8573L3.40894 21.6057C3.21456 21.7916 2.67041 21.4225 2.56797 21.8092C2.46484 21.7442 2.6761 21.3519 2.28115 21.3414C2.23239 21.5017 1.97015 21.6664 1.80766 21.4444C1.77867 21.3321 1.79067 21.1956 1.92428 21.3067C1.99494 21.3265 1.95886 21.3497 1.95326 21.419L2.03941 21.2367C1.69383 21.0635 1.84443 21.4218 1.49675 21.3173C1.39782 21.1843 1.54902 21.0868 1.55821 20.9546L0.483398 21.4331C0.506684 21.6134 0.678374 21.7003 0.628306 21.9273L1.05084 21.9838C1.31797 22.2722 0.918622 22.3267 0.768817 22.4214L1.05503 22.4376C1.07622 22.4673 1.07982 22.5062 1.05863 22.5232L1.2649 22.4992C0.805593 22.919 1.97865 23.0236 1.45358 23.3552C1.53292 23.3187 1.60261 23.2641 1.6571 23.1959C1.71159 23.1276 1.74936 23.0476 1.76738 22.9621C2.02462 22.8645 2.01253 23.0661 2.14544 23.179L1.80126 23.4611C2.41887 23.3312 1.81615 23.7771 2.33552 23.9673C2.81961 23.7276 3.35947 24.6197 3.64569 24.636C4.18554 24.5541 3.34678 24.3045 3.64709 24.1142C3.9389 24.0612 3.84706 24.3143 4.05763 24.3751L4.0894 23.9673C4.4173 23.8923 4.20253 24.3504 4.35793 24.1878C4.69712 24.4296 4.31066 24.3468 4.32266 24.6628C4.36503 24.5709 4.63006 24.4049 4.79536 24.5618C4.82224 24.6762 4.46117 24.7052 4.70701 24.7448C5.5141 24.5031 5.83769 24.9455 6.59241 24.8622L6.57612 25.0651C6.65247 25.0184 6.69555 24.9271 6.79308 24.9894L6.78459 25.1224C7.2166 24.9684 7.67028 24.8839 8.12874 24.8721L7.92946 25.1237L8.31242 24.824L8.35269 25.1853C8.41625 24.8247 9.01057 25.0375 9.41272 24.918L9.46778 25.1457L9.69394 25.0057L9.64597 25.1655C9.89961 25.1365 10.1095 24.7512 10.4501 24.9265C10.2388 24.8622 10.2826 25.2226 10.3405 25.3796ZM20.8577 24.5208L20.9687 24.5059C20.9545 24.5213 20.9354 24.5313 20.9147 24.5343C20.8939 24.5373 20.8728 24.533 20.8548 24.5222L20.6761 24.5498C20.6486 24.3369 20.7524 24.4776 20.8577 24.5208ZM37.7291 23.7835L37.4352 23.8202C37.5031 23.8442 37.6973 23.7375 37.6437 23.8945C37.6811 23.8711 37.7914 23.874 37.7291 23.7835ZM19.9234 22.321L20.0154 22.1386L20.1723 22.3634L19.9234 22.321ZM17.506 22.3429L17.7336 22.2072L17.7661 22.2524L17.5358 22.3881L17.506 22.3429ZM14.649 24.4331C14.7169 24.0358 14.8963 24.4388 15.056 24.2748C15.0667 24.2571 15.0815 24.2423 15.0992 24.2317C15.0869 24.248 15.0724 24.2625 15.056 24.2748C14.9798 24.4105 14.9352 24.7618 14.6519 24.4303L14.649 24.4331ZM20.1482 24.0994C20.1977 24.3242 19.9073 24.3687 19.855 24.5271C19.7144 24.4811 19.8437 24.2798 19.8571 24.1447C19.7878 24.1221 19.7489 24.144 19.6712 24.1892C19.6104 23.7129 19.944 24.3447 20.1482 24.0994ZM25.9535 23.775L25.7527 23.9532L25.8241 23.9765L25.9535 23.775ZM27.1978 23.944C27.2599 23.9491 27.3223 23.9375 27.3785 23.9104C27.4346 23.8833 27.4825 23.8417 27.5172 23.7899C27.5519 23.738 27.572 23.6779 27.5757 23.6156C27.5793 23.5533 27.5662 23.4913 27.5378 23.4357C27.3165 23.4972 26.9583 23.4498 26.8912 23.7403C26.9851 23.5601 26.9208 24.1645 27.1943 23.9475L27.1978 23.944ZM17.0482 23.7637C17.2008 23.6733 17.3202 23.1536 17.7279 23.423L17.5004 23.5587L17.5696 23.5813L17.5512 23.7835C17.4933 23.2434 17.1945 23.7403 17.0482 23.7637ZM29.4464 23.5495C29.5062 23.5386 29.5628 23.5146 29.6124 23.4794C29.6619 23.4441 29.7032 23.3985 29.7332 23.3456C29.7631 23.2927 29.7812 23.2338 29.786 23.1732C29.7907 23.1126 29.7822 23.0517 29.7609 22.9947C29.8471 23.1982 29.462 23.4138 29.2627 23.5919C29.3383 23.5474 29.3786 23.5269 29.4464 23.5495ZM29.2351 23.1656C29.0959 23.1197 29.0839 22.873 28.886 23.0484C28.973 23.2513 28.9914 23.7446 28.6097 23.582C28.7935 23.2243 28.7786 23.0442 29.0854 22.8702L29.2351 23.1656ZM28.8161 23.8944L28.3426 23.7361C28.4762 23.3043 28.6126 23.736 28.8161 23.8944L28.9702 23.9468C28.9422 23.9496 28.914 23.9464 28.8873 23.9375C28.8606 23.9286 28.8361 23.9142 28.8154 23.8952L28.8161 23.8944ZM31.9911 23.8188L31.8971 23.9298C31.9254 23.9906 31.9211 24.0471 31.7841 24.0613L31.8971 23.9298C31.8358 23.8146 31.6462 23.6817 31.9876 23.8209L31.9911 23.8188ZM29.2308 23.8641L29.6337 23.8245C29.4937 23.775 29.2159 23.681 29.2308 23.8641ZM31.1481 23.5396C31.3409 23.5432 31.5332 23.5616 31.7232 23.5948C31.6399 23.7022 31.2363 23.7397 31.1502 23.5375L31.1481 23.5396ZM40.6427 23.4533L40.4583 23.1798L40.7148 23.1649L40.6427 23.4533ZM37.8599 23.0236L37.7129 23.042L37.619 22.9055L37.8599 23.0236ZM34.6869 22.7621C34.7118 22.7673 34.735 22.7788 34.7542 22.7955C34.7734 22.8122 34.788 22.8336 34.7966 22.8575C35.142 23.0404 35.5329 23.1197 35.9223 23.0858C36.0848 23.2484 35.7668 23.4845 35.682 23.5934C35.6438 22.6758 35.2771 23.6266 34.9499 23.3064C34.9993 23.2144 35.1731 23.247 35.1915 23.1113C35.1417 23.0684 35.0808 23.0404 35.0159 23.0304C34.9509 23.0204 34.8845 23.0288 34.8241 23.0547C34.8156 23.1197 34.7901 23.1706 34.7513 23.1685C34.7531 23.145 34.7607 23.1223 34.7734 23.1025C34.7861 23.0826 34.8035 23.0662 34.8241 23.0547C34.8336 22.9883 34.8246 22.9205 34.798 22.8589C34.7549 22.8344 34.717 22.8015 34.6869 22.7621ZM30.806 22.7168C30.77 22.7982 30.936 22.9034 30.7397 23.0137C30.7153 22.964 30.7085 22.9076 30.7206 22.8536C30.7327 22.7996 30.7628 22.7513 30.806 22.7168C30.8202 22.6858 30.8619 22.661 30.9615 22.6362C30.903 22.6476 30.849 22.6755 30.806 22.7168ZM30.8965 22.232L30.4569 22.6051L30.587 22.4058L30.2754 22.5761C30.2756 22.5038 30.2952 22.4328 30.3321 22.3705C30.3689 22.3082 30.4217 22.2569 30.485 22.2218C30.5483 22.1868 30.6198 22.1692 30.6921 22.171C30.7644 22.1728 30.835 22.1938 30.8965 22.232ZM29.5644 22.4759L30.122 22.3521L30.1164 22.4016L30.1531 22.3973L30.0945 22.6214L30.1164 22.4016L29.5644 22.4759ZM24.8814 22.9317L24.5966 22.9055C24.7427 22.7831 24.9299 22.7207 25.1202 22.731C24.6786 22.0983 25.0362 22.8433 24.4836 22.5903C25.0553 22.5966 24.7437 22.203 24.6595 21.9492C24.6305 22.316 23.8433 22.0997 24.2384 22.8568C24.3973 22.7049 24.8319 23.4025 24.8814 22.9317ZM21.1827 22.7282L20.8513 22.7939L21.2131 22.7727L21.1827 22.7282ZM11.5454 22.5882C11.5743 22.2482 12.1234 22.5584 12.1418 22.7381C12.0478 22.6044 11.7941 22.6307 11.5454 22.5882ZM8.08916 22.7062C8.29683 22.7727 8.47991 22.3379 8.6601 22.7416L8.28913 22.9062C8.1902 22.772 8.07007 22.9132 8.08916 22.7062ZM5.54938 22.6652L5.5148 23.0731L5.62783 23.0024L5.54938 22.6652ZM5.87017 22.203C5.79822 22.1818 5.54018 22.2785 5.6688 22.4567L5.87017 22.203ZM3.29581 22.5782L3.35667 22.215L3.17928 22.1973L3.29581 22.5782ZM3.52766 22.8215C3.56934 22.7798 3.56934 22.6963 3.55944 22.6045C3.6259 22.5056 3.76721 22.4673 3.941 22.562C3.96299 22.7423 3.83007 22.632 3.75312 22.6794C3.82307 22.6999 3.95869 22.8102 4.07102 22.7402C3.84416 22.4284 3.95159 22.427 3.86615 22.1563C3.42733 22 3.53536 22.3457 3.56084 22.603C3.54069 22.6356 3.52763 22.6721 3.52251 22.7101C3.5174 22.7481 3.52034 22.7868 3.53116 22.8236L3.52766 22.8215ZM4.95435 22.907C4.90437 22.864 4.86498 22.8101 4.83923 22.7494C4.5622 22.6546 4.28158 22.5662 4.46966 22.2383L4.71411 22.2764C4.60668 22.2778 4.63995 22.3224 4.63426 22.3903C4.83853 22.5211 4.89289 22.2941 5.00382 22.2242C4.96565 22.3541 4.73529 22.5211 4.83713 22.7458C4.91065 22.7709 4.9826 22.8004 5.05259 22.8342C5.08227 22.789 5.12325 22.7635 5.2045 22.8744L5.1982 22.943C5.15867 22.896 5.10884 22.8588 5.05259 22.8342C5.02791 22.8787 5.00462 22.9359 4.95435 22.907ZM3.39974 23.1007C3.39405 23.1685 3.45911 23.2576 3.41673 23.3495L3.3058 23.4209C3.10083 23.2879 3.25703 23.1247 3.40184 23.0986L3.39974 23.1007ZM10.6953 22.8504C10.7327 22.8271 11.1249 22.8447 11.0705 22.6165L11.2563 22.9522C11.0486 22.8857 10.9158 23.16 11.0189 23.2265C10.8246 23.0265 10.7073 23.1635 10.6981 22.8476L10.6953 22.8504ZM20.6005 22.7508C20.5186 22.8638 19.9652 22.6158 19.997 23.0434C19.7186 22.5683 20.3242 22.6581 20.6019 22.748L20.6005 22.7508ZM20.7701 23.2229C20.8094 23.2113 20.85 23.2045 20.8909 23.2024C21.0209 23.1106 20.9241 22.7692 21.2301 22.955C21.1856 23.0448 21.0513 22.9317 21.011 23.0187C21.0775 23.2349 21.028 23.1926 20.8937 23.1996C20.8764 23.2122 20.8565 23.2207 20.8354 23.2243C20.8144 23.228 20.7927 23.2268 20.7722 23.2208L20.7701 23.2229ZM15.2631 23.6138L15.5486 23.6351L15.6538 23.3162L15.2631 23.6138ZM12.6795 24.0196L12.9 23.9503L12.7976 23.8832C12.7771 23.8004 12.7022 23.6803 12.7531 23.6238C12.7903 23.6187 12.8262 23.6067 12.859 23.5884C12.8399 23.5866 12.8206 23.5888 12.8023 23.5949C12.7841 23.601 12.7673 23.6108 12.7531 23.6238C12.5856 23.6499 12.3665 23.6288 12.404 23.8655C12.4513 23.7715 12.7693 23.7715 12.7912 23.9518L12.6795 24.0196ZM7.2425 24.3263C7.35493 24.2564 7.36052 24.1885 7.59727 24.3659C7.54206 24.4 7.47703 24.4145 7.41258 24.4072C7.34813 24.3999 7.2887 24.3719 7.2425 24.3263ZM14.0971 24.2557C14.0774 24.0747 14.3946 24.1405 14.2364 23.9157L14.0964 23.8719C14.3084 23.9426 14.1014 23.4216 14.4362 23.6662L14.2617 23.6457C14.5013 23.7566 14.0836 24.0076 14.4342 24.1178C14.572 24.1638 14.2653 24.3433 14.0914 24.2543L14.0971 24.2557ZM6.95138 24.8283C7.13297 24.7795 6.95708 24.308 7.33374 24.5278C7.11188 24.5986 7.25669 25.0262 6.95138 24.8283ZM12.3447 24.9922L12.3764 25.0368L12.6018 24.8976L12.5708 24.8537L12.3447 24.9922Z" fill="white"/>
<path d="M8.39313 22.391C8.35659 22.3751 8.31726 22.3667 8.27742 22.3662C8.23759 22.3657 8.19806 22.3731 8.16113 22.3881C8.23757 22.4038 8.31632 22.4048 8.39313 22.391Z" fill="white"/>
<path d="M21.5059 21.5415C21.5167 21.5742 21.5341 21.6044 21.5569 21.6302C21.5798 21.656 21.6077 21.6768 21.6389 21.6915C21.6115 21.6287 21.5649 21.5762 21.5059 21.5415Z" fill="white"/>
<path d="M22.1133 21.4041L22.1444 21.4027L22.1635 21.3752L22.1133 21.4041Z" fill="white"/>
<path d="M43.6695 22.0941C43.7628 21.7165 43.4828 22.0248 43.3379 22.017C43.4829 22.0248 43.5995 22.2971 43.6695 22.0941Z" fill="white"/>
<path d="M42.6816 22.6898C42.7128 22.6336 42.7566 22.5853 42.8094 22.5486C42.8622 22.5119 42.9228 22.4879 42.9863 22.4783C42.8902 22.4628 42.7975 22.4988 42.6816 22.6898Z" fill="white"/>
<path d="M43.569 22.5606C43.3859 22.4806 43.1844 22.4522 42.9863 22.4786C43.1355 22.5005 43.2918 22.6539 43.569 22.5606Z" fill="white"/>
<path d="M39.6085 22.4705C39.7322 22.2406 40.1035 22.3785 40.1035 22.3785C39.3065 22.1289 40.1515 21.9373 40.172 21.7612C39.7272 21.827 39.7924 22.1254 39.6085 22.4705Z" fill="white"/>
<path d="M38.6494 22.5569C38.7248 22.5579 38.799 22.5761 38.8664 22.6099C38.837 22.5845 38.802 22.5665 38.7643 22.5573C38.7266 22.5481 38.6872 22.548 38.6494 22.5569Z" fill="white"/>
<path d="M38.321 22.3179C38.0756 22.3653 38.0466 22.6305 37.9766 22.8334C38.333 23.0356 38.4334 22.6156 38.6512 22.5576C38.4674 22.5463 38.2948 22.569 38.321 22.3179Z" fill="white"/>
<path d="M34.0782 21.5275C34.1312 21.4999 34.2741 21.5055 34.2422 21.3564L33.8095 21.3394C33.6568 21.4228 33.9842 21.4943 34.0782 21.5275Z" fill="white"/>
<path d="M33.0432 22.046C32.7052 22.063 32.7922 21.6804 32.6387 21.7646L32.7795 22.273L33.0432 22.046Z" fill="white"/>
<path d="M33.5674 24.0047L33.6586 23.9545L33.5469 23.97L33.5674 24.0047Z" fill="white"/>
<path d="M31.6189 21.7189L31.7214 21.1582C31.4669 21.2968 31.5708 21.7472 31.6189 21.7189Z" fill="white"/>
<path d="M30.5942 21.3866L30.754 21.2154L30.1621 21.3731L30.5942 21.3866Z" fill="white"/>
<path d="M29.4631 21.5673L29.3776 21.4463L28.9795 21.5828L29.4631 21.5673Z" fill="white"/>
<path d="M16.3311 22.02C16.3891 22.498 17.0241 22.2972 17.2553 22.4195C16.9647 21.8192 16.7589 22.6218 16.3311 22.02Z" fill="white"/>
<path d="M9.04688 22.5979L9.67128 22.477C9.11478 22.2981 9.52977 22.4769 9.04688 22.5979Z" fill="white"/>
</mask>
<g mask="url(#mask0_5_586)">
<path d="M0.907227 21.0928C1.70672 22.8922 5.5043 23.7919 7.00335 23.8919C7.7029 23.9919 8.60233 23.492 9.30189 23.592C9.70163 23.692 9.9015 24.3917 10.4012 24.2917C10.8009 24.2917 11.1007 24.1918 11.5005 24.0918C13.0995 23.692 14.8983 23.492 16.5972 23.692C17.4967 23.7919 18.2962 23.2921 19.0957 23.0922C19.6953 22.9922 20.4948 23.2921 21.1943 23.1921C22.2936 22.9922 23.3929 23.2921 24.3923 23.1921C26.0912 23.0922 27.6902 23.0922 29.3891 22.9922C30.6883 22.8922 31.9875 23.1921 33.1867 23.2921C34.3859 23.3921 35.5852 23.3921 36.7844 23.3921C39.1829 23.3921 41.5814 23.2921 43.9798 23.2921" stroke="#202020" stroke-width="3.99865" stroke-miterlimit="10" stroke-linejoin="round" stroke-dasharray="41.99 41.99"/>
</g>
<mask id="mask1_5_586" style="mask-type:luminance" maskUnits="userSpaceOnUse" x="21" y="12" width="30" height="18">
<path d="M23.7025 28.9297C23.6774 28.9567 23.6495 28.9808 23.6191 29.0018C23.7223 28.999 23.7682 28.9841 23.7025 28.9297Z" fill="white"/>
<path d="M22.4391 29.4626C22.8656 29.4135 23.2722 29.2549 23.6193 29.0022C23.2856 29.0107 22.3238 28.8764 22.4391 29.4626Z" fill="white"/>
<path d="M23.4033 28.0044L23.0342 28.266C23.3495 28.3636 23.1948 28.1055 23.4033 28.0044Z" fill="white"/>
<path d="M23.4521 28.5654L23.5567 28.7677L23.7095 28.5159L23.4521 28.5654Z" fill="white"/>
<path d="M46.3256 25.1182C46.3172 25.2325 46.347 25.3465 46.4105 25.442L46.3256 25.1182Z" fill="white"/>
<path d="M46.9023 23.9079C46.9578 23.8638 47.0177 23.8256 47.0812 23.7941C47.014 23.7961 46.978 23.8323 46.9023 23.9079Z" fill="white"/>
<path d="M45.3936 25.2861L45.5817 25.2663C45.5186 25.2501 45.4518 25.2572 45.3936 25.2861Z" fill="white"/>
<path d="M34.035 27.4104C33.9318 27.5999 33.832 27.7732 33.75 27.8962C34.1375 27.9754 34.0251 27.6296 34.035 27.4104Z" fill="white"/>
<path d="M48.9673 24.2911L48.8993 24.1171C48.8555 24.1821 48.8386 24.2501 48.9673 24.2911Z" fill="white"/>
<path d="M45.9316 21.1044C45.9589 21.1805 45.9991 21.2513 46.0504 21.3137C46.0604 21.2953 46.0738 21.2805 46.0851 21.2579L45.9316 21.1044Z" fill="white"/>
<path d="M44.5515 25.1471L44.5352 25.1308L44.4355 25.2744C44.5245 25.2828 44.5642 25.2432 44.5515 25.1471Z" fill="white"/>
<path d="M47.4258 24.2345C47.3559 24.3337 47.3045 24.4449 47.2744 24.5625C47.306 24.5511 47.335 24.5335 47.3598 24.5107C47.3845 24.488 47.4045 24.4606 47.4186 24.4301C47.4327 24.3996 47.4406 24.3666 47.4418 24.333C47.443 24.2994 47.4376 24.266 47.4258 24.2345Z" fill="white"/>
<path d="M47.1094 23.7851L47.1051 23.7808L47.0811 23.795C47.0924 23.795 47.0959 23.7887 47.1094 23.7851Z" fill="white"/>
<path d="M44.5957 21.6886C44.6579 21.6391 44.7187 21.5995 44.7831 21.5394C44.7609 21.5361 44.7382 21.5374 44.7165 21.5432C44.6949 21.5491 44.6746 21.5593 44.657 21.5733C44.6395 21.5873 44.625 21.6047 44.6144 21.6246C44.6039 21.6444 44.5975 21.6662 44.5957 21.6886Z" fill="white"/>
<path d="M34.0361 27.4105C34.0645 27.3566 34.0935 27.3031 34.1231 27.25C34.0587 27.2705 34.0389 27.3313 34.0361 27.4105Z" fill="white"/>
<path d="M25.0205 29.0491C25.1613 29.0201 25.1465 28.8935 25.128 28.7705C25.066 28.851 25.0286 28.9478 25.0205 29.0491Z" fill="white"/>
<path d="M21.792 14.4584L21.7305 14.4351C21.7386 14.4429 21.7482 14.4491 21.7588 14.4531C21.7694 14.4571 21.7807 14.4589 21.792 14.4584Z" fill="white"/>
<path d="M27.6632 16.2469C27.6946 16.217 27.7198 16.1812 27.7374 16.1415C27.6829 16.0871 27.6618 16.1521 27.6632 16.2469Z" fill="white"/>
<path d="M33.2527 22.1379L34.2541 21.8432C34.3 22.0545 34.7685 22.2164 34.4709 22.3796L34.8448 22.1146L34.8385 22.3443C36.5302 23.1078 37.7188 21.6403 39.441 22.96L39.4233 23.0427L40.2974 22.6673C40.4755 22.7593 40.5751 23.1841 40.874 23.3856C40.6868 22.9154 41.4082 23.4336 41.5383 23.0844C41.7807 23.3057 41.568 23.3785 41.5291 23.5432C42.4831 24.1355 43.112 23.5389 44.1345 24.0288C43.6033 23.6127 43.0159 23.2741 42.3898 23.0229C43.1537 22.9133 43.3432 23.3841 44.1818 23.4018L43.8067 23.5297C44.3281 24.2663 45.0666 23.4004 45.2906 24.1659C45.7873 24.1496 46.1358 23.4971 46.7725 23.7383L46.5852 24.3342L47.1527 24.4465L47.1067 24.0047C47.177 24.0031 47.2459 24.024 47.3034 24.0645C47.361 24.105 47.404 24.1629 47.4262 24.2296C47.7527 23.7955 48.3278 24.1758 48.8126 23.8817L48.9009 24.1115C48.9351 24.0708 48.9647 24.0264 48.9893 23.9793C49.1419 24.3836 49.5503 24.3215 49.6161 24.6798C49.455 24.7349 49.0832 24.8636 49.0861 24.6332C48.7066 24.99 49.6479 24.9745 49.9313 25.0304C49.5985 24.7625 49.9884 24.7823 50.1496 24.7272C50.1842 24.7915 50.1306 24.8099 50.1136 24.8933C50.1708 24.9309 50.2363 24.9541 50.3044 24.9611L48.7617 19.5105C48.4373 19.6554 48.6154 20.4584 48.0473 19.8731L48.1448 20.3071L47.6459 20.1177C47.9759 20.9426 47.1625 20.3496 47.4389 21.1235C47.0276 21.2664 47.289 20.6415 47.176 20.7702C46.7123 20.7221 46.3499 21.6629 46.0475 21.3166C45.8319 21.6947 45.3819 21.6191 45.1662 21.863L44.9917 21.5187C44.8787 21.646 44.7798 21.8721 44.6052 21.8488C44.5842 21.7995 44.579 21.7449 44.5904 21.6925C44.1741 22 43.7016 22.2228 43.1997 22.3485C43.1254 22.1076 43.0633 21.9605 43.3006 21.8021C42.7156 21.5958 42.3234 22.5761 41.5948 22.6292L41.5687 22.4405L41.3193 22.8314C41.3453 22.6949 41.2443 22.591 41.1842 22.4447C40.5094 22.5543 39.7165 22.7819 39.6798 23.5665C39.7843 23.346 39.2049 23.2328 39.4621 22.8427C39.0084 23.4901 38.1244 23.6025 37.4531 23.9178L37.4771 23.9418L37.2468 24.1921L37.1958 24.1411L37.3584 23.9645C37.0896 24.0847 36.8661 24.2875 36.7203 24.5434C36.5825 24.3434 36.4014 24.1771 36.1903 24.057C36.3698 24.4981 35.1756 23.8803 35.0236 24.4607C34.9268 24.3539 35.1409 24.3363 34.9551 24.2182C34.0837 24.5243 32.9624 25.386 31.7377 25.3061C32.0005 26.1741 31.0069 26.1783 30.583 26.7156C30.2296 26.2476 30.8098 26.377 30.8091 25.9621C30.5257 26.1522 30.489 25.3591 30.065 25.9005C30.0537 25.8059 30.0071 25.7522 30.1321 25.7246C29.7923 25.7663 30.4537 26.329 29.8862 26.2901L29.7223 25.9409L29.6049 26.4823C28.4806 26.5028 27.7019 26.9822 26.6419 26.8223C26.6425 26.8933 26.6642 26.9626 26.7042 27.0212C26.7442 27.0799 26.8008 27.1253 26.8668 27.1517C26.4497 27.2295 26.2024 27.9278 25.5898 27.6769L25.659 27.503C24.7799 27.363 25.0626 28.0997 24.2209 28.4284C24.4365 28.4164 24.7976 28.0579 25.006 28.4616C25.0336 28.7422 24.5601 28.8044 24.3248 28.6284L24.5856 29.0871C24.6004 28.7641 24.9446 28.7281 25.1439 28.5287C25.0909 28.5817 25.1106 28.6835 25.1255 28.7831C25.3557 28.6023 25.6053 28.4475 25.8696 28.3216L25.3961 28.3711C25.3961 27.8622 26.1664 28.2141 26.2765 28.0007C26.4497 28.4439 26.1451 28.4418 26.5649 28.7373C27.3917 28.7273 26.82 28.1753 27.3747 27.6161L27.1904 27.4952C27.3981 27.3878 27.391 26.8774 27.8503 27.1333C27.9641 27.4282 27.709 27.4826 27.6405 27.6557C27.7839 27.8162 27.8425 27.0379 28.2143 27.2797C28.161 27.4946 28.0447 27.6886 27.8802 27.8368C27.7157 27.9849 27.5106 28.0804 27.2914 28.111C27.395 28.2362 27.4548 28.3918 27.4617 28.5541C28.4559 27.9653 29.4615 27.1446 30.6762 27.1355C30.3109 27.8219 30.9328 27.081 31.0366 27.6967C30.9512 27.2691 31.4585 27.5731 31.6967 27.3277C31.9991 27.7406 31.2232 27.8169 31.5927 28.0551C32.1348 27.8056 32.5976 26.8095 33.4202 26.7827C33.44 26.9708 33.2733 27.04 33.2824 27.134C33.7311 26.8761 33.9572 25.6985 34.5847 26.2922C34.454 26.6025 34.2865 26.944 34.1275 27.2486C34.1905 27.2296 34.295 27.2507 34.4809 27.3433L34.4328 27.708C35.0815 27.6585 34.6109 26.8966 34.7741 26.411L35.3324 26.7629C35.4997 26.7935 35.6714 26.7901 35.8374 26.753C36.0034 26.7159 36.1603 26.6458 36.2987 26.547C36.4371 26.4481 36.5543 26.3224 36.6432 26.1774C36.7321 26.0323 36.791 25.8709 36.8164 25.7027C36.9443 25.6737 37.4495 25.5527 37.417 26.0123C37.3146 26.6491 37.3181 27.0683 36.6432 27.2599C36.3867 26.9001 36.9718 26.698 36.7599 26.719C36.516 26.874 35.8885 26.6958 35.8038 27.1029L36.5168 26.8732C36.7557 27.4628 36.2228 26.9736 36.215 27.2966C36.6108 27.7193 36.8022 27.0966 37.2136 27.2875L37.174 27.327C37.7104 27.0732 37.6814 27.2069 38.1548 26.8039C37.9647 26.2689 37.8199 26.5283 37.4566 26.3884C38.3873 26.1359 39.2289 24.8021 40.5623 25.4744L40.2006 26.0809C40.5913 26.0816 40.9906 25.4319 41.2464 26.1134C40.756 26.0074 41.1044 26.3743 40.9503 26.5424L40.8994 26.4914C40.8592 26.5318 40.7468 26.6584 40.8804 26.7226C41.0893 26.3362 41.3722 25.9947 41.7129 25.7175C41.628 25.9041 42.0301 26.0349 42.1171 26.1218C42.3976 25.9218 41.9947 25.8284 41.8838 25.6298C42.0492 25.5548 42.1686 25.1032 42.4668 25.4171C42.8386 25.6475 42.3 25.8158 42.3319 26.0992L43.1049 25.3598L43.1155 25.4538C43.1431 25.3174 43.2575 25.1916 43.3953 25.253C43.5946 25.4623 43.3925 25.5796 43.2166 25.5577C43.8879 25.7741 43.7819 24.53 44.5352 25.1336L44.7288 24.8438C44.7805 24.8954 44.8829 24.9979 44.8426 25.0424L45.02 24.7363C45.4503 24.3652 45.3804 25.1944 45.6093 25.2651L45.5811 25.2693C45.7782 25.3053 45.9916 25.4821 45.9075 25.5775L46.3252 25.1075L46.328 25.1188C46.3549 24.6283 47.1216 24.2953 46.769 23.5226C46.9421 23.5403 47.1202 23.6492 47.1068 23.7813C47.494 23.616 47.2757 24.4111 47.8833 24.103C47.9462 24.2493 47.8586 24.2394 47.7824 24.3257C47.9596 24.2897 48.0092 24.2189 48.0021 24.1284C48.0496 24.2314 48.1115 24.3271 48.1858 24.4126C48.0608 24.1207 48.3625 24.1044 48.537 24.1221L48.5229 24.6819C48.5208 24.6274 48.5309 24.573 48.5523 24.5228C48.5738 24.4726 48.6062 24.4277 48.6471 24.3916C48.688 24.3554 48.7364 24.3287 48.7889 24.3135C48.8413 24.2984 48.8965 24.295 48.9504 24.3038L48.9129 24.6734C49.3137 24.4338 48.6494 23.9956 49.3115 24.1066L48.6861 23.9517C49.2118 23.6761 48.7476 23.1155 48.872 22.7551C49.1129 22.3386 49.6465 22.4482 50.016 22.3104L49.9603 22.1231C49.8284 22.0957 49.691 22.118 49.5745 22.1857C49.4581 22.2534 49.3707 22.3618 49.3292 22.49C49.2097 22.1499 49.2812 22.0488 49.0535 21.7435C49.228 21.7529 49.4003 21.7019 49.5415 21.599C49.6827 21.4961 49.7842 21.3477 49.8287 21.1787L49.8464 21.161L50.438 23.2555C49.9341 23.9008 49.7277 22.1026 49.2613 23.0752C49.4854 23.4703 49.737 23.4011 49.8739 23.1353C49.9292 23.2786 49.9493 23.433 49.9325 23.5857C49.9157 23.7384 49.8624 23.8848 49.7772 24.0126C50.0546 23.8492 50.3799 23.787 50.698 23.8365L49.7736 20.5778C49.5805 20.47 49.372 20.3925 49.1554 20.3481C49.0183 20.5079 48.6367 20.6917 48.4395 20.5538C48.4975 20.828 47.6996 20.8768 48.0247 21.4805C47.4742 21.5165 47.5746 20.6428 47.1046 21.1836C47.2537 20.7518 46.7053 20.7843 46.882 20.4167C47.1237 20.8676 47.648 20.3078 47.8996 20.0689L47.0509 19.6723C47.2651 19.83 47.0113 20.0682 46.9032 20.1029L46.7449 19.6957C46.7329 20.6139 45.2285 18.7612 44.9487 19.7734C45.1966 19.7643 45.4588 20.1326 45.521 19.6561C46.0298 20.0152 45.5055 20.3474 45.7704 20.7128C45.0737 20.9504 43.8773 20.1382 43.1587 20.6874C43.2689 20.4217 43.6399 20.5241 43.6286 20.1467C43.0103 19.8237 42.3969 20.5672 41.7531 20.7857L41.8258 20.3198C41.3052 20.6471 41.5771 20.0979 40.9744 20.1509C41.0069 20.2159 41.1129 20.4096 40.9694 20.3807C40.4571 20.2513 40.8685 19.9572 40.5186 19.7727C39.9737 20.4139 40.1532 19.2108 39.4021 19.4674L39.4395 19.3013C38.8501 19.502 37.9555 18.6651 37.2693 18.441C37.3365 18.5704 37.8326 18.5519 37.8276 19.0136L36.9931 18.9916C36.926 18.8623 36.5549 18.7598 36.7535 18.5399C36.8595 18.5046 36.9846 18.6142 37.0708 18.6609L36.9309 18.4022C36.1698 18.5088 37.0616 19.1196 37.1082 19.5608C36.668 19.3282 36.5719 19.7423 36.2871 19.6837C36.1012 19.215 36.7768 19.2929 36.3599 18.7484C36.0821 18.4607 35.2985 18.6481 35.0589 19.0264C34.536 17.9122 33.399 18.4968 33.3058 17.6967C33.3375 17.761 33.223 18.0254 33.0167 17.8613L33.1121 17.6839C32.4959 17.1962 32.6068 18.2841 32.2259 18.0232C32.2196 17.8755 32.3277 17.8423 32.368 17.6833C31.5709 17.3199 31.2225 18.3851 30.4035 17.7087C30.4275 17.6295 30.4487 17.549 30.5342 17.6005C30.5589 17.5207 30.419 17.4853 30.1745 17.621L30.4742 17.9858C30.1215 18.8135 29.3478 17.3086 28.7146 17.3821C28.7675 17.2302 29.2438 17.3333 28.981 17.0308C28.5627 16.9107 28.6446 17.903 28.1224 17.2874C28.3464 17.2415 28.2603 16.7622 28.4707 16.7311C28.1457 16.5742 27.9111 16.2419 27.803 16.5622C27.7595 16.5222 27.7248 16.4737 27.701 16.4197C27.6771 16.3657 27.6647 16.3073 27.6644 16.2483C27.4638 16.4561 27.1274 16.162 26.909 16.0144L26.9628 15.8602C26.5698 16.6505 26.2964 15.6871 25.7728 15.5633L25.8597 15.335C25.6961 15.412 25.5097 15.4249 25.337 15.3713C25.1644 15.3177 25.0181 15.2013 24.9269 15.0452L25.1312 14.807C24.8202 14.9201 24.2767 14.2182 24.0012 14.5886C23.8994 14.4613 24.3079 14.1404 23.8266 13.9149C23.781 13.9606 23.7243 13.9938 23.6621 14.0111C23.5998 14.0285 23.5342 14.0294 23.4715 14.0139C23.4088 13.9984 23.3512 13.967 23.3042 13.9226C23.2572 13.8783 23.2225 13.8226 23.2034 13.7608C23.2154 13.623 23.2839 13.4809 23.4033 13.6782C23.4825 13.7403 23.428 13.7452 23.3963 13.8124L23.575 13.6619C23.2225 13.2752 23.2621 13.7516 22.8797 13.4385C22.8182 13.2356 23.0359 13.2215 23.1058 13.0794C23.1058 13.0794 22.7292 13.066 22.3533 13.0236L21.5879 12.9536C21.5286 13.1543 21.7038 13.3523 21.5335 13.5622L22.0324 13.886C22.2345 14.3581 21.7101 14.1645 21.4756 14.1687L21.8289 14.3666C21.8417 14.4118 21.8282 14.455 21.7929 14.4578L22.0642 14.5638C21.2784 14.708 22.7433 15.581 21.9102 15.5859C22.0183 15.6048 22.1295 15.5951 22.2328 15.5578C22.336 15.5204 22.4277 15.4568 22.4988 15.3732C22.8733 15.4227 22.7624 15.6369 22.8946 15.8355L22.3172 15.9253C23.1913 16.1692 22.1913 16.2731 22.7984 16.7996C23.5461 16.8491 23.9015 18.1265 24.2916 18.3173C25.0611 18.5372 24.0175 17.7801 24.5008 17.7433C24.9149 17.8437 24.6944 18.0784 24.9566 18.2586L25.1537 17.8183C25.625 17.9122 25.165 18.3102 25.435 18.2112C25.8074 18.6672 25.3098 18.3689 25.2095 18.7266C25.3227 18.6698 25.4517 18.6524 25.5759 18.6773C25.7 18.7021 25.8124 18.7677 25.8951 18.8637C25.8951 19.0051 25.3848 18.8567 25.7078 19.027C26.897 19.1592 27.1945 19.8286 28.2609 20.0739L28.1739 20.3022C28.2934 20.2802 28.3803 20.1933 28.499 20.3149L28.4411 20.469C29.0872 20.4798 29.7297 20.5669 30.3554 20.7284L30.0156 20.9539L30.6155 20.7412L30.5787 21.1907C30.7632 20.7829 31.5136 21.2635 32.0874 21.2579L32.1094 21.5498L32.4457 21.4621L32.3426 21.6417C32.6923 21.6932 33.0598 21.2918 33.4838 21.6198C33.2259 21.4706 33.2089 21.9259 33.2527 22.1379ZM47.3082 23.9574L47.4587 23.9666C47.4099 24.0041 47.3576 23.9899 47.3082 23.9574L47.0686 23.9454C47.0615 23.6725 47.1752 23.8768 47.3082 23.9574ZM32.291 25.5613L32.6217 25.4214C32.5368 25.4101 32.3419 25.6151 32.3609 25.384C32.3221 25.427 32.1936 25.4554 32.291 25.5613ZM46.4177 20.9646L46.5661 20.7667L46.7378 21.0884L46.4177 20.9646ZM43.2469 20.3688L43.5635 20.2612L43.6003 20.3263L43.2766 20.4352L43.2469 20.3688ZM39.1702 22.2158C39.3236 21.74 39.4939 22.2907 39.7342 22.1253C39.7497 22.105 39.7701 22.0889 39.7935 22.0786C39.7762 22.097 39.7561 22.1128 39.7342 22.1253C39.6035 22.28 39.4883 22.7063 39.1702 22.2158ZM46.4404 23.2449C46.4708 23.5398 46.0828 23.5192 45.9895 23.7031C45.8128 23.6097 46.0157 23.3942 46.0503 23.2252C45.9619 23.1792 45.9089 23.1969 45.8008 23.2329C45.7909 22.6278 46.1351 23.5022 46.4396 23.2457L46.4404 23.2449ZM45.9054 21.8942L46.0821 21.586L45.9924 21.5768L45.9054 21.8942ZM44.4179 22.0602C44.3385 22.0853 44.2665 22.1294 44.208 22.1886C44.1496 22.2479 44.1065 22.3206 44.0826 22.4003C44.0586 22.48 44.0545 22.5644 44.0706 22.6461C44.0867 22.7278 44.1225 22.8043 44.1748 22.869C44.413 22.7099 44.8376 22.661 44.827 22.242C44.7791 22.5176 44.673 21.6709 44.4179 22.0602ZM42.4238 22.0221C42.6356 21.9514 42.8775 21.3322 43.3728 21.7796L43.0548 21.8856L43.141 21.9324L43.0851 22.1804C43.0886 21.4898 42.618 22.0298 42.4238 22.0221ZM41.9446 23.3157C41.8745 23.3588 41.8138 23.4155 41.7659 23.4824C41.7179 23.5493 41.6838 23.625 41.6655 23.7052C41.6471 23.7854 41.6449 23.8685 41.659 23.9496C41.6731 24.0306 41.7032 24.1081 41.7475 24.1774C41.5878 23.9257 41.9658 23.5065 42.1438 23.2011C42.0732 23.2817 42.0294 23.3256 41.9446 23.3157ZM42.3043 23.7758C42.4782 23.7956 42.5644 24.1321 42.7425 23.8267C42.5806 23.5758 42.4124 22.907 42.9008 23.0068C42.7954 23.556 42.8682 23.7955 42.5637 24.1328L42.3043 23.7758ZM42.5679 22.6455L43.1622 22.7113C43.1353 23.3503 42.8506 22.7983 42.5679 22.6455L42.3743 22.6229C42.406 22.6108 42.4401 22.6065 42.4739 22.6104C42.5076 22.6143 42.5398 22.6264 42.5679 22.6455ZM38.9265 23.7434L39.0021 23.5616C38.9512 23.4866 38.9385 23.4076 39.0947 23.3475L39.0021 23.5616C39.1053 23.7059 39.3689 23.8281 38.9265 23.7434ZM42.0987 22.8167L41.6457 22.9969C41.8223 23.0237 42.1714 23.0647 42.0973 22.8223L42.0987 22.8167ZM39.9808 23.8748C39.7573 23.9298 39.5293 23.9648 39.2995 23.9794C39.3667 23.8005 39.8218 23.6225 39.9808 23.8748ZM29.0001 26.8868L29.2919 27.207L28.9972 27.3023L29.0001 26.8868ZM32.3617 26.6344L32.5277 26.5658L32.6754 26.7248L32.3617 26.6344ZM36.1183 26.0336C36.086 26.0325 36.0547 26.0228 36.0274 26.0055C36.0002 25.9883 35.9781 25.964 35.9634 25.9353C35.5159 25.79 35.0323 25.802 34.5925 25.9693C34.3558 25.7989 34.6575 25.3741 34.724 25.1988C35.0328 26.4449 35.1798 25.0255 35.6554 25.3684C35.6257 25.5042 35.4101 25.5218 35.4306 25.7091C35.4982 25.7531 35.5783 25.7738 35.6587 25.7679C35.7391 25.762 35.8154 25.73 35.8758 25.6766C35.8666 25.5854 35.8822 25.5077 35.9268 25.4985C35.932 25.5301 35.9301 25.5624 35.9213 25.5932C35.9125 25.624 35.8969 25.6525 35.8758 25.6766C35.8836 25.7688 35.914 25.8571 35.9634 25.9353C36.0201 25.9574 36.0712 25.9916 36.1147 26.0343L36.1183 26.0336ZM40.6267 24.8885C40.6444 24.7647 40.4189 24.6721 40.6197 24.4572C40.6629 24.5205 40.6866 24.5951 40.6879 24.6718C40.6891 24.7484 40.6678 24.8238 40.6267 24.8885C40.6197 24.9337 40.5807 24.9838 40.4698 25.0454C40.5344 25.0096 40.5872 24.9558 40.6217 24.8905L40.6267 24.8885ZM40.6649 25.5812L41.0634 24.9323L40.9723 25.2454L41.2775 24.9118C41.3083 25.0001 41.3146 25.0951 41.2957 25.1868C41.2767 25.2784 41.2333 25.3632 41.1699 25.432C41.1066 25.5009 41.0258 25.5512 40.9361 25.5778C40.8464 25.6043 40.7512 25.6059 40.6606 25.5825L40.6649 25.5812ZM42.1304 24.822L41.5234 25.1705L41.5142 25.1005L41.4733 25.1189L41.4712 24.8L41.51 25.1076L42.1304 24.822ZM47.3958 22.695L47.7343 22.6392C47.675 22.7412 47.5956 22.83 47.501 22.9003C47.4063 22.9707 47.2984 23.0211 47.1837 23.0485C47.8855 23.773 47.2467 22.8683 47.9596 23.0343C47.2941 23.2167 47.7788 23.6507 47.9526 23.9717C47.8742 23.4592 48.8487 23.4994 48.1596 22.5897C48.0197 22.8555 47.3061 22.0383 47.3936 22.7L47.3958 22.695ZM48.012 21.7959L47.5668 21.7945L48.0445 21.8595L48.012 21.7959ZM35.3939 19.0688C35.4907 18.6553 36.1556 19.196 36.1494 19.4243C36.0482 19.2342 35.7127 19.1925 35.3939 19.0688ZM30.8408 18.1096C31.1052 18.2693 31.4345 17.7986 31.5844 18.3555L31.0593 18.427C30.9583 18.2255 30.773 18.3485 30.8408 18.1096ZM27.5302 17.0471L27.3613 17.506L27.5323 17.4762L27.5302 17.0471ZM28.0843 16.6485C27.9973 16.5941 27.6362 16.599 27.7507 16.862L28.0843 16.6485ZM24.6379 15.8547L24.8534 15.4779L24.6344 15.3662L24.6379 15.8547ZM24.8477 16.2484C24.9177 16.2222 24.9488 16.1304 24.9693 16.0222C25.0908 15.9459 25.2873 15.9742 25.4766 16.1735C25.4414 16.3884 25.3106 16.1982 25.1912 16.2088C25.2739 16.2675 25.4117 16.4633 25.5827 16.4435C25.3961 15.9741 25.5381 16.0257 25.5219 15.6758C25.0202 15.2743 25.0314 15.7197 24.9693 16.0237C24.9319 16.0472 24.9009 16.0794 24.8787 16.1175C24.8566 16.1557 24.844 16.1986 24.842 16.2427L24.8477 16.2484ZM26.6773 17.0521C26.6274 16.9808 26.594 16.8991 26.5797 16.8132C26.2484 16.5693 25.9162 16.3333 26.2659 16.047L26.5719 16.2116C26.432 16.1607 26.4603 16.2286 26.4313 16.3043C26.654 16.5552 26.796 16.317 26.9614 16.2845C26.8717 16.4208 26.5218 16.505 26.5776 16.8096C26.6674 16.8782 26.7557 16.9454 26.8306 17.0132C26.8843 16.9736 26.9451 16.9581 27.0172 17.1292L26.9868 17.2062C26.9487 17.1317 26.8955 17.0659 26.8306 17.0132C26.7797 17.0556 26.7316 17.1136 26.6773 17.0521ZM24.5707 16.4831C24.5375 16.5559 24.5884 16.6916 24.4966 16.7693L24.322 16.7842C24.1001 16.5198 24.3713 16.4322 24.5707 16.4831ZM34.2343 19.1388C34.2879 19.1218 34.7996 19.259 34.7713 18.9692L34.9565 19.437C34.6937 19.2957 34.471 19.5933 34.5932 19.7057C34.3707 19.3939 34.189 19.5304 34.2343 19.1388ZM47.2438 21.6765C47.1216 21.7987 46.4319 21.3436 46.4078 21.8864C46.111 21.2219 46.8919 21.4912 47.2424 21.6751L47.2438 21.6765ZM47.3951 22.3112C47.4496 22.3073 47.5044 22.3099 47.5583 22.3189C47.742 22.237 47.6678 21.7853 48.0402 22.0942C47.9682 22.1946 47.8098 22.0192 47.7378 22.121C47.7907 22.4059 47.7336 22.3429 47.5583 22.3189C47.5319 22.3297 47.5034 22.3344 47.4749 22.3328C47.4464 22.3312 47.4187 22.3234 47.3936 22.3097L47.3951 22.3112ZM40.103 21.3633L40.4741 21.4658L40.6592 21.0983L40.103 21.3633ZM36.6376 21.1668L36.94 21.1398L36.8178 21.0289C36.8051 20.9201 36.7274 20.7505 36.8029 20.6932C36.8514 20.6974 36.9002 20.6931 36.9471 20.6805C36.8751 20.6663 36.8291 20.6727 36.8029 20.6932C36.5818 20.6854 36.2928 20.5914 36.2999 20.8967C36.3754 20.7971 36.7987 20.884 36.7945 21.1088L36.6376 21.1668ZM29.3039 19.7248C29.4742 19.6873 29.4997 19.6082 29.7753 19.9136C29.6869 19.931 29.5954 19.9224 29.5117 19.8889C29.4281 19.8554 29.3559 19.7984 29.3039 19.7248ZM38.4608 21.8454C38.4643 21.6157 38.8706 21.7817 38.7024 21.4622L38.5251 21.3697C38.7901 21.5089 38.6042 20.8098 39.0048 21.2049L38.7788 21.1314C39.0763 21.3344 38.4856 21.5351 38.9287 21.7662C39.1039 21.8581 38.6756 22.0037 38.4608 21.8454ZM28.7634 20.1962C29.0255 20.2166 28.9202 19.5869 29.3697 19.9996C29.0509 19.9961 29.1287 20.5672 28.7634 20.1962ZM36.0157 22.2723L36.0504 22.3365L36.3762 22.2298L36.3422 22.1662L36.0157 22.2723Z" fill="white"/>
<path d="M28.6951 16.8025C28.631 16.7514 28.5506 16.7252 28.4688 16.7289C28.5394 16.7662 28.616 16.7911 28.6951 16.8025Z" fill="white"/>
<path d="M48.3281 20.3906C48.3349 20.4249 48.3486 20.4575 48.3683 20.4864C48.388 20.5153 48.4133 20.5399 48.4427 20.5588C48.4228 20.4923 48.3827 20.4335 48.3281 20.3906Z" fill="white"/>
<path d="M49.127 20.3467L49.1574 20.3502L49.18 20.3276L49.127 20.3467Z" fill="white"/>
<path d="M25.3986 29.3875C25.3916 29.8019 25.5768 29.4158 25.7056 29.3889C25.5768 29.4158 25.4248 29.1634 25.3986 29.3875Z" fill="white"/>
<path d="M26.1521 28.5356C26.1384 28.598 26.111 28.6565 26.0719 28.7069C26.0327 28.7573 25.9828 28.7984 25.9258 28.827C26.0107 28.8185 26.0906 28.757 26.1521 28.5356Z" fill="white"/>
<path d="M25.3984 28.8795C25.5756 28.919 25.7608 28.9004 25.9266 28.8265C25.7937 28.8349 25.6233 28.7169 25.3984 28.8795Z" fill="white"/>
<path d="M28.8924 28.0297C28.8294 28.2977 28.4766 28.2447 28.4766 28.2447C29.2247 28.3111 28.5218 28.7141 28.5381 28.9029C28.9157 28.7262 28.7991 28.4327 28.8924 28.0297Z" fill="white"/>
<path d="M29.7145 27.7087C29.6485 27.7262 29.5791 27.7253 29.5137 27.7059C29.5435 27.7251 29.5782 27.7355 29.6137 27.736C29.6492 27.7365 29.6841 27.7271 29.7145 27.7087Z" fill="white"/>
<path d="M30.0515 27.8771C30.2573 27.7689 30.2283 27.4854 30.2509 27.2591C29.8981 27.1339 29.8931 27.5957 29.7129 27.7109C29.8783 27.6756 30.0247 27.6099 30.0515 27.8771Z" fill="white"/>
<path d="M37.5722 27.4302C37.5319 27.4719 37.406 27.5016 37.4626 27.6502L37.8466 27.5589C37.9618 27.4338 37.6613 27.4415 37.5722 27.4302Z" fill="white"/>
<path d="M38.668 26.3616C38.96 26.2591 38.9636 26.6784 39.0802 26.5518L38.8512 26.0582L38.668 26.3616Z" fill="white"/>
<path d="M37.432 23.8839L37.3613 23.9546L37.4589 23.9107L37.432 23.8839Z" fill="white"/>
<path d="M40.332 26.4738L40.3596 27.0812C40.5526 26.874 40.3709 26.4349 40.332 26.4738Z" fill="white"/>
<path d="M41.6401 26.5382L41.5361 26.7567L42.0191 26.442L41.6401 26.5382Z" fill="white"/>
<path d="M42.9082 25.894L43.0058 26L43.3283 25.7568L42.9082 25.894Z" fill="white"/>
<path d="M41.6221 19.7026C41.6143 20.163 42.2726 20.0901 42.4876 20.2514C42.2776 19.6298 41.9672 20.3475 41.6221 19.7026Z" fill="white"/>
<path d="M29.292 17.1736L29.9326 17.2401C29.42 16.924 29.7926 17.2005 29.292 17.1736Z" fill="white"/>
</mask>
<g mask="url(#mask1_5_586)">
<path d="M22.1937 12.7957C22.0938 13.4954 22.2936 14.2951 22.7933 14.795C24.2924 16.0945 25.8913 17.2941 27.5903 18.1938C28.0899 18.4937 28.6896 18.6937 29.1892 18.6937C29.3891 18.6937 30.1886 19.0935 30.2885 19.0935C30.9881 19.2935 30.7882 19.1935 31.3878 19.2935C31.9875 19.3934 32.687 19.2935 33.2866 19.3934C33.4865 19.3934 33.6864 19.4934 33.8863 19.4934C34.3859 19.5933 34.7857 19.5933 35.2854 19.6933C35.3853 19.6933 35.4852 19.6933 35.5852 19.7933C35.6851 19.7933 35.7851 19.8932 35.885 19.9932C35.9849 19.9932 36.1848 19.9932 36.2847 19.9932C36.3847 19.9932 36.5845 20.0932 36.6845 20.1931C36.6845 20.1931 36.5845 20.0932 36.5845 19.9932C39.8824 20.7929 43.0804 20.9929 46.3783 21.4927C47.0779 21.5927 48.377 21.0928 49.0766 21.1928C50.8754 24.4917 48.1772 23.1921 47.3777 22.8922C47.1778 22.7923 46.9779 22.9922 46.7781 23.1921C46.6781 23.2921 47.4776 22.9922 45.9786 23.492C45.7787 23.492 45.0791 23.0922 44.8793 23.0922C44.0798 23.3921 44.4795 23.8919 43.68 24.1918C43.1803 24.3917 41.8812 24.9915 41.3815 24.9915C38.6832 25.2914 36.2847 25.3914 33.7863 26.2911C32.4871 26.7909 31.2879 26.8909 29.9887 27.2907C29.6889 27.3907 29.3891 27.4907 28.9894 27.4907C28.7895 27.4907 28.5896 27.4907 28.3898 27.4907C25.8913 27.2907 23.8926 29.2901 21.4941 29.8899" stroke="#202020" stroke-width="3.99865" stroke-miterlimit="10" stroke-linejoin="round" stroke-dasharray="61.98 61.98"/>
</g>
</svg>
