<svg width="274" height="73" viewBox="0 0 274 73" fill="none" xmlns="http://www.w3.org/2000/svg">
    <mask id="mask0_5_711" style="mask-type:luminance" maskUnits="userSpaceOnUse" x="0" y="0"
        width="274" height="73">
        <path
            d="M208.323 5.18526C207.995 4.96304 207.995 5.33342 207.913 5.33342C208.487 5.55564 208.405 5.11119 208.323 5.18526Z"
            fill="white" />
        <path d="M257.432 7.70374H257.268L258.169 8.00004L257.432 7.70374Z" fill="white" />
        <path
            d="M261.531 11.1853C261.531 10.8149 261.203 10.5186 260.711 10.2223C260.219 9.92599 259.809 9.62969 259.399 9.18524V8.96301H258.743C259.235 9.33339 259.809 9.70377 260.301 10.0741C260.793 10.3704 261.203 10.7408 261.531 11.1853Z"
            fill="white" />
        <path
            d="M262.514 14.9631C262.596 14.7409 263.088 15.2594 262.104 14.4446C262.104 14.5187 262.104 14.5187 262.104 14.5927C262.35 14.6668 262.432 14.815 262.514 14.9631Z"
            fill="white" />
        <path d="M262.187 13.4814C261.777 13.1111 262.351 13.8518 262.187 13.4814V13.4814Z"
            fill="white" />
        <path
            d="M263.99 16.5187L263.662 16.2964C263.498 16.1483 263.334 16.0742 263.334 16.0742C263.334 16.2224 263.662 16.7409 263.498 16.6668C263.99 17.1113 263.99 16.9631 263.99 16.5187Z"
            fill="white" />
        <path d="M264.728 16.8892L264.4 16.667C264.4 16.667 264.482 16.8151 264.728 16.8892Z"
            fill="white" />
        <path
            d="M263.744 16.0742L264.4 16.5927C264.4 16.4446 264.564 16.3705 264.154 16.3705C264.318 16.2964 264.072 16.2224 263.744 16.0742Z"
            fill="white" />
        <path
            d="M263.58 15.5557C263.416 15.1853 263.088 14.7409 263.744 15.1853C262.76 14.1483 262.596 14.5927 263.58 15.5557Z"
            fill="white" />
        <path
            d="M262.187 10.9629L261.859 10.4444L261.367 10.2222C261.613 10.3703 262.023 11.1111 262.187 10.9629Z"
            fill="white" />
        <path
            d="M266.204 20.5187C266.368 20.5187 266.368 20.1483 266.45 20.0742L266.04 19.7039C266.204 19.9261 266.368 20.4446 266.204 20.5187Z"
            fill="white" />
        <path d="M266.531 20.0745L267.105 20.6671C266.777 20.0745 266.613 20.0004 266.531 20.0745Z"
            fill="white" />
        <path d="M265.302 16.5928L264.154 15.778L265.466 16.815L265.302 16.5928Z" fill="white" />
        <path d="M267.679 23.3337L267.27 23.0374L268.007 23.5559L267.679 23.3337Z" fill="white" />
        <path
            d="M268.5 25.2594C268.172 25.0372 268.254 25.7779 268.008 25.5557C268.254 26.0001 268.582 26.3705 268.91 26.6668C268.664 26.2224 268.5 25.7779 268.5 25.2594Z"
            fill="white" />
        <path
            d="M267.68 22.0002C267.598 22.2225 267.598 22.4447 267.68 22.6669L267.844 22.2965L267.68 22.0002Z"
            fill="white" />
        <path
            d="M267.844 22.2964C267.926 22.5186 268.008 22.6668 268.09 22.889C268.09 22.8149 268.008 22.5927 267.844 22.2964Z"
            fill="white" />
        <path
            d="M266.286 18.667C266.696 18.9633 267.434 19.704 267.188 18.7411C266.778 18.5929 266.942 19.1114 266.286 18.667Z"
            fill="white" />
        <path
            d="M267.843 21.3335L267.679 20.9631C267.597 20.7409 267.515 20.5928 267.515 20.5928C267.433 20.6668 267.433 20.815 267.188 20.6668C267.188 20.6668 267.351 20.815 267.515 21.0372L267.843 21.3335Z"
            fill="white" />
        <path d="M268.172 21.704L267.844 21.4077L268.008 21.704H268.172Z" fill="white" />
        <path
            d="M269.237 25.8523C269.483 26.1486 269.729 26.519 269.811 26.8894C269.729 26.4449 269.647 26.0004 269.401 25.556C269.237 25.4819 268.991 25.4078 269.237 25.8523Z"
            fill="white" />
        <path d="M270.877 31.4078L270.959 31.3337H270.877V31.4078Z" fill="white" />
        <path
            d="M269.401 25.3337C269.319 25.0374 269.237 24.8151 268.991 24.667C269.155 24.8892 269.237 25.1855 269.401 25.4077C269.401 25.4818 269.483 25.4818 269.401 25.3337Z"
            fill="white" />
        <path
            d="M269.894 28.5189C269.894 28.2966 269.894 28.0744 269.894 27.9263C269.812 28.0744 269.812 28.4448 269.894 28.5189Z"
            fill="white" />
        <path d="M268.663 24.2964C268.581 24.3705 268.581 24.3705 268.663 24.2964V24.2964Z"
            fill="white" />
        <path
            d="M268.663 24.2966C268.745 24.4447 268.909 24.5188 269.073 24.667C268.991 24.5188 268.827 24.2966 268.745 24.1484C268.663 24.2225 268.663 24.2225 268.663 24.2966Z"
            fill="white" />
        <path
            d="M273.254 32.5189C273.091 32.5189 272.927 32.2967 272.763 31.9263C272.599 31.5559 272.599 31.1115 272.681 30.7411C272.271 30.0003 271.369 30.667 270.877 31.4078C271.041 31.4078 271.123 31.4078 271.451 32.1485C271.615 31.8522 271.533 30.2966 271.943 30.9633C272.353 32.0004 272.025 31.8522 271.861 32.3707C272.189 31.8522 272.599 33.7041 273.173 33.4078L272.845 32.4448C273.009 32.4448 273.173 32.7411 273.254 32.5189Z"
            fill="white" />
        <path
            d="M270.631 29.7781L270.549 29.4818C270.549 29.8522 270.549 30.2966 270.385 30.667C270.631 31.1855 270.795 31.2596 270.877 31.2596L270.713 30.4448C270.713 30.1485 270.631 29.9263 270.549 29.63L270.631 29.7781Z"
            fill="white" />
        <path
            d="M270.139 27.8524C270.549 28.0006 270.877 28.7413 271.123 28.2228C270.795 27.2598 270.631 27.6302 270.303 27.1117C270.877 28.5932 269.975 26.6672 270.139 27.8524C270.057 27.5561 269.894 27.3339 269.812 27.0376C269.894 27.3339 269.894 27.5561 269.894 27.8524V27.7784C269.894 27.7043 269.894 27.7043 269.894 27.7784C269.975 27.7784 270.057 27.8524 270.139 27.8524C270.221 28.2969 270.057 27.9265 269.975 27.8524C269.975 27.8524 269.975 27.8524 269.894 27.8524C269.975 28.0747 270.139 28.2969 270.221 28.5932L270.549 29.3339C270.385 28.8154 270.303 28.2969 270.139 27.8524Z"
            fill="white" />
        <path
            d="M268.254 19.1855C268.254 19.1855 268.254 19.2596 268.172 19.2596C268.336 19.3337 268.418 19.3337 268.254 19.1855Z"
            fill="white" />
        <path
            d="M268.499 19.9262C268.253 19.8521 268.089 19.6299 268.007 19.4817C267.925 19.1114 268.171 19.4077 268.253 19.3336C268.007 19.1854 267.597 18.741 267.843 19.4077L267.925 19.4817C268.171 20.0743 268.253 21.0373 268.089 20.9632C268.335 20.5929 268.499 20.2966 268.499 19.9262Z"
            fill="white" />
        <path
            d="M269.647 23.9263C269.647 23.9263 269.811 24.2226 269.975 24.5189C270.139 24.8152 270.303 25.1115 270.303 25.1115V24.3707L270.139 24.4448C269.975 23.704 269.811 24.0003 269.647 23.9263Z"
            fill="white" />
        <path
            d="M270.713 31.6301L270.303 31.4819L270.631 31.7782C270.795 31.9264 270.959 32.1486 270.959 32.1486C270.959 32.0745 270.877 31.9264 270.877 31.8523L270.713 31.6301Z"
            fill="white" />
        <path d="M270.959 33.4078H270.631L270.877 33.8523L270.959 33.4078Z" fill="white" />
        <path d="M5.8211 52.297L5.49316 52.0007C5.57515 52.1489 5.73912 52.223 5.8211 52.297Z"
            fill="white" />
        <path d="M7.87103 55.0379H8.035C7.87103 54.9638 7.78905 54.9638 7.87103 55.0379Z"
            fill="white" />
        <path
            d="M192.09 67.1862C191.434 67.038 190.614 66.8158 190.778 67.1121L191.024 67.4084C191.352 67.2603 191.762 67.1862 192.09 67.1862Z"
            fill="white" />
        <path d="M95.0205 68.001L95.1025 68.1491L95.5944 68.001H95.0205Z" fill="white" />
        <path d="M90.7574 69.1119L90.0195 68.6675C90.2655 68.8156 90.5114 68.9638 90.7574 69.1119Z"
            fill="white" />
        <path
            d="M0.983871 34.7412L0.655933 34.2227C0.573949 34.9634 0.819902 34.6671 0.983871 34.7412Z"
            fill="white" />
        <path
            d="M267.515 51.4824C267.187 51.7787 266.941 52.075 266.695 52.4454C267.187 52.001 267.679 51.7787 267.515 51.4824Z"
            fill="white" />
        <path
            d="M9.59254 51.3341C9.42857 51.1859 9.2646 51.1118 9.18262 51.1859C9.42857 51.3341 9.59254 51.4081 9.59254 51.3341Z"
            fill="white" />
        <path
            d="M265.876 53.7045C265.958 53.6304 266.04 53.5564 266.122 53.5564C266.286 53.186 266.45 52.8897 266.696 52.5934C266.286 52.8156 266.04 53.2601 265.876 53.7045Z"
            fill="white" />
        <path
            d="M154.131 0.444336C154.213 0.444336 154.213 0.444336 154.295 0.518411C154.295 0.444336 154.213 0.444336 154.131 0.444336Z"
            fill="white" />
        <path
            d="M209.224 5.33335C209.06 5.33335 208.732 5.25928 208.486 5.25928C208.732 5.33335 208.978 5.33335 209.224 5.33335Z"
            fill="white" />
        <path d="M270.713 40.6672C270.631 40.5931 270.713 40.2968 270.713 40.6672V40.6672Z"
            fill="white" />
        <path d="M270.713 40.1487L270.795 39.8524C270.795 39.7783 270.713 39.8524 270.713 40.1487Z"
            fill="white" />
        <path
            d="M270.631 41.1857C270.631 40.9635 270.713 40.8154 270.713 40.5931C270.713 40.6672 270.631 40.6672 270.631 40.6672C270.631 40.8154 270.631 40.9635 270.631 41.1857Z"
            fill="white" />
        <path d="M17.627 9.40751H17.7089C17.9549 9.03713 17.7909 9.11121 17.627 9.40751Z"
            fill="white" />
        <path
            d="M159.132 72.2233C159.542 71.927 160.116 71.7788 160.69 71.927L160.116 71.0381L159.132 72.2233Z"
            fill="white" />
        <path
            d="M5.41139 45.1117C5.41139 45.4821 5.49338 45.8525 5.57536 46.297C4.59155 45.9266 3.68972 45.4821 2.86988 44.9636C2.45995 44.7414 2.214 44.7414 2.05003 45.334C3.68972 45.2599 4.8375 46.297 6.06727 47.334C7.37902 48.3711 8.93672 49.334 10.4944 49.1859C10.5764 49.4081 10.7404 49.7044 10.9044 49.9266C10.6584 49.6303 10.4944 49.6303 10.1665 49.4081C10.4944 50.1489 11.3963 50.297 12.544 50.4452C13.8558 50.5933 15.0856 50.9637 16.2333 51.5563C17.0532 52.1489 17.3811 52.5933 16.3153 52.297C16.3153 52.297 17.0532 52.5934 17.873 52.8156L19.5127 53.3341C20.1686 53.7045 19.5127 53.7045 18.8568 53.3341L20.9065 54.1489C21.9722 54.5934 23.12 54.9638 23.12 54.9638H23.038C24.0219 55.1119 25.9895 55.4823 26.9733 55.6304C27.7112 56.149 26.1535 55.4823 26.1535 55.7045L29.1869 56.3712C29.5968 56.8897 26.8913 56.3712 25.2516 55.7786C25.1696 56.5193 25.8255 56.6675 26.9733 56.8897C28.613 57.186 30.2527 57.7045 31.7284 58.4453L28.9409 57.7786C29.2689 58.6675 31.6464 59.1861 33.86 60.2972C33.4501 59.9268 30.0067 57.8527 33.5321 58.5934C34.6798 59.112 35.9916 59.4083 37.3033 59.5564C36.5655 59.8527 38.2871 60.2231 40.4187 60.7416L39.271 61.112C41.8125 61.5565 42.1404 61.3342 43.8621 61.4824C46.3216 62.1491 46.1577 62.5194 46.1577 62.9639C50.1749 64.0009 44.436 61.7787 49.519 62.8157C51.0767 63.2602 52.7164 63.5565 54.2741 63.8528C55.9958 64.1491 57.8814 64.2972 60.259 64.5936C62.5545 65.1861 59.3571 64.8158 60.013 65.038L62.8825 65.1121C63.4564 65.1862 63.0464 65.2602 62.8825 65.3343C65.0141 65.5565 63.7843 64.8898 66.9817 65.3343C68.5394 64.9639 72.1467 67.038 76.8198 66.964C77.5577 67.2603 76 67.1862 76 67.4084C81.8209 67.7047 80.9191 67.7788 85.9201 67.7788L87.6418 68.1492L89.3634 68.5195C86.9859 67.8529 91.0031 67.8529 94.3645 67.7788C93.5447 67.4825 92.8888 67.2603 92.3969 67.1121C92.3969 67.1121 93.7086 67.1862 94.9384 67.2603L97.4799 67.4084C97.9718 67.5566 97.3159 67.6306 96.3321 67.7788C96.7421 67.7788 97.07 67.7788 97.3159 67.7788C98.8736 68.1492 97.7259 68.2973 96.2501 68.4455C95.7582 68.2973 95.2663 68.1492 94.7744 68.001C93.2987 68.1492 91.823 68.3714 91.741 68.6677C92.3149 68.6677 92.8888 68.6677 93.5447 68.6677C93.1347 68.7418 92.8888 68.7418 92.9708 68.8158C93.5447 68.8899 94.1185 68.8158 94.6924 68.8158L95.3483 69.4825L95.8402 69.2603C95.8402 69.2603 97.3979 69.4825 99.0376 69.7047C100.677 69.927 102.235 70.1492 102.235 70.1492C107.482 70.001 112.155 69.4825 119.862 69.7047C117.73 70.001 119.124 70.3714 118.714 70.8159C116.91 70.2233 112.647 70.6677 108.712 70.2973C110.761 70.5196 110.106 70.6677 109.532 70.7418C109.532 70.7418 111.417 70.7418 113.221 70.7418C115.025 70.7418 116.91 70.7418 116.91 70.7418C116.5 71.1122 118.222 71.1122 120.026 71.4085C119.042 70.5937 125.601 71.1863 128.634 71.0381C128.716 71.3344 127.896 71.5566 124.371 71.3344C128.06 72.0752 129.782 70.6677 133.471 71.2603C132.897 71.1862 132.323 71.1863 131.749 71.3344C133.881 71.1863 138.718 71.4826 137.57 71.7048H136.668C139.538 71.8529 143.965 71.927 147.818 71.8529C151.59 71.7789 154.787 71.5566 155.197 71.2603C155.279 71.3344 154.459 72.0752 154.131 72.2233L155.771 71.8529L159.214 71.0381C160.444 70.7418 161.674 70.4455 162.576 70.2233L164.051 69.8529C163.231 70.4455 167.085 71.7048 162.33 72.1492C164.379 72.2233 166.347 72.2233 168.396 72.0011C167.413 71.927 165.855 71.2603 167.085 71.1862C170.774 71.7048 169.626 71.4826 174.135 71.8529C172.66 71.7789 173.889 70.8159 176.103 70.7418C175.857 70.89 176.677 71.6307 175.939 71.7789L178.481 71.1862C179.792 70.89 181.022 70.5937 181.022 70.5937C179.71 70.8159 181.186 71.3344 182.58 71.4826C181.924 71.3344 187.417 71.1863 188.811 71.0381H186.351C192.664 70.7418 191.516 69.4084 197.419 68.8899C196.845 69.1121 196.599 70.1492 199.796 69.927C200.288 69.6307 201.354 68.964 202.748 68.2232C204.47 67.3343 206.273 66.6677 208.159 66.2232L209.389 66.3714L211.028 66.001C211.848 65.7788 212.668 65.6306 212.668 65.6306C211.356 66.4454 210.045 67.1121 208.569 67.7047C206.683 68.5195 204.798 69.1862 202.83 69.7788C205.289 69.7047 203.814 70.001 207.093 69.5566C208.569 69.6307 205.617 70.1492 204.634 70.2233L208.733 69.8529C210.782 69.7048 212.75 69.4084 212.75 69.4084C212.258 69.1862 213.57 68.8899 214.882 68.5195C216.193 68.1492 217.505 67.8529 217.095 67.7047C217.095 67.7047 215.292 68.1492 213.324 68.5195L210.7 68.8899C209.963 69.0381 209.471 69.1121 209.471 69.1121C208.979 68.8899 209.799 68.3714 211.356 67.8529C212.258 67.5566 213.242 67.2603 214.226 67.038C215.456 66.7417 216.603 66.5195 217.833 66.3714C219.473 66.3714 218.161 67.3343 218.489 67.4825C219.309 67.1862 220.129 66.964 221.03 66.8158C221.932 66.5936 222.752 66.4454 223.654 66.3714L221.85 67.038C225.13 66.6677 225.54 65.6306 229.639 65.3343C230.869 65.1121 234.23 65.1861 233.902 64.8898C230.951 64.8158 227.425 63.3343 227.753 62.6676L231.361 62.2972C233.164 62.1491 235.05 61.8528 235.952 61.8528C238.575 61.7787 235.542 63.4083 237.837 63.3343C237.591 63.1861 238.247 62.8157 238.493 62.6676C239.887 62.4454 238.903 63.112 241.199 62.4454C240.461 61.9268 245.954 61.112 241.363 61.7787C243.248 61.0379 244.068 61.1861 246.446 60.3713C244.888 60.3713 246.118 58.8898 247.511 58.0749C248.003 58.149 248.495 58.2231 248.987 58.149C249.971 57.7786 250.955 57.4823 251.775 57.186C252.594 56.8897 253.332 56.5934 254.07 56.3712C255.628 55.8527 257.104 55.2601 258.497 54.5193C259.153 54.4452 260.957 53.7786 261.039 54.223C261.121 53.7786 261.449 53.3341 261.859 53.1119C264.81 52.3711 260.137 54.223 262.924 53.7786C262.187 53.5563 264.072 52.2971 264.482 51.4822C263.662 51.5563 262.924 51.8526 262.351 52.3711C261.777 52.8156 261.285 53.3341 260.875 53.8526C259.973 53.7045 259.563 53.186 259.645 52.5933C259.809 51.7044 260.219 50.9637 260.875 50.2229C262.269 48.8155 262.924 49.8526 262.924 49.5563C264.646 48.297 264.482 47.6303 264.236 47.1118C263.99 46.5933 263.99 46.0747 265.466 45.0377C267.434 44.2969 268.09 45.1858 269.155 45.1117C268.745 46.297 266.696 46.8155 266.04 47.5562L267.598 46.6673C267.516 47.334 267.024 47.9266 266.368 48.2229C266.942 48.0007 267.516 47.6303 268.008 47.2599C268.663 46.7414 269.237 46.1488 269.811 45.5562C270.959 44.2228 271.943 42.7413 273.009 41.7043C272.763 41.3339 272.517 40.5932 271.861 40.8895L271.779 41.5561C270.467 42.1487 270.877 40.2228 269.975 41.0376C269.647 40.1487 268.745 39.1116 269.565 37.8524L271.123 37.6301C270.713 37.6301 270.057 38.445 270.467 38.8153C269.975 38.2968 272.763 36.8894 270.795 36.2968L269.729 37.1857C269.319 36.7412 268.827 36.2227 268.335 35.7042C267.844 35.3338 267.516 34.7412 267.598 34.1486C266.204 34.6671 267.844 34.3708 266.204 35.1857C267.188 34.8153 267.352 35.556 267.352 36.1486C267.352 36.7412 267.27 37.4079 268.417 36.8153C266.368 37.5561 267.434 38.1487 265.466 39.1857C265.958 39.1857 266.532 38.8153 266.04 39.7783C266.204 39.8524 266.286 39.9265 266.368 40.0005C266.45 40.0746 266.45 40.0746 266.368 40.0005C266.614 39.7783 266.942 39.6302 267.27 39.5561C268.335 40.0746 267.598 41.4821 268.008 42.0006C267.434 42.5191 267.598 41.7784 266.86 42.0006L267.27 42.7413C266.122 42.7413 264.646 44.0006 264.728 42.7413L264.4 43.2599C264.318 43.4821 264.154 43.6302 263.99 43.7784C263.006 44.2228 262.269 44.8895 261.859 45.7784C261.121 46.2229 261.695 47.1859 261.367 46.6673C261.367 46.6673 261.285 46.7414 261.203 46.9636C261.121 47.1859 260.957 47.4081 260.793 47.5562L260.055 48.4451H259.809C258.825 49.26 257.923 50.1489 256.94 51.0378C255.382 52.1489 253.66 52.9637 251.775 53.4082C251.365 53.7045 251.037 53.9267 250.545 54.2971C249.807 54.6675 248.987 55.0378 248.167 55.2601H247.02C246.036 55.7045 245.052 56.0749 244.068 56.3712C242.92 56.7416 241.936 57.0379 242.018 57.2601C240.133 57.2601 238.247 57.9268 236.116 58.5934L232.918 59.6305C231.852 59.9268 230.869 60.2231 229.967 60.3713L230.623 60.7416C229.475 61.0379 228.327 61.2602 227.261 61.6305C226.195 62.0009 224.966 62.2972 223.572 62.6676L224.31 62.9639C222.67 63.4083 221.03 63.7787 219.309 63.9269L216.029 64.2973C214.882 64.4454 213.734 64.5936 212.668 64.7417C213.406 64.5195 214.144 64.3713 214.882 64.3713C213.406 64.3713 211.93 64.5195 210.454 64.7417C209.061 64.9639 207.749 65.1862 206.437 65.4825C203.814 66.0751 201.026 66.4454 198.321 66.5195C197.337 66.7417 196.271 66.8158 195.205 66.8158C195.287 66.8158 195.369 66.8158 195.533 66.7417C195.369 66.7417 195.205 66.7417 195.041 66.8158C194.386 66.8158 193.73 66.8158 193.074 66.8158C193.648 66.8158 194.304 66.8899 194.713 66.8899C193.73 66.964 192.254 67.1862 190.86 67.3343L189.958 67.038L189.63 67.1121C188.073 67.1121 188.565 67.4084 189.548 67.6306C188.893 67.7047 188.319 67.8529 187.745 68.001C186.105 67.4825 183.892 68.5195 181.842 67.9269C180.448 68.2232 179.054 68.3714 177.661 68.5195C175.775 68.7418 173.971 68.964 173.725 69.2603C173.643 69.1862 173.152 69.1862 173.971 69.1121C172.332 69.0381 170.61 69.1121 168.97 69.3344L168.069 68.8899C168.069 68.8899 167.167 69.1121 166.265 69.2603L164.461 69.6307C162.084 69.4084 161.1 69.2603 163.313 68.8158C157.902 69.4825 158.886 69.1121 154.213 69.7047L154.459 69.4084C152.737 69.4084 150.032 69.8529 149.048 69.5566C147.162 69.2603 142.489 69.1862 137.078 69.0381C131.667 68.8899 125.601 68.5936 120.927 68.0751C122.239 69.1121 116.746 67.4084 115.926 68.0751C115.516 67.8529 114.287 67.6306 115.926 67.5566C110.925 67.4825 108.958 66.7417 105.268 67.038C104.859 66.8158 106.498 66.8158 106.17 66.6677C105.514 66.7417 104.777 66.6677 104.121 66.5936C103.711 66.4454 104.94 66.4454 105.76 66.4454C100.923 66.0751 99.8575 66.6677 98.9556 67.2603C97.152 66.7417 95.1843 66.5936 93.2987 66.8899C92.6428 66.5936 91.495 66.2232 94.5285 66.5195C92.8888 66.2973 84.6903 65.1121 83.9525 65.5565C83.0507 65.3343 82.1488 65.2602 81.165 65.2602C77.5577 64.7417 77.2298 64.6676 73.7044 64.1491L74.6063 64.3713C72.3927 64.6676 71.4908 64.075 68.5394 63.6306L68.7034 63.5565C62.9645 62.075 65.588 63.2602 60.259 61.7046L60.013 62.075C59.0292 62.3713 57.8814 62.0009 56.4877 61.4824C54.93 60.8157 53.2903 60.3713 51.5686 60.075L52.3885 60.5194C51.4047 60.4453 50.4208 60.0009 49.765 59.3342C49.2731 58.7416 48.6172 58.2971 47.8793 57.9268C47.6334 57.7786 48.6992 58.0009 49.355 58.0749C45.8297 56.5934 47.7154 58.3712 44.19 57.5564C44.108 57.186 46.3216 57.2601 44.272 56.5934C43.9441 56.3712 41.9764 56.0749 39.8449 55.7045C37.7133 55.3341 35.4997 54.7415 34.7618 54.1489C34.8438 54.5193 35.0078 54.8156 33.2861 54.4452C30.9905 53.7786 29.9247 51.9267 26.7273 51.6304C26.6454 51.4822 26.7273 51.4081 26.8093 51.4081C25.0057 50.8896 21.9722 49.5563 20.4145 49.26C21.0704 48.9637 20.8245 48.5933 20.2506 48.1488C19.5127 47.6303 18.6929 47.1859 17.873 46.8155C16.0694 45.9266 14.5936 44.9636 16.3973 44.8154C16.2333 44.7414 16.1514 44.5932 15.9874 44.5191C15.8234 44.2969 15.5775 44.0747 15.3315 43.7784L14.6756 43.0376C14.5936 42.9636 14.4297 42.8154 14.3477 42.6673H14.7576C14.1837 41.2598 13.0359 40.8154 12.0521 40.2969C12.2161 39.9265 12.626 40.2228 12.872 40.2228C12.872 39.7042 12.872 39.2598 12.872 38.9635C12.954 38.6672 12.872 38.3709 12.79 38.0746C12.626 37.7783 12.4621 37.482 12.2161 37.2598C11.9701 36.9635 11.7242 36.5931 11.3143 36.1486L12.544 36.0005C12.3801 35.8523 12.4621 35.6301 12.626 35.2597C12.872 34.8894 13.2819 34.519 13.6098 34.0005C13.9378 33.556 14.5117 33.0375 14.8396 32.4449C15.0036 32.2226 15.1675 31.9263 15.2495 31.63C15.4135 31.4078 15.4955 31.1115 15.5775 30.8152C15.6594 30.8152 15.9054 30.8893 15.9054 31.1115C16.0694 29.9263 18.201 28.593 20.0866 27.5559C21.8903 26.4448 23.366 25.5559 21.9722 24.8892L22.1362 24.667C22.3002 24.4447 22.3822 24.2966 22.5461 24.1484L23.284 23.4077C19.8407 25.1855 22.0542 22.8151 20.0866 23.4818C21.1524 22.741 24.5138 21.8521 23.12 22.741L22.7101 22.8151C24.0219 23.4818 27.6292 20.741 28.8589 21.1113C32.7942 19.3335 36.8934 17.852 41.0746 16.6668C45.5838 15.3335 50.4208 14.2223 55.1759 13.1112L54.1101 13.0371L52.8804 12.5927C52.8804 12.5927 53.7002 12.3705 54.6021 12.2223L56.3237 11.8519C57.4715 11.7779 58.2913 11.926 55.8318 12.4445C57.6355 12.4445 59.3572 11.3334 59.2752 11.1853C64.5222 10.4445 58.5373 12.1482 60.013 11.8519L61.9806 11.4075H61.4068C62.6365 10.889 62.3086 10.5927 65.506 10.0741C67.6376 9.8519 67.0637 10.2223 67.8835 10.0741C67.9655 10.0741 68.2115 10.0741 69.1133 9.8519C69.1133 9.8519 70.2611 9.62967 71.4089 9.48152L73.7864 9.11115L71.3269 9.03707C73.0485 8.51854 75.754 8.37039 72.8846 8.22224C75.0162 8.29632 79.5253 7.70372 83.9525 7.18519C88.3796 6.66666 92.6428 6.14813 93.7906 6.14813C96.988 5.48146 100.349 5.11108 103.629 4.96293C102.563 4.96293 101.579 4.51848 105.022 4.29625C104.531 5.40738 111.581 4.29625 114.697 4.88885C111.991 4.51848 124.289 4.29625 120.108 3.77772C122.977 3.70365 120.436 4.1481 122.731 4.29625C129.372 3.62957 137.816 4.07403 146.179 3.8518C146.343 3.70365 144.867 3.48142 146.671 3.2592L151.18 3.92588C152.819 3.8518 152.737 3.11105 155.771 3.62957C155.361 3.48142 154.705 3.33327 155.853 3.2592C164.133 3.62957 172.66 3.70365 181.268 3.92588C189.712 4.07403 198.157 4.59255 206.519 5.62961C204.388 5.25923 205.945 5.33331 207.667 5.40738C206.601 5.25923 207.913 5.037 207.749 4.88885L214.472 5.77776C216.029 5.33331 222.014 6.22221 223.08 5.77776L220.784 5.70368C224.146 5.33331 217.423 4.1481 218.243 3.48142C214.554 3.92588 209.881 1.99992 203.896 2.66659C202.748 2.44437 205.043 2.51844 204.47 2.29622C202.338 2.51844 200.206 2.51844 198.075 2.22214L198.485 2.14807C189.548 1.85177 185.941 1.33324 175.857 0.814713L176.513 1.18509C175.283 1.11101 174.135 1.03694 172.906 0.814713C170.282 1.33324 178.972 1.03694 176.513 1.55547C173.807 0.962863 161.264 1.48139 159.378 0.666562C156.017 0.666562 160.28 1.11101 157.001 1.03694L156.099 0.814713L155.197 1.11101C152.983 1.03694 151.918 0.740637 151.836 0.518411C152.409 0.518411 153.393 0.444336 153.967 0.444336C151.098 0.148035 145.851 0.518411 144.867 0.444336L148.146 0.592487C138.964 0.814713 127.65 0.740637 118.96 1.70362L119.698 1.85177C113.139 2.51844 114.205 1.92584 106.99 2.51844L107.236 2.44437C105.514 2.74067 103.793 2.9629 101.989 3.11105C103.629 2.74067 98.2178 3.03697 100.431 2.59252C93.5447 3.5555 97.07 3.11105 93.0527 4.22218L91.823 3.99995C90.2653 4.51848 88.7076 4.88885 87.0679 5.037C89.6914 4.4444 84.3624 4.88885 87.2319 4.22218C84.2804 4.29625 81.411 4.59255 78.5415 5.25923C76.6559 5.70368 74.6062 5.92591 72.6386 5.77776C70.507 6.88889 79.4433 5.25923 77.8856 5.70368C79.7713 5.70368 75.918 6.59259 73.6224 6.88889C72.2287 6.96296 70.835 7.03704 69.4412 6.96296C67.2277 6.96296 64.9321 7.11111 62.8005 7.55557C63.3744 7.48149 63.2924 7.40741 63.8663 7.33334C61.4887 7.40741 60.177 8.14817 57.1436 8.37039C56.5697 9.03707 53.8642 8.963 54.5201 9.5556L59.1932 8.44447C57.9634 8.81485 56.9796 9.2593 55.6679 9.70375C53.9462 10.2964 52.1425 10.7408 50.3389 10.963C50.9128 10.5927 51.5686 10.2964 52.2245 10.0741C50.5848 10.2223 49.9289 10.7408 48.2892 10.889C47.8793 10.5927 49.1911 10.2223 50.9947 9.8519C52.7164 9.48152 54.3561 9.03707 55.9958 8.51854C54.0282 8.59262 51.1587 10.0741 51.4866 9.18522C51.1587 9.77782 49.847 10.0001 48.2892 10.2964C46.8135 10.5927 45.0099 10.963 43.9441 11.6297L43.4522 11.3334C42.7963 11.7038 42.0584 12.0001 41.3206 12.2223L42.0584 11.4075C40.1728 12.4445 36.0736 12.5186 34.1059 13.4816C39.271 11.926 36.2375 13.4816 38.943 13.0371C33.778 15.3335 33.0401 13.4075 26.8093 15.852C27.4652 15.4816 30.7446 14.8149 29.6788 15.4075C28.2031 15.852 26.6454 16.2224 25.0877 16.5187C21.1524 18.2224 26.6454 16.5187 25.4976 17.3335C22.9561 17.6298 24.0219 18.2965 22.7921 19.0372L21.8083 18.815C17.0532 20.6669 22.7921 19.778 18.4469 21.4076C18.4469 21.2595 18.4469 21.0373 18.4469 20.8891C18.4469 20.6669 18.5289 20.3706 18.5289 20.3706L17.791 20.8891C17.5451 21.0373 17.2991 21.1854 17.1352 21.4076L16.3153 20.9632C15.4135 22.2225 14.4297 22.4447 12.544 23.4818C13.6918 23.3336 14.2657 23.9262 12.954 24.8892C11.3963 25.4818 12.3801 24.3707 10.8224 25.7781C10.5764 25.4077 10.0025 24.8892 11.8882 24.4447C11.6422 24.3707 11.6422 24.0744 11.3963 23.9262C9.51062 24.5188 8.85474 25.704 8.19886 26.2225C8.5268 26.0003 8.77276 25.8522 9.18268 25.704C9.18268 25.704 8.93672 26.2225 8.69077 26.8151C8.5268 27.3337 8.44482 27.9263 8.44482 27.9263C7.70696 28.2226 7.62497 27.9263 7.54299 27.63C7.21505 28.0744 7.461 28.3707 6.9691 29.0374C6.14925 28.8152 5.16544 28.7411 5.65735 27.8522C5.49338 28.2226 5.32941 28.5189 5.16544 28.8893C5.00147 29.4078 4.8375 29.9263 4.8375 29.9263C4.3456 30.0004 2.86988 30.8893 2.70591 30.593C2.05003 31.1115 2.13202 31.8523 2.05003 32.6671C2.13202 33.2597 2.29599 34.0745 1.64011 34.8153C1.88606 34.9634 2.05003 35.1857 2.05003 35.4079C1.55813 36.8153 0.328359 38.1487 2.13202 39.8524L0.738281 40.8895C1.64011 42.2228 2.37797 39.482 3.93567 41.7043C5.32941 43.1858 2.78789 42.371 2.62392 42.9636C3.2798 43.2599 4.3456 43.7043 5.24743 44.2969C5.65735 44.5191 5.98528 44.8895 6.31322 45.2599C6.64116 45.5562 6.80513 45.9266 6.88711 46.297C6.31322 46.0006 5.82132 45.5562 5.41139 45.1117ZM33.4501 58.5934C32.5482 58.4453 30.6626 58.149 30.5806 57.8527C31.5644 57.7045 32.6302 58.0008 33.4501 58.5934ZM100.595 69.0381C99.6115 69.0381 98.7097 68.964 97.7259 68.6677C98.7097 68.7418 99.6935 68.8158 100.595 69.0381ZM264.154 44.8895C263.252 45.4821 263.58 45.2599 264.154 44.8895V44.8895ZM265.63 43.6302C265.548 43.4821 265.384 43.4821 265.22 43.5562C265.466 43.6302 265.302 43.9265 264.892 44.2969C265.302 44.2228 265.63 44.0747 265.63 43.6302ZM68.0475 10.0001L67.2277 10.0741C68.7034 9.62967 68.3754 9.8519 68.0475 10.0001Z"
            fill="white" />
        <path
            d="M91.9052 68.9639C91.8232 68.8898 91.8232 68.8158 91.8232 68.7417C91.7412 68.7417 91.6592 68.8158 91.9052 68.9639Z"
            fill="white" />
        <path d="M1.06636 34.8153C1.06636 34.7412 1.06636 34.7412 0.984375 34.7412L1.06636 34.8153Z"
            fill="white" />
        <path
            d="M262.186 63.853C262.022 63.9271 261.776 64.0012 261.612 64.0753C261.612 64.0753 261.776 64.0753 262.186 63.853Z"
            fill="white" />
        <path
            d="M270.795 36.7412L270.877 37.482C270.877 37.2597 270.877 37.0375 271.041 36.8153C270.959 36.8153 270.795 36.9634 270.795 36.7412Z"
            fill="white" />
        <path
            d="M272.352 29.1116C272.27 29.0375 272.27 28.8894 272.188 28.7412L272.024 28.8153C272.188 29.3338 272.434 29.6301 272.352 29.1116Z"
            fill="white" />
        <path
            d="M272.107 35.8523C272.435 35.7783 272.271 35.2597 272.189 34.7412V34.8153C271.697 34.7412 271.943 35.2597 272.107 35.8523Z"
            fill="white" />
        <path
            d="M272.188 34.519C272.188 34.3709 272.188 34.1486 272.188 34.0005C271.943 34.0005 272.107 34.2227 272.188 34.519Z"
            fill="white" />
        <path
            d="M270.795 42.0006C270.959 41.7784 270.385 41.7784 270.549 41.6302C270.221 41.2598 270.713 43.408 270.795 42.0006Z"
            fill="white" />
        <path d="M273.173 35.4078L272.763 35.6301L273.091 35.9264L273.173 35.4078Z" fill="white" />
        <path
            d="M272.681 40.2228C272.681 40.2228 272.762 40.0006 272.762 39.7784L272.844 39.3339C272.762 39.3339 272.762 39.2598 272.762 39.1117C272.681 39.6302 272.517 40.2228 272.681 40.2228Z"
            fill="white" />
        <path
            d="M272.763 38.9635C272.845 38.7413 272.763 38.445 272.763 38.2228C272.681 38.5191 272.681 38.7413 272.763 38.9635Z"
            fill="white" />
        <path d="M273.255 36.8154L273.173 37.1117V37.7784L273.255 36.8154Z" fill="white" />
        <path
            d="M269.729 50.4451L269.401 51.4081C269.483 51.5562 269.647 51.334 269.811 50.9636C269.811 50.6673 269.975 50.371 269.729 50.4451Z"
            fill="white" />
        <path
            d="M272.025 47.7046C271.861 47.9268 271.779 47.9268 271.615 48.075L272.107 48.2231L272.025 47.7046Z"
            fill="white" />
        <path
            d="M270.959 50.8158C271.041 50.9639 270.631 52.2973 271.205 51.1121C271.123 50.9639 271.45 50.001 270.959 50.8158Z"
            fill="white" />
        <path d="M259.891 63.8526L260.137 63.7044L259.646 63.1118L259.891 63.8526Z" fill="white" />
        <path
            d="M195.288 71.0381C196.681 70.89 195.452 70.5196 196.763 70.4455C197.009 70.2233 195.698 70.5196 196.026 70.2974C195.206 70.6677 194.714 70.6677 195.288 71.0381Z"
            fill="white" />
        <path
            d="M195.861 70.2973C196.025 70.2232 196.107 70.1491 196.271 70.0751C196.107 70.1491 195.943 70.2232 195.861 70.2973Z"
            fill="white" />
        <path d="M223.244 6.22227L224.064 6.51857L223.572 6.14819L223.244 6.22227Z" fill="white" />
        <path
            d="M257.021 6L257.103 6.51853L257.677 6.22223C257.513 6.14815 257.185 6.14815 257.021 6Z"
            fill="white" />
        <path
            d="M12.6258 61.7787L12.7898 61.7047C12.7898 61.5565 12.6258 61.4084 12.2979 61.1121L12.6258 61.7787Z"
            fill="white" />
        <path d="M4.83789 51.6303L4.91987 51.8525L5.08384 51.334L4.83789 51.6303Z" fill="white" />
        <path
            d="M0.574219 42.2969C0.656203 42.6672 0.820172 43.1117 0.902157 43.5561C0.574219 42.6672 1.14811 42.0746 0.574219 42.2969Z"
            fill="white" />
    </mask>
    <g mask="url(#mask0_5_711)">
        <path
            d="M224.884 4.96295C223.244 5.03702 221.604 5.03702 219.965 4.8148C211.602 3.92589 206.273 4.66665 198.895 3.77774C193.894 3.18514 185.941 3.11106 180.94 2.59254C167.167 1.03696 153.475 2.07401 139.62 2.37031C133.225 2.51846 127.158 3.55552 120.764 3.40737C104.531 3.03699 87.9699 5.85185 71.9829 8.37041C48.0434 12.2223 14.7578 20.2965 6.72328 32.9634C6.14939 38.2968 5.98542 38.8154 8.36297 42.7414C11.0685 47.1859 12.8721 47.4822 14.5938 48.2229C22.4643 51.8526 29.8429 57.112 38.6152 58.2231C42.6325 58.7416 46.6497 60.5935 50.6669 61.1861C61.1609 62.7417 71.6549 66.2232 82.067 66.2973C85.8383 66.2973 88.0518 66.0751 91.6592 67.0381C94.8565 67.927 97.972 66.8899 101.169 67.7047C103.793 68.3714 106.58 67.5566 109.286 67.5566C113.631 67.5566 120.19 69.5566 124.535 69.7788C136.833 70.2974 139.948 71.0381 149.458 70.0011C160.526 68.8159 172.25 69.3344 183.236 68.1492C188.647 67.5566 193.976 67.0381 199.387 66.4455C213.734 64.8899 228.491 63.2602 241.445 57.5564C243.986 56.4453 247.102 55.1119 249.561 56.3712C250.873 55.7786 252.349 55.6305 253.742 55.1119C259.891 52.8897 266.532 45.9266 268.5 43.8525C270.139 39.7783 269.893 35.482 270.221 30.0745C270.549 24.0003 267.598 18.2224 264.728 12.6668C263.007 9.40747 260.629 7.18521 256.94 5.92593C254.562 5.1111 252.267 4.07404 249.725 3.85182C246.282 3.48144 245.544 4.07404 241.363 4.29627C237.837 4.5185 233.246 3.55552 229.721 4.29627C228.081 4.59257 226.524 4.8148 224.884 4.96295Z"
            stroke="#202020" stroke-width="10.9101" stroke-miterlimit="10"
            stroke-dasharray="545.51 545.51" />
    </g>
</svg>