<svg width="21" height="19" viewBox="0 0 21 19" fill="none" xmlns="http://www.w3.org/2000/svg">
    <path
        d="M11.0699 0.277488C11.1219 0.219488 11.1029 0.0474883 11.1109 0.000488281C11.0189 0.170488 11.0729 0.326488 11.0699 0.277488Z"
        fill="#FBED81" />
    <path d="M10.2808 1.89233L10.2178 2.27533L10.2878 1.99433L10.2808 1.89233Z" fill="#FBED81" />
    <path
        d="M9.96516 2.61195L10.0152 2.64795L9.97816 2.29395C9.81716 2.60595 9.69216 3.11695 9.53516 3.22595C9.76916 3.40595 9.77616 2.72495 9.96516 2.61195Z"
        fill="#FBED81" />
    <path
        d="M8.81578 3.19385C8.8027 3.19714 8.78927 3.19882 8.77578 3.19885C8.74605 3.24704 8.71262 3.29285 8.67578 3.33585C8.79278 3.39285 8.65378 3.58585 8.81578 3.19385Z"
        fill="#FBED81" />
    <path d="M8.77395 3.199C8.64395 3.209 8.86195 3.043 8.77395 3.199V3.199Z" fill="#FBED81" />
    <path
        d="M8.40573 3.94351L8.44073 3.66051C8.36273 3.64451 8.24073 3.81251 8.24073 3.70551C8.16173 3.96151 8.24773 3.96851 8.40573 3.94351Z"
        fill="#FBED81" />
    <path d="M8.49907 4.16477C8.46607 4.15977 8.44107 4.17877 8.47907 4.29777L8.49907 4.16477Z"
        fill="#FBED81" />
    <path
        d="M8.52702 4.04142C8.58902 4.12942 8.54302 4.02042 8.54702 3.87842L8.49902 4.16542C8.55102 4.17442 8.63402 4.25042 8.52702 4.04142Z"
        fill="#FBED81" />
    <path
        d="M8.84432 3.91651C9.02032 3.52751 8.84432 3.38851 8.65332 3.79351C8.76832 3.74251 8.87532 3.64451 8.84432 3.91651Z"
        fill="#FBED81" />
    <path d="M9.68088 3.5888L9.79888 3.5498V3.3418C9.80088 3.4488 9.62188 3.5058 9.68088 3.5888Z"
        fill="#FBED81" />
    <path d="M7.86011 5.15283V5.43183C7.96611 5.24683 7.93611 5.18383 7.86011 5.15283Z"
        fill="#FBED81" />
    <path
        d="M8.73801 4.58582C8.73267 4.41782 8.73267 4.24582 8.73801 4.06982C8.72201 4.26982 8.71201 4.46182 8.70801 4.65082L8.73801 4.58582Z"
        fill="#FBED81" />
    <path d="M8.33681 4.77319L8.1748 5.05219L8.24981 4.95219L8.33681 4.77319Z" fill="#FBED81" />
    <path
        d="M7.74119 5.05016C7.71928 5.06874 7.69296 5.08135 7.66475 5.08678C7.63655 5.09221 7.60742 5.09028 7.58019 5.08116C7.63519 5.13216 7.78019 5.11716 7.86319 5.15316L7.87019 4.96216C7.83719 4.98116 7.79819 5.01116 7.75819 5.03816C7.79619 4.90216 7.61419 4.83816 7.68519 4.74316C7.55209 4.80986 7.44152 4.91418 7.36719 5.04316C7.42291 5.00635 7.4885 4.9873 7.55527 4.98855C7.62205 4.9898 7.68688 5.01129 7.74119 5.05016Z"
        fill="#FBED81" />
    <path
        d="M7.21484 5.22197C7.27203 5.16816 7.32301 5.10812 7.36684 5.04297C7.3035 5.09059 7.25157 5.15174 7.21484 5.22197Z"
        fill="#FBED81" />
    <path
        d="M7.37891 5.84815L7.60191 5.85615L7.64591 5.77415C7.59873 5.76411 7.54983 5.76559 7.50335 5.77848C7.45687 5.79136 7.41418 5.81526 7.37891 5.84815Z"
        fill="#FBED81" />
    <path d="M7.59983 5.85596L7.54883 5.94596H7.55483L7.60683 5.85996L7.59983 5.85596Z"
        fill="#FBED81" />
    <path d="M7.65626 5.75317L7.64526 5.77417C7.66726 5.77517 7.67526 5.77317 7.65626 5.75317Z"
        fill="#FBED81" />
    <path
        d="M8.31471 5C8.31938 5.10517 8.33582 5.20949 8.36371 5.311C8.36855 5.32176 8.37424 5.33213 8.38071 5.342L8.06271 5.573C8.01371 5.555 7.94271 5.546 7.92671 5.466V5.666L7.55371 5.937V5.943L7.93071 5.669V5.769L8.07971 5.576L8.06571 5.571L8.38271 5.341C8.41771 5.394 8.47671 5.414 8.58271 5.36C8.51071 5.2 8.35871 5.281 8.31471 5Z"
        fill="#FBED81" />
    <path d="M7.93513 5.90919V5.77319L7.88013 5.84519L7.93513 5.90919Z" fill="#FBED81" />
    <path
        d="M7.68367 5.52346C7.69167 5.45846 7.72667 5.33646 7.59967 5.36346C7.52631 5.44655 7.42551 5.5005 7.31567 5.51546C7.43709 5.53811 7.56139 5.54081 7.68367 5.52346Z"
        fill="#FBED81" />
    <path d="M8.05023 5.35059L8.03223 5.36459C8.04723 5.37959 8.05723 5.38359 8.05023 5.35059Z"
        fill="#FBED81" />
    <path d="M6.21973 5.66848L6.24273 5.70248V5.66748L6.21973 5.66848Z" fill="#FBED81" />
    <path
        d="M7.7083 5.55337C7.8083 5.57937 7.8503 5.52237 7.8923 5.45337C7.82571 5.48502 7.75503 5.50724 7.6823 5.51937C7.6803 5.54937 7.6813 5.56837 7.7083 5.55337Z"
        fill="#FBED81" />
    <path
        d="M6.9231 5.36066C6.97682 5.39596 7.03414 5.42546 7.0941 5.44866C7.0401 5.39166 6.9321 5.30566 6.9231 5.36066Z"
        fill="#FBED81" />
    <path d="M7.99306 5.31359L8.00506 5.30259C7.97006 5.26359 7.97606 5.28459 7.99306 5.31359Z"
        fill="#FBED81" />
    <path
        d="M7.99356 5.31348C7.95326 5.35475 7.91953 5.40197 7.89355 5.45348C7.94424 5.43122 7.99113 5.40119 8.03255 5.36448C8.0175 5.34915 8.0044 5.33202 7.99356 5.31348Z"
        fill="#FBED81" />
    <path
        d="M6.63821 5.66543L6.71921 5.62943C6.59259 5.58981 6.47873 5.51735 6.38921 5.41943C6.26121 5.53143 6.24221 5.60443 6.24121 5.66843L6.66221 5.63343L6.63821 5.66543Z"
        fill="#FBED81" />
    <path
        d="M7.1007 5.57357C7.0637 5.78657 6.8727 5.90257 7.0297 6.10357C7.2767 6.05357 7.1797 5.90857 7.3157 5.80357C6.9207 5.91257 7.4157 5.67357 7.1077 5.60357C7.17274 5.56474 7.24317 5.53576 7.3167 5.51757C7.24119 5.50414 7.16718 5.48337 7.0957 5.45557L7.1067 5.46657C7.1277 5.48957 7.1357 5.50457 7.1147 5.49257C7.1147 5.49257 7.1087 5.49257 7.1067 5.49757C7.10765 5.52409 7.1053 5.55063 7.0997 5.57657C6.9777 5.55157 7.0737 5.52757 7.1067 5.49757V5.46657L6.7207 5.63557C6.85033 5.64209 6.97987 5.62095 7.1007 5.57357Z"
        fill="#FBED81" />
    <path
        d="M8.84288 5.81429C8.82641 5.81488 8.81022 5.80995 8.79688 5.80029C8.80587 5.83829 8.81588 5.85629 8.84288 5.81429Z"
        fill="#FBED81" />
    <path d="M8.18594 5.85302L8.13794 5.84302C8.13994 5.85202 8.15894 5.85402 8.18594 5.85302Z"
        fill="#FBED81" />
    <path
        d="M8.18579 5.85222C8.34171 5.89081 8.50228 5.9073 8.66279 5.90122C8.65179 5.85922 8.59379 5.79322 8.65679 5.71422C8.74679 5.66922 8.73879 5.76822 8.79779 5.80022C8.77779 5.71922 8.76979 5.52922 8.59779 5.64622L8.60779 5.68822C8.48261 5.77649 8.33773 5.83279 8.18579 5.85222Z"
        fill="#FBED81" />
    <path
        d="M8.0876 5.93896L7.7666 6.08696L7.9666 6.23796L7.9426 6.13796C8.1356 6.14696 8.0756 6.02296 8.0876 5.93896Z"
        fill="#FBED81" />
    <path d="M6.17832 5.35254L6.02832 5.68354L6.16432 5.57354L6.17832 5.35254Z" fill="#FBED81" />
    <path d="M5.725 5.47461L5.625 5.60361L5.735 5.66261L5.725 5.47461Z" fill="#FBED81" />
    <path
        d="M5.23243 13.4208L5.44343 13.4118C5.43436 13.3696 5.43611 13.3259 5.44853 13.2846C5.46095 13.2434 5.48362 13.2059 5.51443 13.1758C5.31643 13.2848 5.02043 13.4028 5.23243 13.4208Z"
        fill="#FBED81" />
    <path
        d="M3.30273 9.16749C3.32364 9.27917 3.37058 9.38435 3.43973 9.47449C3.41373 9.28449 3.45073 9.07249 3.30273 9.16749Z"
        fill="#FBED81" />
    <path
        d="M14.6416 17.2458C14.6683 17.2476 14.695 17.2419 14.7187 17.2294C14.7424 17.2168 14.7621 17.1979 14.7756 17.1748C14.7036 17.1768 14.6536 17.1948 14.6416 17.2458Z"
        fill="#FBED81" />
    <path
        d="M3.69845 9.72612C3.69845 9.69612 3.68845 9.67412 3.68545 9.64512C3.59031 9.60984 3.50567 9.55101 3.43945 9.47412C3.45845 9.61512 3.51045 9.74312 3.69845 9.72612Z"
        fill="#FBED81" />
    <path
        d="M11.9462 1.71871C11.9224 1.66236 11.8849 1.61285 11.8372 1.57471C11.8774 1.61962 11.9139 1.66778 11.9462 1.71871Z"
        fill="#FBED81" />
    <path d="M3.97168 5.82322C3.98268 5.79822 4.06168 5.79622 3.97168 5.82322V5.82322Z"
        fill="#FBED81" />
    <path
        d="M4.12407 5.89993C4.08417 5.87923 4.04134 5.86473 3.99707 5.85693C4.03728 5.8769 4.08 5.89137 4.12407 5.89993Z"
        fill="#FBED81" />
    <path d="M4.09082 5.80721L4.17482 5.81521C4.18082 5.77921 4.16782 5.75621 4.09082 5.80721Z"
        fill="#FBED81" />
    <path
        d="M3.84473 5.8581C3.89495 5.8486 3.9465 5.8486 3.99673 5.8581C3.97673 5.8471 3.96773 5.8361 3.97173 5.8291L3.84473 5.8581Z"
        fill="#FBED81" />
    <path
        d="M19.4505 7.73083C19.5252 7.75256 19.6046 7.75256 19.6793 7.73083L20.4375 7.53105L19.3297 6.65402C18.951 6.35435 18.031 6.43126 17.9101 6.28442C17.7888 6.35086 17.6548 6.3905 17.5169 6.40066C17.379 6.41083 17.2406 6.39129 17.1109 6.34336C17.1758 6.41029 17.1748 6.72194 16.9271 6.64303C17.1119 6.02671 16.5025 6.3024 16.3636 5.81894C16.5025 6.14658 15.6314 5.78797 15.8571 6.25745C15.6573 6.17554 15.8791 6.01972 15.7403 5.84791C15.2018 6.01872 14.6543 5.52826 14.02 5.52027C14.007 5.57021 14.029 5.64313 14.02 5.72005C14.014 5.72005 14.008 5.72005 14.001 5.71106C13.8137 5.01201 13.4931 4.35571 13.0569 3.77818C12.6118 3.10952 12.2687 2.37829 12.039 1.60857C12.1059 1.92622 12.027 1.83332 11.9461 1.71745C11.988 1.83432 11.8941 1.91723 11.8761 2.04109C11.8042 1.77472 11.723 1.51068 11.6324 1.24897C11.5325 1.47172 11.2947 0.757507 11.2488 1.00823L11.3427 1.10812C11.2876 1.34773 11.2876 1.59671 11.3427 1.83632L11.1169 1.37782L8.60541 6.46623L6.91411 6.71195C6.92557 6.71073 6.93621 6.70541 6.94408 6.69697L6.9211 6.59708C6.81421 6.61906 6.75227 6.69697 6.8212 6.72993L6.5215 6.77389C6.67834 6.58909 6.46656 6.01972 6.24778 5.71006C6.25377 5.79197 6.26476 5.86688 6.07395 6.00973C6.16086 6.10063 6.56546 6.18154 6.41661 6.37533C6.15787 6.51118 6.18284 6.34236 6.03599 6.26245C6.16586 6.45324 5.83619 6.61107 5.83619 6.87677L4.17585 7.11851C4.17975 7.10366 4.17977 7.08806 4.17592 7.07319C4.17208 7.05833 4.16448 7.0447 4.15388 7.0336L4.00602 7.09154C3.8352 6.90874 4.25378 6.76789 4.04598 6.70097C4.2318 6.52716 4.4296 6.26844 4.73629 6.34136L4.83619 6.62205C4.823 6.59771 4.80436 6.57674 4.78173 6.56078C4.7591 6.54483 4.73308 6.53431 4.70572 6.53006C4.67836 6.5258 4.65038 6.52792 4.62397 6.53626C4.59757 6.54459 4.57344 6.55891 4.55348 6.5781C4.65338 6.43226 5.05297 6.90374 5.13289 6.50718L4.90013 6.33737C5.08594 6.16156 5.29973 5.81894 5.56846 5.87288C5.40962 5.60517 5.51351 5.91383 5.28274 5.60717C5.50152 5.99874 4.62241 5.68608 4.94009 6.08365C4.69633 5.72404 4.59144 5.96677 4.29873 5.6731C4.31971 5.76699 4.41162 5.84191 4.18884 5.82693C4.18107 5.85858 4.16932 5.88912 4.15388 5.91783H4.13789L4.15188 5.92782C4.14389 5.9438 4.14389 5.9458 4.15188 5.92782C4.20667 5.95773 4.252 6.00236 4.28275 6.05668C4.20682 6.29042 3.86217 6.33337 3.76327 6.46423C3.6284 6.43726 3.80123 6.34736 3.71631 6.25546L3.56746 6.45024C3.51951 6.24247 3.17586 6.15057 3.45957 5.98076L3.18685 6.01073C3.06812 5.94444 2.93038 5.92048 2.79624 5.9428L0.0090332 6.55812L2.039 8.27224C2.07742 8.30602 2.12385 8.3294 2.17386 8.34016C2.2348 8.46403 2.57346 8.3991 2.37366 8.44005L2.77326 8.64583L2.7383 8.68678C3.02401 9.00243 3.61142 9.04439 3.69034 9.65871C3.86474 9.715 4.01368 9.83103 4.11092 9.98635L4.01102 10.1512C4.18684 10.2331 4.27675 10.6686 4.46756 10.5857C4.26776 11.0801 5.03 11.2849 5.19983 11.5736L5.37665 11.4098C5.48802 11.5218 5.6182 11.6135 5.76126 11.6805C5.60642 12.0441 6.05397 12.5286 5.71031 12.8132C5.73581 12.8515 5.74548 12.8982 5.73728 12.9435C5.72908 12.9887 5.70366 13.0291 5.66636 13.056C5.66688 13.0465 5.66443 13.0371 5.65937 13.029C5.65466 13.0423 5.65132 13.056 5.64938 13.07C5.60642 13.1079 5.55647 13.1459 5.51351 13.1898C5.56324 13.1644 5.60819 13.1307 5.64638 13.0899C5.63744 13.1987 5.64758 13.3083 5.67635 13.4136L5.44258 13.4236V13.4515C5.34268 13.5514 5.53349 13.5604 5.71431 13.5295C5.74041 13.5937 5.7776 13.6529 5.8242 13.7043C5.44458 13.7342 5.89513 14.0269 5.48554 14.0858C5.66136 14.1957 5.5285 14.6852 5.91711 14.817C5.86416 14.817 5.83319 14.842 5.84118 14.7791C5.77325 14.8999 5.70632 15.0198 5.79923 15.1537H5.49953L5.83719 15.4993C5.63739 15.6391 5.51951 15.6921 5.3287 15.4853C5.59843 15.9508 5.39963 15.8379 5.67735 16.2415L5.49453 16.1925C5.48055 16.3174 5.69433 16.5581 5.5285 16.6061C5.47806 16.6348 5.43524 16.6752 5.40362 16.7239L4.85218 17.5231L6.40362 17.4461C6.85217 17.4242 7.58443 16.8108 8.28074 16.7739C7.89912 16.3484 8.69232 16.8378 8.5185 16.4442C8.6184 16.5441 8.74028 16.5601 8.68933 16.7149C8.95506 16.4303 9.27474 16.642 9.33168 16.2035C9.43158 16.3034 9.35166 16.4093 9.42059 16.4612C9.43358 16.4223 9.47054 16.3054 9.54147 16.3613C9.6124 16.4173 9.54147 16.4842 9.51949 16.5611C9.84217 16.3663 9.68733 15.9917 9.53548 15.6431C9.78823 15.713 9.86015 15.6431 9.86615 15.3624C9.98303 15.4413 10.1409 15.5043 9.95406 15.6531C10.0789 15.6082 10.7533 15.4404 10.6194 15.1657C10.6913 15.2146 10.7922 15.0997 10.8062 15.0528C10.9496 14.9969 11.09 14.9335 11.2268 14.863C11.5095 15.2126 11.4556 14.822 11.7622 15.3035L11.8432 15.0877C12.1149 14.6772 12.1229 15.5612 12.4805 15.5382L12.4436 15.3714C12.6693 15.3015 12.5435 16.1795 12.6673 16.3114C12.6803 16.3663 12.5844 16.3454 12.5245 16.3493C12.7792 16.8098 12.7133 16.1116 13.036 16.2035C13.015 16.3743 12.7762 16.5302 12.958 16.659C12.995 16.8248 13.7682 16.4932 13.8911 16.9077C13.8911 16.7669 13.8911 16.626 14.0679 16.6151C14.2947 16.685 14.4086 17.3233 14.7772 17.0756C14.7871 17.1107 14.7843 17.1482 14.7692 17.1814C14.974 17.1744 15.3606 17.3023 15.5544 17.1645C15.4815 17.4202 15.5834 17.5261 15.7403 17.577L17.4595 18.1314L16.948 16.7C16.8362 16.3863 16.4066 16.0307 16.8861 15.9508L16.7552 15.4164H16.8312C16.8335 15.2951 16.7955 15.1764 16.7232 15.079C16.6509 14.9816 16.5483 14.9109 16.4316 14.878C16.4665 14.7891 16.5434 14.837 16.5824 14.837C16.6404 14.3076 16.6014 14.2616 16.1718 13.899L16.3966 13.8151C16.2418 13.7232 16.6354 13.022 16.2797 12.5735C16.3209 12.5715 16.3614 12.5846 16.3936 12.6105C16.0579 12.145 16.6753 11.3299 16.1229 11.1441C16.2487 11.0502 16.3686 10.9443 16.4675 11.0542C17.1329 10.3749 17.966 9.90544 18.6194 9.29811L18.3037 9.1213L18.5394 8.92152C18.6543 8.92152 18.8082 9.03939 18.6393 9.18423C18.8601 9.24417 18.7902 8.80665 18.7392 8.74771C19.1478 8.54793 18.9011 9.15627 19.002 9.06936L19.1129 8.92452H19.0549C19.0609 8.72474 18.965 8.60387 19.1668 8.42507C19.3366 8.35714 19.3786 8.51897 19.4355 8.48201C19.4525 8.49999 19.4765 8.49299 19.5155 8.41808L19.8152 8.16635L19.5155 8.07845C19.5534 7.85669 19.7972 7.82773 19.4505 7.73083ZM6.20682 12.151L6.37365 12.103L6.24878 11.7754C6.40762 11.8833 6.63738 12.0671 6.87115 12.2668L6.78723 12.7583C6.54244 12.612 6.34187 12.4021 6.20682 12.151ZM6.07795 10.4528C6.0888 10.4166 6.10642 10.3827 6.12989 10.3529L6.36766 10.5857L6.1199 10.8494L6.40062 10.6187L6.63439 10.8454C6.50315 10.9881 6.35677 11.116 6.19783 11.227L6.15487 11.0931L6.1259 11.1471C6.07715 10.9181 6.06101 10.6834 6.07795 10.4498V10.4528ZM14.016 5.73703C14.0109 5.76102 14.0011 5.78379 13.9872 5.80401C13.9734 5.82423 13.9556 5.84153 13.9351 5.8549L13.7562 5.54823L14.016 5.73703ZM6.48654 6.77289L6.13689 6.82383C6.15609 6.79721 6.18039 6.77468 6.20838 6.75753C6.23637 6.74038 6.26749 6.72897 6.29993 6.72395C6.33237 6.71893 6.36548 6.72041 6.39734 6.72829C6.42921 6.73618 6.45919 6.75032 6.48554 6.76989L6.48654 6.77289ZM6.06496 6.82084V6.83482H6.04098L6.06496 6.82084ZM2.98804 6.16156L2.98205 6.17355C2.81822 6.10462 2.87616 6.13259 2.98705 6.15956L2.98804 6.16156ZM3.37566 8.49299C3.06397 8.32718 3.45158 8.20431 3.36966 8.20431C3.00703 7.7638 2.59444 8.20431 2.38365 7.89865L1.31372 6.33737L2.86117 6.42827C2.91497 6.43293 2.9678 6.44538 3.01801 6.46523C3.26277 6.68798 3.09993 6.96468 3.17286 7.14248C3.11183 7.17569 3.04217 7.18962 2.97306 7.18244L2.80223 7.16446L2.91812 7.35225C3.00303 7.4891 2.99304 7.66291 3.09394 7.75181L3.01302 7.50408C3.1359 7.50408 3.31272 7.58699 3.3327 7.70986C3.33456 7.67015 3.32631 7.63063 3.30872 7.59498L4.23879 8.50099C3.95825 8.59762 3.65289 8.59409 3.37466 8.491L3.37566 8.49299ZM5.13589 9.6687C5.18872 9.61915 5.22734 9.55638 5.24778 9.4869L5.44758 9.67869C5.34323 9.69981 5.23534 9.69571 5.13289 9.6667L5.13589 9.6687ZM6.30072 15.5992L6.26176 15.8289L5.88414 15.5293C6.0196 15.5678 6.15905 15.5905 6.29972 15.5972L6.30072 15.5992ZM9.52849 15.4433C9.46555 15.4204 9.45056 15.3105 9.44557 15.1696C9.43468 15.2024 9.42568 15.2358 9.4186 15.2695C9.38929 15.2626 9.36193 15.2491 9.33858 15.23C9.31522 15.211 9.29647 15.187 9.28373 15.1597L9.44257 15.0758V15.1756L9.48253 15.0568L9.55446 15.0188C9.62772 15.061 9.70345 15.0986 9.78123 15.1317L9.52849 15.4433ZM16.7333 15.6981C16.6893 15.7325 16.6526 15.7752 16.6254 15.8239L16.6114 15.786L16.7333 15.6981ZM15.7343 11.8193L15.7173 11.7884L15.8372 11.3768C15.4455 11.6665 15.6294 11.0602 15.3876 11.0971C15.4875 10.9283 15.9201 10.9403 15.7872 11.1341L15.7303 11.1291C15.7472 11.1659 15.7749 11.1966 15.8096 11.2173C15.8444 11.238 15.8847 11.2477 15.9251 11.245L15.7343 11.8193ZM19.3237 8.3941C19.3766 8.24926 19.3906 8.32018 19.4096 8.3941H19.3237Z"
        fill="#FBED81" />
    <path
        d="M4.9117 5.58643L4.7207 5.67543C4.75414 5.66768 4.78894 5.66809 4.82218 5.67662C4.85543 5.68514 4.88613 5.70154 4.9117 5.72443C4.8997 5.66843 4.8497 5.59943 4.9117 5.58643Z"
        fill="#FBED81" />
    <path
        d="M5.47605 6.36666C5.47605 6.09366 5.34205 6.20266 5.20605 6.31266C5.25005 6.50166 5.36605 6.41866 5.50105 6.36266C5.49301 6.36542 5.48456 6.36677 5.47605 6.36666Z"
        fill="#FBED81" />
    <path
        d="M5.66147 6.32855C5.66147 6.21955 5.60547 6.31355 5.53247 6.35155C5.57341 6.33501 5.61734 6.32718 5.66147 6.32855Z"
        fill="#FBED81" />
    <path
        d="M3.69077 6.0282C3.76477 6.0672 3.69677 5.7782 3.74577 5.8502C3.78477 5.5962 3.34577 6.2092 3.69077 6.0282Z"
        fill="#FBED81" />
    <path d="M5.41139 6.92627L5.32639 6.69727L5.27539 6.89727L5.41139 6.92627Z" fill="#FBED81" />
    <path
        d="M4.28041 6.91293L4.51441 6.94593C4.50541 6.90693 4.53041 6.87993 4.56341 6.85693C4.42341 6.86393 4.26441 6.84393 4.28041 6.91293Z"
        fill="#FBED81" />
    <path
        d="M4.56152 6.85799C4.62629 6.86 4.68921 6.83627 4.73652 6.79199C4.67466 6.80317 4.61536 6.82554 4.56152 6.85799Z"
        fill="#FBED81" />
    <path
        d="M3.81133 8.1615C3.72933 8.1615 3.64133 8.11951 3.61133 8.20251L3.83633 8.3265C3.91333 8.2855 3.89933 8.2025 3.81133 8.1615Z"
        fill="#FBED81" />
    <path d="M11.4402 0.680203L11.3252 0.408203L11.3932 0.681203L11.4402 0.680203Z" fill="#FBED81" />
    <path
        d="M11.2013 0.712281L11.1813 0.363281L11.1113 0.541281C11.16 0.586316 11.1918 0.646668 11.2013 0.712281Z"
        fill="#FBED81" />
</svg>