<svg width="55" height="58" viewBox="0 0 55 58" fill="none" xmlns="http://www.w3.org/2000/svg">
<g clip-path="url(#clip0_5_3298)">
<path d="M54.2781 28.903C54.2321 28.885 54.2131 28.881 54.2101 28.884C54.2071 28.887 54.2551 28.919 54.2551 28.915C54.3191 28.9468 54.3861 28.9723 54.4551 28.991C54.4703 28.9923 54.4854 28.995 54.5001 28.999C54.3961 28.955 54.3241 28.921 54.2781 28.903Z" fill="#1D1D1B"/>
<path d="M50.1184 28.2968L49.5254 28.2568L50.0464 28.3038L50.1184 28.2968Z" fill="#1D1D1B"/>
<path d="M48.4361 28.0798L48.7431 28.0688C47.9371 27.9598 46.8881 27.8218 46.3271 27.6958C46.9873 27.8473 47.6549 27.9644 48.3271 28.0468L48.4361 28.0798Z" fill="#1D1D1B"/>
<path d="M42.9544 27.2048L42.8744 27.1798C42.7954 27.1638 42.6874 27.1378 42.5044 27.0918C42.6174 27.1468 42.0784 27.0198 42.9544 27.2048Z" fill="#1D1D1B"/>
<path d="M42.898 27.183C42.651 27.105 43.282 27.266 42.898 27.183V27.183Z" fill="#1D1D1B"/>
<path d="M40.8389 26.721L41.3389 26.836C41.2389 26.791 40.7979 26.664 40.9659 26.699C40.4579 26.565 40.5579 26.608 40.8389 26.721Z" fill="#1D1D1B"/>
<path d="M40.2334 26.625L40.4934 26.693C40.4102 26.6587 40.3227 26.6358 40.2334 26.625Z" fill="#1D1D1B"/>
<path d="M41.1409 26.834C40.9559 26.79 40.7709 26.748 40.5879 26.698C40.6623 26.7472 40.7508 26.7708 40.8399 26.765C40.7889 26.773 40.9029 26.784 41.1409 26.834Z" fill="#1D1D1B"/>
<path d="M41.7853 27.0308C41.9985 27.102 42.22 27.1457 42.4443 27.1608C42.4113 27.1398 42.1363 27.0688 41.6553 26.9468C41.9333 27.0338 42.2943 27.1368 41.7853 27.0308Z" fill="#1D1D1B"/>
<path d="M46.8416 27.8539C46.6726 27.8379 46.1026 27.6999 46.1226 27.7259L46.5036 27.8189L46.8416 27.8539Z" fill="#1D1D1B"/>
<path d="M37.2987 25.476C37.2637 25.476 37.4327 25.592 37.4607 25.623L37.8107 25.769C37.6322 25.6857 37.4609 25.5877 37.2987 25.476Z" fill="#1D1D1B"/>
<path d="M37.3881 25.616C37.2154 25.54 37.0434 25.4613 36.8721 25.38C37.3211 25.619 37.4091 25.645 37.3881 25.616Z" fill="#1D1D1B"/>
<path d="M41.1066 26.892C40.7406 26.81 40.3776 26.721 40.0156 26.621L40.1876 26.677C40.4936 26.753 40.7996 26.827 41.1066 26.892Z" fill="#1D1D1B"/>
<path d="M35.3618 24.413C35.1978 24.318 35.0428 24.213 34.8848 24.107L35.0848 24.249C35.1758 24.308 35.2708 24.359 35.3618 24.413Z" fill="#1D1D1B"/>
<path d="M33.7767 23.204C33.9577 23.354 33.5927 22.938 33.7767 23.104C33.6437 22.967 33.5267 22.833 33.4107 22.714C33.2947 22.595 33.1937 22.475 33.0977 22.362C33.1977 22.485 33.2977 22.609 33.4067 22.75C33.5157 22.891 33.6317 23.041 33.7767 23.204Z" fill="#1D1D1B"/>
<path d="M32.6738 21.936C32.7628 22.066 32.8738 22.188 32.9858 22.326C32.8848 22.192 32.7748 22.068 32.6738 21.936Z" fill="#1D1D1B"/>
<path d="M35.8 24.828C35.6947 24.7229 35.581 24.6266 35.46 24.54C35.511 24.596 35.56 24.651 35.616 24.703L35.8 24.828Z" fill="#1D1D1B"/>
<path d="M35.5846 24.702L35.5786 24.696C35.4116 24.58 35.2926 24.488 35.2246 24.437C35.2866 24.483 35.3956 24.569 35.5846 24.702Z" fill="#1D1D1B"/>
<path d="M35.8281 24.8389C35.8404 24.8531 35.8563 24.8638 35.8741 24.8699L35.8281 24.8389Z" fill="#1D1D1B"/>
<path d="M38.3582 26.0862L37.8302 25.8992C37.7062 25.8532 37.6911 25.8712 37.9951 26.0232C38.2281 26.0922 37.8802 25.9202 38.3582 26.0862Z" fill="#1D1D1B"/>
<path d="M36.7732 25.385C36.5812 25.285 36.3862 25.193 36.1992 25.085C36.3662 25.196 36.5412 25.296 36.7162 25.398C36.7102 25.382 36.6192 25.314 36.7732 25.385Z" fill="#1D1D1B"/>
<path d="M36.1056 25.0708L35.9176 24.9498L35.8496 24.9238C35.9316 24.9768 36.0206 25.0218 36.1056 25.0708Z" fill="#1D1D1B"/>
<path d="M33.3007 22.805C33.2117 22.711 33.1257 22.605 33.0347 22.496C32.9437 22.387 32.8597 22.26 32.7637 22.131C32.9526 22.4198 33.1601 22.696 33.3847 22.958C33.4267 22.986 33.5397 23.082 33.3007 22.805Z" fill="#1D1D1B"/>
<path d="M34.3526 23.8099C34.3386 23.7989 34.3216 23.7839 34.3096 23.7729C34.3306 23.8039 34.3576 23.8229 34.3526 23.8099Z" fill="#1D1D1B"/>
<path d="M30.9795 19.1118L30.9905 19.1618L31.0025 19.1708L30.9795 19.1118Z" fill="#1D1D1B"/>
<path d="M33.5072 23.049C33.5728 23.1337 33.6443 23.2135 33.7212 23.288C33.7842 23.351 33.8402 23.402 33.8952 23.451C33.7612 23.313 33.6152 23.169 33.4752 23C33.4572 22.987 33.4522 22.987 33.5072 23.049Z" fill="#1D1D1B"/>
<path d="M32.2996 21.5479C32.2436 21.4279 32.1246 21.1889 32.0996 21.1479C32.1486 21.2739 32.2246 21.4049 32.2996 21.5479Z" fill="#1D1D1B"/>
<path d="M34.2432 23.7021L34.2722 23.7271C34.2172 23.6621 34.2222 23.6731 34.2432 23.7021Z" fill="#1D1D1B"/>
<path d="M34.2268 23.696C34.1268 23.608 34.0448 23.544 33.9658 23.476C34.0788 23.585 34.1878 23.681 34.2808 23.765C34.2608 23.736 34.2408 23.715 34.2268 23.696Z" fill="#1D1D1B"/>
<path d="M31.4885 20.2442C31.5225 20.3182 31.5605 20.3912 31.5985 20.4632C31.5365 20.3372 31.4985 20.2242 31.4485 20.1022C31.3985 19.9802 31.3535 19.8452 31.2995 19.6682C31.2347 19.5057 31.1561 19.3492 31.0645 19.2002C31.2025 19.5802 31.3645 19.9502 31.5295 20.3172L31.4885 20.2442Z" fill="#1D1D1B"/>
<path d="M31.9661 21.2078C32.1174 21.4829 32.2963 21.7419 32.5001 21.9808C32.3391 21.7388 32.2711 21.6338 32.2561 21.6008C32.2411 21.5678 32.2701 21.6108 32.3061 21.6618C32.332 21.7004 32.3622 21.736 32.3961 21.7678C32.3614 21.6845 32.3192 21.6045 32.2701 21.5288C32.3301 21.6288 32.3911 21.7148 32.4491 21.8008C32.5071 21.8868 32.5611 21.9708 32.6171 22.0488C32.5591 21.9618 32.5091 21.8738 32.4561 21.7888C32.4031 21.7038 32.3561 21.6208 32.3101 21.5368C32.3146 21.5445 32.3186 21.5526 32.3221 21.5608C32.3431 21.6068 32.3481 21.6228 32.3221 21.5728L32.3091 21.5528C32.2939 21.5426 32.2804 21.5301 32.2691 21.5158C32.1051 21.2228 32.2511 21.4648 32.3091 21.5528C32.3091 21.5528 32.3191 21.5608 32.3221 21.5608C32.2221 21.3968 32.1161 21.2348 32.0221 21.0618C31.9751 20.9778 31.9221 20.8948 31.8801 20.8088L31.7451 20.5508C31.8992 20.8835 32.0742 21.2052 32.2691 21.5158C32.1271 21.3788 31.8311 20.8668 31.9661 21.2078Z" fill="#1D1D1B"/>
<path d="M37.2257 25.833C37.1957 25.813 37.1987 25.811 37.1967 25.807C37.1267 25.776 37.0997 25.766 37.2257 25.833Z" fill="#1D1D1B"/>
<path d="M36.2239 25.199L36.2009 25.173C36.1829 25.165 36.1949 25.176 36.2239 25.199Z" fill="#1D1D1B"/>
<path d="M37.264 25.771C37.238 25.761 37.212 25.75 37.187 25.739C36.9037 25.5861 36.632 25.4126 36.374 25.22C36.5031 25.35 36.6444 25.4672 36.796 25.57C36.9333 25.622 37.0669 25.6832 37.196 25.753C37.408 25.87 37.186 25.772 37.196 25.789C37.342 25.853 37.729 26.013 37.264 25.771Z" fill="#1D1D1B"/>
<path d="M33.9125 23.6678C33.9441 23.6981 33.9775 23.7265 34.0125 23.7528C34.0525 23.7808 34.0515 23.7638 34.0815 23.7818C33.9635 23.6708 33.8425 23.5628 33.7305 23.4448L33.5595 23.2708C33.5035 23.2118 33.4515 23.1498 33.3965 23.0898C33.4465 23.1558 33.4965 23.2248 33.5445 23.2898L33.7015 23.4838V23.4498L33.8225 23.5808L33.9125 23.6678Z" fill="#1D1D1B"/>
<path d="M31.0381 19.082C30.9511 18.916 30.8701 18.746 30.7881 18.575C30.8431 18.709 30.8881 18.845 30.9501 18.975L31.0381 19.082Z" fill="#1D1D1B"/>
<path d="M30.5242 17.7388L30.4092 17.4238L30.4742 17.7048L30.5242 17.7388Z" fill="#1D1D1B"/>
<path d="M25.0172 15.9489C24.9662 16.1039 24.9382 16.2039 24.9662 16.1849L25.0372 16.0699C25.0972 15.7839 25.1482 15.5699 25.1992 15.3809L25.0172 15.9489Z" fill="#1D1D1B"/>
<path d="M28.0935 2.8418C28.0818 3.14499 28.0982 3.44862 28.1425 3.7488C28.1295 3.3848 28.1125 3.0918 28.0935 2.8418Z" fill="#1D1D1B"/>
<path d="M16.2928 31.825C16.4578 31.882 16.5308 31.901 16.5298 31.89C16.3598 31.832 16.2618 31.798 16.2928 31.825Z" fill="#1D1D1B"/>
<path d="M27.9971 1.795V1.988C28.0241 2.253 28.0531 2.519 28.0761 2.843C28.0729 2.4923 28.0465 2.1422 27.9971 1.795Z" fill="#1D1D1B"/>
<path d="M50.2539 29.717C50.3429 29.708 50.4909 29.688 50.7449 29.649C50.6299 29.667 50.4349 29.692 50.2539 29.717Z" fill="#1D1D1B"/>
<path d="M29.2314 12.3911C29.2414 12.4331 29.2754 12.6581 29.2314 12.3911V12.3911Z" fill="#1D1D1B"/>
<path d="M29.2822 13.7958C29.2765 13.7601 29.2632 13.726 29.2432 13.6958C29.2612 13.727 29.2743 13.7607 29.2822 13.7958Z" fill="#1D1D1B"/>
<path d="M29.2793 12.804C29.2683 12.704 29.2543 12.587 29.2373 12.46C29.2423 12.516 29.2553 12.62 29.2793 12.804Z" fill="#1D1D1B"/>
<path d="M29.2998 12.763L29.3328 12.997C29.3458 13.029 29.3448 12.999 29.2998 12.763Z" fill="#1D1D1B"/>
<path d="M29.225 12.371C29.213 12.293 29.196 12.182 29.168 11.998C29.191 12.151 29.21 12.298 29.228 12.432C29.222 12.38 29.221 12.358 29.225 12.371Z" fill="#1D1D1B"/>
<path d="M30.5059 40.041C30.5059 40.031 30.5179 40.017 30.5269 39.998L30.5059 40.041Z" fill="#1D1D1B"/>
<path d="M52.7849 29.293C53.1999 29.206 52.8259 29.193 52.4249 29.186C53.0075 29.1247 53.6042 29.0637 54.2149 29.003C40.7539 27.656 34.6279 26.46 31.4359 20.633C31.4679 20.689 31.4989 20.748 31.5359 20.799L31.5469 20.766C31.3659 20.449 31.2329 20.22 31.3469 20.466C31.1969 20.1847 31.0545 19.893 30.9199 19.591C31.0569 19.842 31.1199 19.871 31.1279 19.772C31.1185 19.5658 31.0849 19.3614 31.0279 19.163C31.0149 19.157 31.0029 19.156 30.9619 19.082C30.9409 19.045 30.9109 18.991 30.8689 18.908C30.8269 18.825 30.7829 18.708 30.7149 18.564C30.7579 18.787 31.2149 19.912 30.9589 19.423C30.8679 19.223 30.8069 19.086 30.7589 18.982C30.728 18.9055 30.7013 18.8274 30.6789 18.748C30.6439 18.632 30.6349 18.566 30.5729 18.367C30.6059 18.542 30.4919 18.291 30.3729 18.019C30.3091 17.8516 30.2305 17.6903 30.1379 17.537C29.6245 15.8762 29.2285 14.1813 28.9529 12.465C28.9649 12.496 28.9719 12.491 28.9679 12.425L28.8809 11.95C28.8589 11.506 29.0989 12.837 29.0229 12.231C29.1659 12.864 29.3469 13.569 29.5099 14.464L29.4739 14.644C29.4459 14.3609 29.3947 14.0807 29.3209 13.806C29.3709 13.99 29.4209 14.335 29.4789 14.685C29.5191 14.991 29.5967 15.2909 29.7099 15.578C29.6719 15.368 29.6439 15.157 29.6099 14.947C29.7879 15.575 30.0569 16.337 30.2719 17.113C30.2389 16.745 30.2049 16.938 30.1339 16.368C30.1409 16.493 30.1119 16.431 30.0649 16.281C30.0179 16.131 29.9519 15.891 29.8979 15.659C29.7779 15.196 29.6899 14.766 29.7219 15.164C29.6996 14.8901 29.6619 14.6176 29.6089 14.348C29.5479 14.0342 29.5035 13.7175 29.4759 13.399C29.4589 13.425 29.4759 13.673 29.3689 13.007C29.3569 12.978 29.3359 12.907 29.3219 12.864C29.3219 12.843 29.3219 12.836 29.3159 12.819V12.856C29.3079 12.828 29.3049 12.825 29.3159 12.87C29.3312 12.984 29.3392 13.0989 29.3399 13.214C29.2577 12.9322 29.1909 12.6461 29.1399 12.357C29.0729 12.007 29.0059 11.657 28.9659 11.474C28.9159 11.074 29.0179 11.637 29.0099 11.417L28.8849 10.885C28.9299 10.825 28.8219 9.819 28.9849 10.751L28.8679 9.909C28.8299 9.409 28.7559 8.725 28.6819 8.309C28.6459 7.909 28.5059 7.309 28.5869 7.651L28.4069 6.328L28.4189 6.315C28.2859 5.005 28.0599 3.624 28.0189 2.115C27.9659 1.674 27.9089 1.215 27.8609 0.478L27.8939 0.331C27.8829 0.231 27.8739 0.124 27.8639 0H27.2099C27.1549 0.593 27.0489 1.411 27.0699 1.617C26.8959 2.217 26.7959 4.367 26.6699 5.361L26.7259 5.403C26.6529 6.088 26.6009 6.747 26.5259 7.603L26.5859 7.556C26.5449 8.293 26.3249 9.436 26.1649 10.59C26.1741 10.3951 26.2006 10.2013 26.2439 10.011C25.9359 11.376 25.8939 12.93 25.5489 14.155C25.5137 14.4074 25.4595 14.6568 25.3869 14.901C25.3939 14.872 25.3979 14.847 25.4019 14.825C25.3949 14.856 25.3829 14.903 25.3709 14.951L25.2459 15.372C25.2889 15.246 25.3259 15.125 25.3559 15.019C25.3029 15.256 25.2249 15.619 25.1479 15.968L25.0529 16.105C25.0449 16.133 25.0389 16.156 25.0319 16.185C24.9189 16.523 24.9829 16.466 25.0739 16.292C25.0339 16.469 25.0049 16.633 24.9799 16.76C24.8119 17.016 24.7369 17.678 24.5059 18.023C24.481 18.1501 24.4476 18.2754 24.4059 18.398C24.3449 18.572 24.2729 18.786 24.1939 18.998C24.0619 19.356 23.9189 19.704 23.8819 19.867C23.7919 20.047 23.6919 20.221 23.6029 20.396C23.5139 20.571 23.4169 20.741 23.3399 20.907L23.1849 21.025C23.0619 21.294 22.9229 21.557 22.7799 21.82C22.67 21.9609 22.5486 22.0924 22.4169 22.213C22.3629 22.247 22.4039 22.179 22.5389 21.946C22.3298 22.2724 22.0983 22.5838 21.8459 22.878C21.6799 23.058 21.5459 23.227 21.1459 23.638L21.1549 23.572C20.8448 23.8818 20.5063 24.1617 20.1439 24.408C19.9439 24.528 19.5969 24.741 19.1499 24.997C18.6178 25.2909 18.0704 25.5559 17.5099 25.791C16.8563 26.064 16.1887 26.302 15.5099 26.504C14.8229 26.709 14.1389 26.873 13.5319 26.998C13.7839 27.003 13.4989 27.055 13.1419 27.118C12.8608 27.1451 12.5843 27.2076 12.3189 27.304C12.1699 27.304 11.8259 27.354 12.2189 27.252C10.9819 27.524 10.3339 27.552 9.48186 27.767C9.33186 27.761 9.74286 27.683 9.60986 27.686C9.43633 27.7288 9.25984 27.7586 9.08186 27.775C8.94986 27.775 9.26186 27.725 9.45786 27.68C8.17286 27.88 8.05786 27.98 7.97686 28.075C7.48668 28.0999 6.99989 28.1705 6.52286 28.286C6.29086 28.286 5.90486 28.306 6.70886 28.197L5.14686 28.372C4.72635 28.4024 4.30859 28.4633 3.89686 28.554C3.75186 28.554 3.26186 28.617 3.14286 28.638C2.12286 28.738 2.03286 28.745 1.03186 28.852L1.31086 28.835C1.24227 28.8564 1.17248 28.8738 1.10186 28.887L0.893859 28.856V28.919H0.863859L0.00585938 29.019L0.863859 29.095H0.893859V29.159L1.27186 29.139C1.49086 29.166 1.74086 29.199 2.04786 29.227L2.02486 29.233C3.86686 29.485 2.82486 29.286 4.64286 29.554L4.55086 29.493C4.73686 29.403 6.15686 29.74 7.21786 29.837L6.84086 29.759C7.42486 29.796 8.42786 30.116 8.99886 30.218C9.12386 30.246 8.79886 30.204 8.62186 30.185C9.36886 30.326 9.42186 30.32 9.42186 30.294C9.42186 30.268 9.38786 30.225 9.94986 30.305C10.1499 30.374 9.66686 30.348 10.4169 30.481C10.6019 30.526 11.1519 30.59 11.7799 30.681C12.3966 30.7664 13.007 30.8931 13.6069 31.06C13.3939 30.983 13.1799 30.906 13.6969 31.003C13.8969 31.05 14.1189 31.111 14.3619 31.18C14.6049 31.249 14.8619 31.33 15.1079 31.414L15.8379 31.65C16.0679 31.72 16.2779 31.784 16.4559 31.823C16.5469 31.864 16.5809 31.883 16.5819 31.891C16.7279 31.935 16.9129 32.005 17.1199 32.077C17.3269 32.149 17.5449 32.241 17.7599 32.324C17.9749 32.407 18.1779 32.496 18.3489 32.574C18.5199 32.652 18.6619 32.709 18.7489 32.741C18.9566 32.9119 19.1795 33.0636 19.4149 33.194C19.7309 33.385 20.1009 33.624 20.4459 33.867C21.1309 34.357 21.6829 34.89 21.6069 34.94C22.0157 35.3553 22.3905 35.8028 22.7279 36.278L22.6859 36.25C22.9969 36.707 23.1949 37.023 23.3479 37.264C23.4239 37.385 23.4909 37.486 23.5479 37.577C23.6049 37.668 23.6599 37.751 23.7149 37.834C23.8149 38.066 23.7149 37.906 23.6999 37.891C23.7889 38.071 23.8579 38.234 23.9229 38.381C23.9879 38.528 24.0429 38.658 24.0919 38.781C24.1409 38.904 24.1869 39.01 24.2299 39.113C24.2729 39.216 24.3089 39.313 24.3479 39.407C24.5029 39.783 24.6479 40.129 24.8969 40.756L24.8789 40.903C24.9385 41.072 24.9896 41.2439 25.0319 41.418C25.0939 41.668 25.1729 41.983 25.2479 42.337C25.4069 43.044 25.5789 43.9 25.7529 44.661C25.7254 44.6095 25.7059 44.5543 25.6949 44.497C25.8899 45.422 26.0365 46.3566 26.1339 47.297C26.1767 47.967 26.2927 48.6303 26.4799 49.275L26.6679 50.42C26.5119 48.93 26.7859 50.633 26.7499 50.02C26.8329 50.604 26.8559 51.54 26.7669 50.82V50.706C26.6959 50.579 26.7369 51.042 26.7849 51.533C26.8377 51.8612 26.8581 52.1938 26.8459 52.526C27.0219 54.226 27.1529 55.91 27.2769 57.557C27.2575 57.6937 27.2392 57.8303 27.2219 57.967H27.2329C27.2629 57.822 27.2739 58.022 27.3049 57.94V58.003H27.7629V57.967C27.7799 57.802 27.7939 57.638 27.8109 57.473C27.8339 57.767 27.8399 57.911 27.8369 57.967H27.8479C27.8399 57.791 27.8309 57.615 27.8149 57.439C27.8942 56.593 27.9735 55.758 28.0529 54.934L27.9389 55.244L28.0329 54.286C28.0769 54.036 28.1329 53.953 28.0629 54.637C28.124 54.2498 28.1417 53.8571 28.1159 53.466C28.2829 52.13 28.1639 53.997 28.2069 53.586L28.2559 53.028L28.2339 53.153C28.2227 52.7123 28.2444 52.2714 28.2989 51.834C28.3709 51.316 28.3809 51.572 28.4049 51.368C28.4049 51.368 28.4119 51.352 28.4189 51.305C28.4259 51.258 28.4319 51.178 28.4429 51.055L28.5879 49.855L28.4639 50.33C28.4919 49.793 28.6039 49.197 28.4579 49.746C28.5689 49.346 28.7139 48.222 28.8749 47.146C29.0359 46.07 29.2119 45.029 29.2749 44.783C29.3797 43.9829 29.5353 43.1903 29.7409 42.41C29.6719 42.63 29.5629 42.75 29.7649 41.978C29.8059 42.135 29.9159 41.785 30.0559 41.324C30.1804 40.889 30.3379 40.4641 30.5269 40.053C30.4919 40.111 30.5059 40.043 30.5489 39.906C30.5739 39.824 30.6079 39.719 30.6489 39.606C30.6899 39.493 30.7369 39.365 30.7829 39.242C30.9699 38.751 31.1579 38.302 30.9279 38.701C31.2119 38.093 30.9979 38.682 31.2429 38.234C31.5884 37.4343 32.035 36.6821 32.5719 35.996C33.1804 35.2208 33.8835 34.5247 34.6649 33.924C34.6789 33.891 34.3839 34.079 34.7149 33.791C35.0299 33.599 35.3519 33.419 35.6839 33.257C35.8042 33.1757 35.9204 33.0882 36.0319 32.995C36.2226 32.8599 36.4313 32.7522 36.6519 32.675C36.5519 32.709 36.3909 32.761 36.6369 32.631C38.5904 31.7628 40.6371 31.1216 42.7369 30.72C44.8784 30.2836 47.0443 29.9774 49.2229 29.803C48.6339 29.84 49.0229 29.787 49.4689 29.733C49.1769 29.759 49.4689 29.687 49.4079 29.669C50.0139 29.62 50.6189 29.575 51.2259 29.532C51.5929 29.4567 51.9643 29.4046 52.3379 29.376C52.6865 29.3525 53.0331 29.304 53.3749 29.231C53.2629 29.248 53.1489 29.26 53.0599 29.272L52.7849 29.293ZM30.8849 19.522C30.7335 19.18 30.5889 18.824 30.4509 18.454C30.5689 18.705 30.7429 19.127 30.8849 19.522ZM30.3849 18.262H30.3789C30.3639 18.222 30.3499 18.182 30.3359 18.141L30.3849 18.262ZM28.7499 9.262L28.7439 9.24C28.7089 8.772 28.7199 8.938 28.7509 9.263L28.7499 9.262ZM28.1719 5.298C28.3039 6.341 28.1539 5.756 28.1879 5.937C28.2357 6.53209 28.3246 7.12316 28.4539 7.706C28.5644 8.20641 28.6362 8.71457 28.6689 9.226C28.6919 9.877 28.5479 9.268 28.5209 9.416C28.3879 8.569 28.3979 8.107 28.3299 7.531L28.3819 8.244C28.3108 7.86468 28.2604 7.48179 28.2309 7.097C28.2309 7.164 28.2369 7.264 28.2469 7.392C28.1055 6.12533 27.9685 4.77867 27.8359 3.352C27.9339 3.734 28.0559 4.44 28.1729 5.299L28.1719 5.298ZM27.3909 1.16C27.4059 1.193 27.4349 1.099 27.4539 1.025C27.4292 1.31167 27.4049 1.59533 27.3809 1.876C27.3779 1.647 27.3809 1.385 27.3919 1.161L27.3909 1.16ZM27.0659 4.938C27.0725 4.90032 27.0857 4.86409 27.1049 4.831C27.0709 5.18 27.0359 5.523 27.0049 5.861L26.9109 5.874L26.9899 6.005C26.9539 6.34633 26.9179 6.682 26.8819 7.012C26.8119 7.012 26.7569 6.943 26.7439 6.812C26.7589 6.711 26.9899 5.272 27.0659 4.938ZM26.1249 11.732L26.2249 10.802C26.2309 11.052 26.2309 11.495 26.2149 11.989C26.1282 12.5223 26.0379 13.0347 25.9439 13.526C25.9559 13.07 25.9839 12.526 26.0499 11.958L26.1249 11.732ZM23.8789 19.863C23.8738 19.8847 23.8707 19.9068 23.8699 19.929C23.8539 19.936 23.8059 20.026 23.8799 19.864L23.8789 19.863ZM22.7299 21.897C22.7129 21.962 22.7649 21.954 22.8299 21.94C22.6772 22.1513 22.5192 22.356 22.3559 22.554C22.4859 22.338 22.6139 22.119 22.7309 21.898L22.7299 21.897ZM7.70486 28.145C7.86186 28.134 7.73686 28.176 7.52986 28.231C7.61686 28.214 7.69886 28.197 7.76286 28.183C7.95186 28.167 8.02486 28.17 8.02486 28.183L7.37986 28.27L7.52886 28.231L7.20586 28.293L6.93986 28.327C6.72786 28.335 6.54686 28.339 6.41786 28.346C6.84986 28.284 7.27886 28.214 7.70586 28.147L7.70486 28.145ZM28.3689 51.445C28.3989 51.016 28.4019 51.137 28.4049 51.257L28.3689 51.445Z" fill="#1D1D1B"/>
<path d="M29.8291 15.249L29.8431 15.309C29.8371 15.283 29.8321 15.264 29.8291 15.249Z" fill="#1D1D1B"/>
<path d="M29.7902 15.2339C29.7972 15.2209 29.7902 15.1339 29.8152 15.2239L29.7002 14.7139C29.7612 14.9909 29.7712 15.0929 29.7902 15.2339Z" fill="#1D1D1B"/>
<path d="M29.8174 15.9258C29.842 16.2009 29.9015 16.4717 29.9944 16.7318L29.9744 16.6618C30.0594 16.7648 29.9354 16.3488 29.8174 15.9258Z" fill="#1D1D1B"/>
<path d="M30.0518 16.874C30.0858 16.996 30.1198 17.12 30.1518 17.241C30.1838 17.281 30.1148 17.091 30.0518 16.874Z" fill="#1D1D1B"/>
<path d="M29.1078 11.666C29.1878 11.875 28.8718 10.387 29.0428 11.44C29.0578 11.636 29.1088 11.555 29.1078 11.666Z" fill="#1D1D1B"/>
<path d="M29.7323 16.2719L29.7453 16.1169C29.7133 16.0449 29.6843 15.9729 29.6543 15.9009C29.6783 16.0249 29.7053 16.1479 29.7323 16.2719Z" fill="#1D1D1B"/>
<path d="M29.0508 12.894C29.0798 13.112 29.1108 13.329 29.1448 13.546C29.1697 13.6 29.1852 13.6578 29.1908 13.717C29.1208 13.318 29.0618 12.877 29.0508 12.894Z" fill="#1D1D1B"/>
<path d="M29.3178 14.287C29.2958 14.175 29.2478 13.934 29.2178 13.767C29.2488 13.975 29.2878 14.173 29.3178 14.287Z" fill="#1D1D1B"/>
<path d="M27.993 4.751C28.02 4.921 28.05 5.187 28.056 5.075L27.978 4.36C27.952 4.289 27.958 4.485 27.993 4.751Z" fill="#1D1D1B"/>
<path d="M52.7432 29.4409L53.2892 29.3979L52.9342 29.4059L52.7432 29.4409Z" fill="#1D1D1B"/>
<path d="M53.8809 29.175C53.9512 29.1741 54.0214 29.1681 54.0909 29.157C54.1867 29.0997 54.2871 29.0502 54.3909 29.009C54.3309 29.028 54.2419 29.06 54.1459 29.095C54.0597 29.1284 53.9711 29.1551 53.8809 29.175Z" fill="#1D1D1B"/>
</g>
<defs>
<clipPath id="clip0_5_3298">
<rect width="54.5" height="58" fill="white"/>
</clipPath>
</defs>
</svg>
