<svg width="54" height="5" viewBox="0 0 54 5" fill="none" xmlns="http://www.w3.org/2000/svg">
<g clip-path="url(#clip0_5_3120)">
<path d="M46.1335 3.02559C46.1406 3.03837 46.1449 3.05257 46.1459 3.06718C46.1411 3.06149 46.1375 3.05485 46.1353 3.04769C46.1332 3.04053 46.1325 3.03301 46.1335 3.02559Z" fill="#202020"/>
<path d="M40.0647 3.05934L40.1346 3.08196C40.0839 3.07668 40.0712 3.06912 40.0647 3.05934Z" fill="#202020"/>
<path d="M49.7735 3.0685C49.7735 3.0685 49.7733 3.06251 49.7649 3.05879L50.0215 3.06009L49.7735 3.0685Z" fill="#202020"/>
<path d="M34.4377 2.99532L34.5193 2.99855C34.4921 3.00097 34.4647 2.99989 34.4377 2.99532Z" fill="#202020"/>
<path d="M40.0007 2.82362C39.9688 2.80565 39.9332 2.79489 39.8965 2.79217C39.9479 2.78943 39.9873 2.79509 40.0007 2.82362Z" fill="#202020"/>
<path d="M51.7056 2.41426L51.6047 2.47465C51.6058 2.44563 51.6409 2.42145 51.7056 2.41426Z" fill="#202020"/>
<path d="M52.9639 1.26102C52.9691 1.26011 52.9745 1.25992 52.9799 1.26046C52.98 1.26346 52.9729 1.26271 52.9639 1.26102Z" fill="#202020"/>
<path d="M53.5377 2.09807C53.5183 2.12867 53.497 2.1581 53.4739 2.18619C53.4951 2.14649 53.5087 2.09406 53.5377 2.09807Z" fill="#202020"/>
<path d="M53.4417 2.21267L53.4733 2.17354C53.4602 2.19801 53.4519 2.21831 53.4417 2.21267Z" fill="#202020"/>
<path d="M0.629318 3.21465C0.52717 3.21202 0.426693 3.18887 0.334229 3.14668L0.629318 3.21465Z" fill="#202020"/>
<path d="M25.9772 2.92783L25.9991 2.95208C25.9788 2.94378 25.9755 2.93589 25.9772 2.92783Z" fill="#202020"/>
<path d="M0.479204 2.82295L0.404541 2.83848C0.428214 2.82883 0.453536 2.82357 0.479204 2.82295Z" fill="#202020"/>
<path d="M49.7824 2.30437C49.6771 2.24297 49.4598 2.3033 49.4629 2.24722C49.5747 2.26143 49.7341 2.22304 49.7824 2.30437Z" fill="#202020"/>
<path d="M24.1935 1.38398L24.1233 1.38136C24.1467 1.38014 24.1702 1.38102 24.1935 1.38398Z" fill="#202020"/>
<path d="M0.479492 2.82497L0.565404 2.80707C0.558172 2.81805 0.549921 2.82837 0.540753 2.83789C0.521343 2.82991 0.500565 2.82553 0.479492 2.82497Z" fill="#202020"/>
<path d="M16.6826 3.07074L16.8203 3.08807C16.7737 3.09669 16.7254 3.09061 16.6826 3.07074Z" fill="#202020"/>
<path d="M0.33558 3.1635L0.167236 3.12422C0.224973 3.12958 0.281644 3.14281 0.33558 3.1635Z" fill="#202020"/>
<path d="M11.6467 3.10318C11.6683 3.10245 11.69 3.10172 11.7108 3.109C11.6893 3.11097 11.6675 3.10899 11.6467 3.10318Z" fill="#202020"/>
<path d="M40.3369 2.80624C40.3534 2.80568 40.3748 2.79896 40.3932 2.79533C40.3999 2.8091 40.3961 2.81823 40.3369 2.80624Z" fill="#202020"/>
<path d="M37.0934 1.78462C37.0014 1.78796 36.911 1.76069 36.8372 1.70734C36.9287 1.70722 37.0181 1.73417 37.0934 1.78462Z" fill="#202020"/>
<path d="M36.4788 1.72939L36.5086 1.72334C36.499 1.72687 36.4889 1.7289 36.4788 1.72939Z" fill="#202020"/>
<path d="M40.2378 1.73709C40.2381 1.73907 40.2382 1.74109 40.238 1.74309L40.2378 1.73709Z" fill="#202020"/>
<path d="M39.5002 1.70821C39.4782 1.72053 39.4541 1.72881 39.429 1.73261C39.4507 1.71982 39.475 1.71151 39.5002 1.70821Z" fill="#202020"/>
<path d="M27.6312 1.15758C28.3349 1.18472 29.2463 1.28579 29.9432 1.26618C30.1308 1.3455 30.3334 1.38596 30.538 1.38497L30.5615 1.26623L30.7464 1.30594C30.8224 1.27038 30.6043 1.28277 30.7377 1.23827L30.8074 1.31287C30.8224 1.27038 31.2837 1.28974 30.9734 1.2003L31.695 1.20984C31.8545 1.20443 31.7871 1.30667 31.9635 1.2837C31.9994 1.2495 31.9008 1.25884 31.9147 1.21639C32.4436 1.1365 32.5241 1.45663 33.017 1.40994L32.9752 1.39337C33.0589 1.42652 33.2185 1.42511 33.2202 1.44204C33.1564 1.56115 33.1323 1.37605 32.9812 1.44414C32.993 1.5437 33.1677 1.50179 33.1581 1.57809C33.2733 1.5432 33.3413 1.60187 33.4416 1.60947C33.6135 1.54867 33.8594 1.59531 33.9886 1.51997C34.0941 1.5946 34.2168 1.64295 34.3461 1.66079C34.4762 1.58441 34.3165 1.58482 34.4927 1.55587L34.5206 1.61489C34.6647 1.61001 34.6424 1.59178 34.6373 1.56396C34.7919 1.56472 34.7649 1.6466 34.9585 1.61306L34.8533 1.55365C34.9861 1.57314 35.1207 1.5783 35.2547 1.56904C35.2535 1.53509 35.17 1.53592 35.1116 1.5439C35.2209 1.45923 35.2965 1.58561 35.355 1.57764C35.3384 1.60319 35.1996 1.61189 35.2666 1.67059C35.3693 1.66211 35.4757 1.75446 35.5475 1.68706L35.4423 1.62865C35.6502 1.67858 35.5481 1.70403 35.7886 1.68689C35.776 1.68232 35.7817 1.66813 35.7771 1.65529C35.9263 1.7332 36.1228 1.66957 36.3444 1.66906L36.3026 1.65249C36.392 1.67445 36.4403 1.72779 36.4885 1.72415C36.3619 1.75543 36.3965 1.77325 36.3841 1.82764C36.5518 1.734 36.6377 1.945 36.9109 1.89376C36.9097 1.85982 36.8423 1.81812 36.7662 1.85168C36.6751 1.75481 36.6637 1.66524 36.498 1.61588C36.602 1.64134 36.7221 1.65727 36.6979 1.61511L36.7291 1.70801C36.7921 1.71187 36.8413 1.70421 36.8888 1.70859C36.9147 1.76769 36.7613 1.80187 36.906 1.84295C37.069 1.87641 36.9944 1.75 37.0196 1.79212C37.2437 1.83351 37.1107 1.88899 37.3315 1.86752C37.3095 1.85927 37.2677 1.84269 37.2495 1.85131C37.4049 1.81706 37.6306 1.87638 37.6782 1.76682C37.6556 1.74159 37.6513 1.70775 37.5929 1.71573L37.5935 1.7327C37.4245 1.64747 37.7356 1.75788 37.6835 1.65669C37.6702 1.71611 37.8914 1.70862 37.988 1.70035L37.9564 1.76739C38.2804 1.98031 37.9412 1.63196 38.2619 1.66708C38.4698 1.71801 38.1842 1.6837 38.3087 1.73546C38.4369 1.70059 38.5708 1.68961 38.7032 1.70311C38.76 1.6772 38.8763 1.64427 38.8869 1.56794C39.0097 1.60177 39.2621 1.54324 39.3319 1.61984C39.1196 1.67801 39.1227 1.53397 38.8746 1.62733L38.9423 1.70301C39.1108 1.72092 39.2805 1.72753 39.45 1.72279C39.4257 1.73661 39.4151 1.75596 39.4301 1.77244C39.6077 1.82793 39.7922 1.85968 39.9786 1.86681C40.0112 1.79974 39.8734 1.8074 39.7701 1.79891C39.9239 1.74872 39.9298 1.79949 40.1673 1.78545C40.1807 1.72603 40.0076 1.78487 39.9818 1.72577L40.2434 1.75189C40.2428 1.74792 40.2427 1.74391 40.243 1.73991C40.2795 1.83863 40.4426 1.73315 40.6027 1.7707C40.9823 1.78184 41.0377 1.9179 41.2469 2.00477C41.3037 1.97985 41.3214 1.95526 41.2977 1.92908C41.2034 1.97026 41.2206 1.93169 41.1888 1.90878C41.3171 1.92342 41.4711 1.82025 41.4005 1.77766C41.6078 1.81262 41.326 1.82816 41.4499 1.86295L41.7293 1.86548C41.695 1.91562 41.5963 1.92296 41.7401 1.96507C41.8527 1.97768 41.9662 1.98152 42.0795 1.97656C42.0569 1.95134 42.1314 1.90084 42.0118 1.89989C42.0524 1.88792 42.0952 1.88493 42.1372 1.89111C42.1791 1.8973 42.2191 1.91252 42.2542 1.93566C42.0795 1.97656 42.5385 1.989 42.4072 2.06342L42.5819 2.02251C42.5418 2.02387 42.5384 1.988 42.4779 1.99605C42.5288 1.92036 42.62 2.02222 42.6853 2.03201C42.7467 2.01893 42.9063 2.01752 42.9197 1.98808C42.9555 1.99953 42.9934 2.00293 43.0308 1.99802C43.0681 1.99312 43.1037 1.98005 43.1351 1.9598C43.2161 1.97804 43.1369 2.01071 43.1636 2.0358L43.4419 2.03836C43.4579 1.99584 43.4835 1.87803 43.4427 1.86042C43.5473 1.90385 43.4772 1.98819 43.6369 1.98878C43.5473 1.90285 43.8492 1.93161 43.7187 1.82908C43.8791 1.78003 44.0503 1.77423 44.2138 1.81231C44.3008 1.88133 44.0583 1.84356 44.0648 1.91131C44.4671 1.95066 44.4852 2.13796 44.7832 2.11687L44.7065 2.13246C44.8024 2.14463 44.8941 2.17775 44.9748 2.22933C44.9264 2.14401 45.1896 2.01215 45.4926 2.04187C45.5168 2.08502 45.3211 2.11564 45.3689 2.18399L45.5695 2.20418C45.5848 2.19867 45.5626 2.18343 45.5364 2.17132C45.716 2.20822 45.875 2.07489 45.924 2.17518L46.1104 2.05992L46.037 2.10938C46.0612 2.15154 46.2629 2.1717 46.3037 2.18931C46.3679 2.21241 46.4364 2.22183 46.5047 2.21693C46.573 2.21203 46.6394 2.19293 46.6994 2.16091C46.6624 2.19415 46.5702 2.26524 46.7328 2.28872C46.7351 2.1527 47.0746 2.25215 47.0719 2.17728C47.137 2.18207 47.2552 2.14508 47.2603 2.20088L47.2521 2.1162C47.2636 2.23476 47.5028 2.23965 47.6852 2.26845C47.6485 2.10677 47.8859 2.28964 47.9715 2.14781C48.0022 2.25772 48.295 2.20482 48.3242 2.29879C48.4647 2.31002 48.4538 2.20843 48.4908 2.1752L48.5552 2.21899C48.7177 2.17914 48.8839 2.1551 49.0513 2.14721L49.1941 2.24933L49.2504 2.20844C49.2729 2.23366 49.3942 2.25354 49.3171 2.28614L49.3963 2.28346C49.4001 2.38828 49.5067 2.3167 49.6631 2.36838C49.7007 2.35311 49.6916 2.32743 49.6611 2.31147C49.7395 2.31381 49.7076 2.25892 49.7518 2.22544C49.695 2.25035 50.03 2.42592 49.8149 2.46319C49.799 2.50571 49.9208 2.54157 50.0006 2.52687L50.0509 2.4352L50.1402 2.53913C50.2614 2.55801 50.315 2.50122 50.4137 2.49388C50.3103 2.48339 50.2007 2.30119 50.4557 2.31654C50.3613 2.29704 50.2702 2.26444 50.1854 2.21975C50.2389 2.21793 50.2664 2.21 50.1835 2.16684C50.3847 2.205 50.2495 2.22757 50.4492 2.24879C50.441 2.16411 50.4978 2.1392 50.6732 2.11826L50.5413 2.17471C50.5469 2.18492 50.5554 2.19332 50.5659 2.19886C50.5156 2.20556 50.5017 2.21903 50.4905 2.25039C50.5296 2.24907 50.7192 2.36459 50.7535 2.31445C50.5518 2.43823 51.1018 2.42959 50.9665 2.50714C50.989 2.53237 51.1285 2.54264 51.1435 2.50115C50.9782 2.43178 51.271 2.40887 51.2411 2.34891C51.3028 2.37481 51.1092 2.40735 51.1918 2.44154C51.273 2.44129 51.3524 2.41811 51.4203 2.37483L51.3795 2.35822L51.5328 2.32404C51.558 2.36616 51.3838 2.39205 51.5248 2.41726C51.5623 2.4 51.7034 2.42421 51.699 2.39037C51.632 2.33167 51.6818 2.25502 51.5617 2.2391C51.665 2.24759 51.9746 2.25909 51.8486 2.33733L51.967 2.33332C51.893 2.36881 51.684 2.43086 51.9225 2.44377L51.9219 2.4268L52.088 2.49014L52.1596 2.44574C52.1603 2.4667 52.1848 2.48687 52.2455 2.48481C52.261 2.45929 52.3194 2.44832 52.313 2.41455C52.4934 2.41644 52.465 2.45838 52.4917 2.48247C52.5794 2.48649 52.6065 2.46758 52.5636 2.41906C52.6538 2.40601 52.8106 2.41069 52.8367 2.33584C52.9644 2.33152 52.8254 2.36421 52.9231 2.38889C52.9198 2.29505 52.9869 2.24279 53.0498 2.1577C53.122 2.07448 53.1729 1.97581 53.1981 1.86981C53.3409 1.94194 53.2199 1.81709 53.3482 1.77277C53.3285 1.79942 53.2935 1.74263 53.2615 1.71273C53.2295 1.68283 53.2024 1.67475 53.1922 1.76306C53.1943 1.72674 53.193 1.69032 53.1883 1.65424C53.1389 1.62792 53.1375 1.67395 53.1275 1.71127C53.1175 1.74859 53.0939 1.77838 53.0347 1.7394C53.0331 1.69448 53.0613 1.64655 53.0707 1.59325C53.0809 1.5659 53.0808 1.53592 53.0704 1.50863C53.06 1.48134 53.04 1.45853 53.0138 1.44425C52.9624 1.53195 52.9705 1.35676 52.9109 1.44773C52.9 1.48809 52.9303 1.49905 52.9426 1.52762L52.9148 1.52856C52.8395 1.46914 52.843 1.45103 52.8686 1.41718C52.8942 1.38333 52.9415 1.35374 52.9044 1.29502C52.7689 1.22465 52.7453 1.31241 52.7208 1.34722C52.6615 1.34222 52.6059 1.31723 52.5637 1.27658C52.6492 1.36164 52.7939 1.28977 52.7678 1.22169C52.6383 1.28904 52.4846 1.14132 52.4362 1.08399C52.7552 1.07318 52.6359 1.1352 52.9528 1.12346C52.9669 1.17096 52.9091 1.2249 53.0522 1.28102C53.0089 1.19453 53.0973 1.24351 53.1316 1.25234C53.0643 1.27162 53.1945 1.33917 53.1975 1.39504C53.2672 1.41168 53.2537 1.23721 53.3782 1.37593L53.3242 1.42074L53.267 1.46366C53.3131 1.51308 53.3501 1.39787 53.379 1.54083C53.4116 1.44577 53.5073 1.52848 53.4207 1.32551C53.4713 1.35813 53.5109 1.40449 53.5344 1.45881C53.558 1.51312 53.5646 1.57297 53.5533 1.63088C53.5256 1.72603 53.49 1.81883 53.4468 1.90836C53.4565 1.89004 53.475 1.88942 53.4857 1.87106C53.4551 1.92127 53.4334 1.97605 53.4214 2.03316C53.4262 2.16594 53.504 1.9504 53.5362 1.9873L53.5143 2.09499L53.4778 2.19618C53.478 2.20217 53.4781 2.20417 53.4853 2.20492C53.4468 2.2522 53.4059 2.28857 53.4299 2.32574C53.4891 2.30635 53.5459 2.28063 53.5992 2.24904C53.5428 2.31714 53.4753 2.37582 53.3994 2.42273C53.4572 2.42677 53.3325 2.62491 53.4662 2.50343L53.4286 2.54868C53.4038 2.57451 53.3667 2.60276 53.3286 2.63303C53.2792 2.66951 53.2266 2.70173 53.1714 2.72932L53.192 2.81458C53.0969 2.8348 53.0892 2.82306 53.1822 2.77293C53.08 2.81605 52.9679 2.83226 52.8573 2.81992C52.7397 2.81891 52.6509 2.81292 52.6993 2.89724C52.3974 2.8395 52.3169 2.86721 51.9866 2.82143C52.2378 2.89988 51.6996 2.92011 51.9657 2.95707C51.8094 2.99336 51.7772 2.90149 51.654 2.88567C51.5388 2.92056 51.5893 3.00481 51.7141 3.03757L51.5673 2.99656L51.5679 3.01353L51.4414 2.96284C51.3059 3.00541 51.4115 3.04782 51.2727 3.05552L51.2442 2.97952L51.1488 3.02073C51.1847 2.98753 51.1027 2.96932 51.0024 2.96072L51.003 2.97769L50.8807 2.95884C51.001 3.00874 50.7689 2.97163 50.8224 3.02679C50.7234 3.0268 50.6246 3.01912 50.5269 3.00382L50.5611 2.95368C50.316 2.89901 50.5484 3.03007 50.3484 3.02586L50.3627 2.96739C50.0722 3.0542 49.8775 2.88388 49.6643 2.94407C49.7845 2.96299 49.7519 3.03007 49.7502 3.01313C49.5247 3.00189 49.3012 2.96622 49.0838 2.90676C49.0127 2.99014 48.9948 3.00973 48.7992 3.04434C48.6587 3.03311 48.6378 3.02383 48.5906 2.97245C48.4535 3.00008 48.1988 2.93874 48.1897 3.00102C48.159 2.95008 48.0662 3.0052 47.9925 2.96072L47.9759 2.98528L47.9902 2.92682C47.7443 3.0491 47.584 2.83363 47.3353 2.939L47.3772 2.95658L47.2732 2.92912C47.2566 2.95467 47.2974 2.97228 47.3017 3.00611L46.8232 2.99633L46.9186 2.95612C46.8152 2.94563 46.7523 2.88579 46.6359 2.91772C46.8248 3.01127 46.4772 2.9151 46.4445 2.98217L46.5486 3.00964C46.4091 2.99937 46.4091 2.99937 46.4214 2.93998C46.24 2.91214 46.2932 3.04427 46.128 2.9779L46.2476 2.97985C46.2835 2.94665 46.1992 2.89453 46.1198 2.89322C46.1006 2.90187 46.0437 2.92578 46.1039 2.93574C45.9617 2.90757 45.745 2.9299 45.6833 2.90401C45.6056 2.91963 45.6298 2.96279 45.6706 2.9804C45.3664 2.91674 45.5317 2.98511 45.2265 2.92348L45.2277 2.95742L45.1231 2.91299L44.9709 2.97912L45.0261 2.93726C44.9339 2.91705 44.8393 2.90982 44.745 2.9158L44.7912 2.96721C44.5085 2.92881 44.4609 3.03837 44.1932 2.95848C44.175 2.96709 44.2158 2.9847 44.2377 2.99296C43.9892 2.90142 44.0469 3.07438 43.7979 2.96987C43.813 2.98735 43.7849 3.0073 43.7947 3.02196L43.681 2.98483L43.6835 3.05271L43.5922 2.94985L43.5204 3.01725L43.4769 2.98374C43.3516 3.10893 43.181 3.00676 43.0123 3.09944L43.0432 3.01543C42.6244 2.82971 42.0771 3.08314 41.5697 2.98538L41.5773 3.05309L41.3681 2.96722C41.2545 3.01705 41.4341 3.02695 41.3982 3.06015C41.174 3.01577 41.3069 2.9573 41.0453 2.93018C40.9107 2.97172 41.0904 2.98162 41.1511 3.00755C40.895 2.95412 40.6325 2.93509 40.3711 2.95101C40.3708 2.94203 40.3569 2.9295 40.3702 2.92606C40.1845 2.90675 39.9976 2.90039 39.811 2.90701C39.8121 2.93796 39.8597 2.94435 39.9043 2.95183C39.8356 2.96544 39.7644 2.96131 39.6978 2.93984L39.7649 2.99954C39.6259 3.00424 39.3611 2.94724 39.3295 3.01428C39.3461 2.98873 39.3402 2.93796 39.2237 2.9379C39.1563 3.04014 38.8993 2.88592 38.7085 2.93637C38.731 2.96159 38.8715 2.97083 38.8313 2.97119C38.7382 2.98111 38.6444 2.95996 38.5654 2.91123L38.5906 2.95335L38.145 2.88448C38.0776 2.98672 37.7236 2.85778 37.7532 2.93374C37.5934 2.93316 37.8877 2.8922 37.6861 2.87504C37.632 2.91686 37.5038 2.84923 37.5114 2.91694L37.5323 2.92523L37.3919 2.91699L37.4799 2.98498C37.3587 2.96809 37.2707 2.90011 37.2689 2.85019C37.1538 2.88508 36.9907 2.85062 36.9372 2.9104L36.9801 2.92694C36.6574 2.89389 36.4432 3.09806 36.1906 2.97967C36.1713 2.98832 36.174 3.00522 36.2132 3.0049L36.0132 3.00467L36.0604 3.05505L35.7318 2.97123L35.733 3.00517C35.5148 3.01256 35.174 2.99012 34.8941 2.97361L34.9359 2.99019C34.6309 2.93156 34.6401 3.0162 34.4202 2.97468C34.4259 2.9821 34.4341 2.98745 34.4434 2.98988L34.2371 2.98488L34.2816 3.01835C34.1336 2.9434 33.854 3.1068 33.9467 3.04669C33.862 3.01357 33.7173 2.9725 33.6931 2.93034C33.4734 2.92279 33.639 2.97315 33.5029 2.99975C33.3444 3.00512 33.3164 2.9421 33.101 2.96938L33.1022 3.00333C32.9989 2.99583 32.9393 2.97086 32.7989 2.96363L32.8407 2.9802C32.6124 2.90597 32.5546 3.07485 32.376 2.92497C32.2801 2.95121 32.0979 2.9264 32.1065 2.99507C31.8214 2.94676 31.6001 2.92327 31.3166 2.89189C31.2711 3.00238 31.2555 2.88397 31.0836 2.94576L31.0969 2.88634C30.6967 2.87391 30.236 3.01546 29.795 2.98841L29.7827 3.0478L29.6948 2.98181C29.2197 3.0059 28.6049 3.01873 28.2258 3.01958C28.0629 2.96026 27.8897 2.93218 27.7158 2.9369L27.7367 2.94519C27.3783 2.90079 27.0162 2.89096 26.6558 2.91583C26.6794 2.94102 26.6419 2.95829 26.6837 2.97486C26.5947 2.90891 26.464 2.97031 26.3837 2.97203L26.478 2.92785C26.4266 2.90804 26.3709 2.90136 26.3161 2.90847C26.2613 2.91557 26.2093 2.93622 26.1651 2.96844L25.9959 2.9042C25.9848 2.91058 25.9676 2.91915 25.9659 2.92921L25.9504 2.89875L25.8615 2.97672C25.8196 2.96015 25.5963 2.93973 25.5266 2.86412C25.51 2.88967 25.3531 2.90998 25.4752 2.92484L24.8577 2.94575L24.9536 2.91752C24.9648 2.85817 24.7802 2.82344 24.6852 2.84864C24.8106 2.89637 24.6965 2.93322 24.6425 2.97704C24.5589 2.94488 24.7148 2.92461 24.6703 2.89213C24.5474 2.85004 24.4155 2.83869 24.2868 2.85914L24.3495 2.88301C24.2065 2.86086 24.1464 2.96485 24.0009 2.95979C23.8745 2.91209 23.7813 2.95723 23.8065 2.85442C23.6234 2.83364 23.7369 2.92375 23.6775 2.93376C23.6162 2.91317 23.5511 2.90569 23.4865 2.91185C23.422 2.918 23.3596 2.93764 23.3037 2.96941C23.2024 2.81991 22.812 3.02405 22.7746 2.89837L22.6256 2.96939C22.6184 2.93429 22.5987 2.90274 22.5701 2.88017C22.5414 2.8576 22.5056 2.84544 22.4687 2.84576C22.3546 2.88261 22.3825 2.94164 22.3476 2.97581L22.2689 2.85053C21.6102 2.98479 20.7386 2.90237 20.0174 3.02076C19.6503 2.97639 19.2805 2.95553 18.9105 2.9583L18.9523 2.97387L18.5786 3.01252L18.8495 2.95137C18.7761 2.93189 18.7007 2.92036 18.6246 2.917C18.1414 3.00056 17.6493 3.02462 17.1599 2.98861C16.8292 2.84888 16.9441 3.11986 16.6293 3.01858C16.6565 3.03165 16.6665 3.0523 16.6907 3.06548C16.4 3.03474 16.1115 2.98609 15.8271 2.91981C15.8693 3.06231 15.6066 2.91928 15.6392 2.99414L15.6093 2.93618C15.5343 2.97271 15.3577 2.98869 15.3839 3.02978L15.233 2.95993L15.2218 3.02028C15.0241 3.02697 14.6023 2.98729 14.4965 3.11082C13.8712 3.05142 13.2414 3.05 12.6158 3.10655C12.4844 3.06496 12.3459 3.0486 12.2081 3.05839L12.0603 3.13337C11.9175 3.11521 11.7629 3.02949 11.6317 3.07792C11.6325 3.082 11.6343 3.0858 11.6372 3.08889C11.64 3.09198 11.6437 3.09422 11.6478 3.09536C11.5072 3.11062 11.3648 3.09983 11.2283 3.06359C11.0698 3.06896 10.921 3.11299 10.9666 3.17741C10.9479 3.0601 10.6305 3.20279 10.6305 3.20279L9.32533 3.26999C8.53028 3.31092 7.44806 3.36057 6.30432 3.39032C4.35681 3.52544 2.40005 3.46174 0.46626 3.20025C0.396286 3.14565 0.209704 3.11499 0.277173 3.04273C0.133362 3.02661 0.0743203 3.13257 0.0423897 3.07567C0.235431 3.02815 -0.0247878 2.92702 0.161921 2.84673L0.0389819 2.8379C0.011779 2.79784 0.207362 2.87817 0.173791 2.80434L0.212665 2.91098C0.28222 2.90397 0.347267 2.87428 0.397171 2.82676C0.492336 2.86552 0.557311 3.01025 0.776213 2.93687L0.715275 2.93293C0.896411 2.9268 0.822846 2.85832 0.859249 2.8391L0.819111 2.84046L0.969417 2.77939C0.855515 2.82123 0.658903 2.74093 0.762 2.74244C0.975948 2.70321 0.707395 2.77128 0.866319 2.77789C0.969237 2.7744 0.936457 2.72254 0.930089 2.68877L1.1102 2.68267C1.10219 2.63196 0.990811 2.68671 1.06212 2.63532L1.29144 2.67953C1.32797 2.54935 1.5406 2.73106 1.63913 2.60578C1.47445 2.58237 1.65199 2.56236 1.62376 2.52233L2.02411 2.50877C2.06154 2.48951 1.91979 2.47332 1.97867 2.47733C2.05251 2.43884 2.10428 2.50306 2.14438 2.5007C2.17709 2.46461 2.44284 2.49059 2.42843 2.40512C2.69801 2.33701 2.54754 2.50803 2.79786 2.44858C2.82892 2.39555 2.59163 2.44457 2.70701 2.38669L2.97007 2.39477C2.95458 2.36997 2.93163 2.35036 2.90431 2.3386C2.87699 2.32684 2.8466 2.32348 2.81725 2.32898C3.37922 2.15456 3.95971 2.04236 4.54767 1.99449C4.63704 1.92949 4.48033 1.95579 4.41406 1.91805C4.88726 1.98198 5.0699 1.7599 5.47046 1.75232L5.4795 1.80299C6.0916 1.68903 6.71255 1.62553 7.33569 1.61318L7.26182 1.65066C7.36937 1.687 7.48139 1.70942 7.59499 1.71734C7.60949 1.69086 7.51598 1.61207 7.69992 1.62683C7.66249 1.64609 7.58599 1.66767 7.60949 1.69086C8.45991 1.56389 9.31719 1.48478 10.177 1.45396C11.383 1.46308 12.6868 1.32996 13.8712 1.34182C13.6909 1.34093 13.7726 1.4651 13.9054 1.43361C14.2727 1.21527 14.5513 1.45671 14.9312 1.30491C15.5797 1.26021 16.2308 1.2659 16.8783 1.32191L16.8896 1.26156C16.9844 1.23336 17.0116 1.27442 17.1117 1.27902L17.1111 1.26205C17.3482 1.23603 17.6367 1.29323 17.7727 1.26263L17.7823 1.33028C17.9237 1.33448 17.8546 1.27685 18.0002 1.3139L17.999 1.27996L18.1691 1.34116C18.1504 1.22285 18.5674 1.32767 18.6819 1.27182C18.949 1.31071 19.2193 1.32465 19.4892 1.31344C19.5395 1.25276 19.8795 1.25024 20.0957 1.21793C20.5176 1.22962 21.121 1.24517 21.6579 1.21899L21.6493 1.29524L21.7896 1.29949C21.789 1.28251 21.8062 1.27393 21.7884 1.26554C21.8965 1.17792 22.1118 1.29157 22.2242 1.23678C22.1536 1.30615 22.1216 1.24826 22.0465 1.2498C21.9313 1.28669 22.0422 1.3599 22.1974 1.32165L22.1968 1.30468L22.3013 1.34512C22.3126 1.28577 22.4084 1.25753 22.4207 1.19814C22.8365 1.24854 23.2548 1.27741 23.6737 1.28464C23.6239 1.21836 24.0164 1.30102 23.9195 1.18536C24.2055 1.22864 23.8734 1.27887 24.0041 1.36041C24.0834 1.35772 24.168 1.38984 24.1819 1.34739C24.1438 1.31969 24.2464 1.27724 24.179 1.26652L24.37 1.27505C24.3882 1.26644 24.3464 1.24986 24.3245 1.24261C24.7143 1.30837 25.0141 1.16527 25.3639 1.23438C25.3901 1.27648 25.2252 1.24508 25.2514 1.28817C25.6029 1.37622 25.5579 1.21382 25.8899 1.27554L25.8218 1.21787C25.8695 1.24806 25.9235 1.26765 25.9799 1.27525C26.0362 1.28284 26.0937 1.27825 26.148 1.2618C26.1785 1.1938 25.9997 1.20585 25.9159 1.16971C26.0353 1.16566 26.338 1.18639 26.2464 1.24747C26.3894 1.27061 26.4419 1.20986 26.5185 1.19128C26.5191 1.20825 26.3851 1.23677 26.4687 1.26793C26.7121 1.23717 26.9575 1.22385 27.203 1.22806C27.2024 1.21109 27.2169 1.18561 27.2011 1.17715C27.3886 1.28974 27.3677 1.13752 27.6312 1.15758Z" fill="#202020"/>
<path d="M40.3476 1.73755L40.214 1.74807C40.2133 1.72811 40.2124 1.70415 40.1477 1.68135L40.3476 1.73755Z" fill="#202020"/>
<path d="M35.7771 1.66525C35.7603 1.65818 35.7445 1.64933 35.7297 1.63887C35.7619 1.64378 35.7726 1.65741 35.7771 1.66525Z" fill="#202020"/>
<path d="M34.6626 1.51192C34.7664 1.53439 34.6735 1.55653 34.6196 1.57834C34.6179 1.56041 34.6244 1.5382 34.6626 1.51192Z" fill="#202020"/>
<path d="M38.8411 2.13532C38.8181 2.1261 38.8042 2.11358 38.8087 2.09444C38.8392 2.1114 38.8458 2.12416 38.8411 2.13532Z" fill="#202020"/>
<path d="M48.6975 2.27515L48.6577 2.28749C48.6695 2.27982 48.6833 2.27554 48.6975 2.27515Z" fill="#202020"/>
<path d="M48.1455 2.3718C48.108 2.37029 48.0708 2.3645 48.0347 2.35457C48.0725 2.35145 48.1106 2.35737 48.1455 2.3718Z" fill="#202020"/>
<path d="M41.1913 1.9145C41.1545 1.91233 41.1188 1.90153 41.0872 1.88305C41.1245 1.88229 41.161 1.89333 41.1913 1.9145Z" fill="#202020"/>
<path d="M47.9222 2.34162L47.7843 2.34629C47.7835 2.34033 47.7833 2.33432 47.7836 2.32832L47.9222 2.34162Z" fill="#202020"/>
<path d="M48.8704 2.27428C48.8127 2.27329 48.755 2.27525 48.6975 2.28014C48.7529 2.25953 48.8137 2.25746 48.8704 2.27428Z" fill="#202020"/>
<path d="M42.4535 2.28186L42.4391 2.28235C42.3334 2.23595 42.4 2.25469 42.4535 2.28186Z" fill="#202020"/>
<path d="M47.3274 2.21373L47.3089 2.21436L47.2698 2.1877L47.3274 2.21373Z" fill="#202020"/>
<path d="M49.4624 2.26123C49.4387 2.25989 49.4156 2.25351 49.3948 2.24253L49.473 2.23988C49.4677 2.24603 49.4641 2.25337 49.4624 2.26123Z" fill="#202020"/>
<path d="M44.5213 2.2007C44.5597 2.23638 44.5729 2.25893 44.5735 2.2769C44.5281 2.27344 44.4997 2.25741 44.5213 2.2007Z" fill="#202020"/>
</g>
<defs>
<clipPath id="clip0_5_3120">
<rect width="53.625" height="4.79688" fill="white"/>
</clipPath>
</defs>
</svg>
