<svg width="18" height="11" viewBox="0 0 18 11" fill="none" xmlns="http://www.w3.org/2000/svg">
<g clip-path="url(#clip0_5_1419)">
<path d="M13.4648 6.98083C13.4648 6.95483 13.4768 6.96783 13.4648 6.98083V6.98083Z" fill="#202020"/>
<path d="M5.22777 6.4557C5.22566 6.45172 5.22324 6.44792 5.22054 6.44434C5.18749 6.45673 5.15754 6.46706 5.13379 6.47325L5.22777 6.4557Z" fill="#202020"/>
<path d="M4.40091 5.49459V5.47559C4.38391 5.48859 4.36591 5.49459 4.40091 5.49459Z" fill="#202020"/>
<path d="M8.15039 6.09766C8.16485 6.1276 8.17931 6.13587 8.19273 6.13587C8.17625 6.12602 8.16187 6.11304 8.15039 6.09766Z" fill="#202020"/>
<path d="M14.8574 5.24805V5.25805C14.8659 5.25448 14.8746 5.25148 14.8834 5.24905L14.8574 5.24805Z" fill="#202020"/>
<path d="M14.8907 5.28071C14.8494 5.31066 14.8536 5.24147 14.8556 5.21875C14.8284 5.22733 14.8048 5.24461 14.7884 5.26794C14.772 5.29126 14.7636 5.31934 14.7647 5.34784C14.8122 5.37675 14.8463 5.28071 14.8907 5.28071Z" fill="#202020"/>
<path d="M17.9834 2.27148L17.9906 2.30453C17.9899 2.29322 17.9874 2.28208 17.9834 2.27148Z" fill="#202020"/>
<path d="M9.83496 7.41227L9.84596 7.40527C9.84596 7.40527 9.84596 7.40627 9.83496 7.41227Z" fill="#202020"/>
<path d="M17.3906 2.70215L17.4547 2.76721C17.4369 2.74225 17.4153 2.72028 17.3906 2.70215Z" fill="#202020"/>
<path d="M5.13472 6.46484L5.09961 6.47104C5.11151 6.47033 5.1233 6.46825 5.13472 6.46484Z" fill="#202020"/>
<path d="M3.54102 4.64447C3.55971 4.6307 3.5767 4.61475 3.59162 4.59696V4.5918L3.54102 4.64447Z" fill="#202020"/>
<path d="M1.34156 1.20026C1.34581 1.18811 1.34926 1.17569 1.35189 1.16309L1.29199 1.20853C1.30037 1.21069 1.30911 1.21107 1.31765 1.20965C1.32619 1.20822 1.33433 1.20503 1.34156 1.20026Z" fill="#202020"/>
<path d="M2.6646 3.30176C2.65508 3.30318 2.64573 3.3056 2.63672 3.30899C2.65151 3.42353 2.68945 3.53386 2.74825 3.63326L2.84326 3.58472L2.6646 3.30176Z" fill="#202020"/>
<path d="M3.56544 1.47035L3.49521 1.64591C3.03876 1.26897 3.05321 1.03145 2.59676 0.72577L2.65459 0.734031C2.65459 0.673101 2.20329 0.753653 2.23428 0.0638033H2.25286C2.23221 0.0452146 2.19503 0.0555417 2.21156 0.00390625L2.18058 0.129897C2.09196 0.0980164 2.00509 0.0614764 1.92033 0.0204296L0.00878906 0.792896C0.0428684 0.803223 0.0779805 0.815615 0.11206 0.830073C0.116231 0.834794 0.119351 0.840349 0.12121 0.846368C0.12307 0.852387 0.123628 0.858733 0.122846 0.864984C0.122065 0.871236 0.119962 0.877249 0.116678 0.882625C0.113394 0.888002 0.109003 0.892617 0.103798 0.896166C0.103798 0.896166 0.220494 0.936442 0.344419 0.979816C0.468344 1.02319 0.594335 1.05624 0.594335 1.05624L0.633578 1.1089L0.679017 1.16364C0.876264 1.1719 0.914474 1.02112 1.27282 1.19152C1.18401 1.06037 1.52067 1.1719 1.50002 1.1089C1.52518 1.13292 1.55211 1.15501 1.58057 1.175C1.87325 1.21644 2.17068 1.21051 2.46147 1.15744C2.29852 1.11584 2.13874 1.06269 1.98333 0.998405C1.79923 0.932155 1.63032 0.829611 1.48659 0.696854C1.74167 0.781536 1.56508 0.696854 1.53823 0.655545L1.50209 0.676199C1.36164 0.61527 1.41844 0.553307 1.36164 0.517162C1.35704 0.52245 1.35322 0.528361 1.35028 0.534718L1.3668 0.529555C1.36473 0.535565 1.36103 0.540878 1.3561 0.544893C1.35117 0.548907 1.34522 0.551464 1.33892 0.552275C1.32859 0.5657 1.31207 0.573961 1.27489 0.558471H1.28935C1.21729 0.54532 1.14765 0.521293 1.08281 0.487214L1.13857 0.439709C1.04253 0.46656 0.921703 0.38291 0.84425 0.280672L0.770928 0.18463V0.310621C0.770928 0.441775 0.739947 0.591517 0.770928 0.634891C0.721358 0.744358 0.953717 0.803223 0.97747 0.916821C1.08074 1.08102 0.911376 1.03042 0.900016 1.13059C0.929965 1.24419 0.990895 1.08205 1.0322 1.12026L1.00845 1.27207C0.936161 1.20701 0.913442 1.25865 0.888657 1.28033C0.964044 1.3836 0.937194 1.59015 1.14993 1.57362C1.18401 1.73473 1.11275 1.75435 1.15716 1.81528C1.17265 1.78636 1.16749 1.73989 1.20467 1.72853C1.17368 1.80495 1.24907 1.74918 1.24597 1.72233C1.40295 1.78326 1.30897 2.24695 1.5279 2.20874L1.49073 2.21907C1.65906 2.19738 1.77679 2.12509 1.9131 2.1602L1.88316 2.217L2.00295 2.25728C1.99056 2.30994 1.93273 2.30168 1.91414 2.30685C2.07317 2.38223 2.12068 2.53714 2.20433 2.65693L2.49762 2.42044C2.49762 2.54334 2.46767 2.77156 2.61948 2.75298L2.53892 2.85005C2.46664 3.11752 2.78368 2.95332 2.77955 3.05143L2.72585 3.19084L2.63393 3.09377C2.6498 3.18555 2.64521 3.2797 2.62051 3.3695C2.6211 3.36593 2.62267 3.3626 2.62504 3.35987C2.62741 3.35713 2.63049 3.35511 2.63393 3.35401L2.66492 3.35505C2.71064 3.35095 2.75671 3.35728 2.79964 3.37356C2.84257 3.38984 2.88125 3.41564 2.91277 3.44902C2.98815 3.55229 3.17198 3.5936 3.16991 3.79291L3.3589 3.78568L3.38471 3.92717L3.26492 3.96331C3.16165 3.84868 2.90037 3.6535 2.74856 3.50789L2.69073 3.52131C2.77748 3.60703 2.92826 3.68861 2.9737 3.74954C2.97089 3.76995 2.96367 3.7895 2.95252 3.80683C2.94138 3.82415 2.92659 3.83884 2.90918 3.84985C2.89177 3.86087 2.87217 3.86795 2.85174 3.8706C2.83131 3.87325 2.81055 3.87141 2.79091 3.8652L2.96234 3.88276C3.17517 4.04341 3.34217 4.25706 3.44668 4.50238L3.47972 4.45798C3.57576 4.50652 3.67077 4.55402 3.59125 4.60049C3.67077 4.66991 3.73511 4.755 3.78024 4.85042C3.82538 4.94584 3.85034 5.04955 3.85356 5.15506L4.01983 5.13647C4.05184 5.17674 3.9021 5.29964 4.1169 5.25523L4.26458 5.31719C4.31002 5.37193 4.42362 5.37709 4.40709 5.46074V5.47726H4.41845C4.48248 5.61255 4.54135 5.43595 4.60537 5.59396C4.55271 5.66831 4.83257 5.58363 4.87078 5.65799L4.74272 5.78707C4.75822 5.93991 4.97922 5.89034 5.1682 6.06177C5.18782 6.16504 5.06493 6.26109 4.85839 6.25696C4.97902 6.24466 5.10068 6.26649 5.20951 6.31995C5.15168 6.36023 5.12483 6.35506 5.03395 6.3561C5.04428 6.47176 5.16097 6.38708 5.2312 6.45317C5.37611 6.4176 5.52414 6.39615 5.6732 6.38914L5.68869 6.3499C5.84153 6.39327 5.96235 6.45317 5.98404 6.55644L5.91072 6.5771L6.04394 6.64939L5.96029 6.68553L6.12655 6.79706V6.77228C6.16993 6.79706 6.31038 6.87555 6.32587 6.94784L6.27423 6.96333C6.29592 7.16987 6.64291 7.21944 6.86597 7.38777L6.73792 7.40016C6.71003 7.49517 6.91245 7.36195 6.94446 7.44973L6.8257 7.49724C7.06219 7.49724 6.88869 7.58915 6.87837 7.65421L7.01572 7.57676L7.07871 7.6697C7.13241 7.77297 6.94136 7.79776 6.84119 7.81428L7.03637 7.82977L6.90832 7.89277C7.12725 7.87728 6.93517 7.94647 7.11486 7.99604C7.06942 8.02186 7.01159 8.01359 7.02398 8.04767L7.38026 8.10241L7.19747 8.058L7.41641 7.99191C7.67149 8.01359 7.52691 8.10757 7.656 8.14371L7.5455 8.12719C7.57262 8.13604 7.59772 8.15018 7.61935 8.16879C7.64097 8.18741 7.6587 8.21012 7.67149 8.23563C7.68592 8.28281 7.70494 8.32847 7.72829 8.37194C7.72829 8.3265 7.72829 8.26144 7.83156 8.31411C7.89971 8.35542 7.79644 8.37091 7.83156 8.42668C7.90648 8.4049 7.98646 8.40802 8.05946 8.43559C8.13246 8.46315 8.19454 8.51365 8.23638 8.57952C8.221 8.58996 8.20324 8.59635 8.18474 8.59811C8.23431 8.61153 8.27769 8.6043 8.30867 8.6673L8.17235 8.72513H8.37889C8.42433 8.80878 8.60196 8.81807 8.5276 8.879L8.46564 8.86661L9.01814 9.33546L8.97786 9.43873C9.09766 9.33546 9.28767 9.74854 9.32795 9.542C9.41883 9.74131 9.77615 9.79398 9.67907 9.9871C10.0922 10.3176 10.2729 10.2184 10.7376 10.678L10.7541 10.6687C10.9256 10.7947 11.2209 10.2556 11.4316 9.99949C11.7868 9.34476 11.9686 8.93167 12.3032 8.39157C12.4243 8.34638 12.5313 8.26974 12.613 8.16953C12.6812 8.0911 12.7369 8.00263 12.7782 7.90722C12.7909 7.84106 12.8186 7.77869 12.8593 7.72497C12.8999 7.67124 12.9524 7.6276 13.0127 7.59741L12.93 7.51686C13.2254 7.44251 13.1459 7.19775 13.4784 7.07486C13.4652 7.04614 13.4612 7.01402 13.467 6.98295C13.4259 6.995 13.3822 6.995 13.3411 6.98295C13.4381 6.94784 13.4557 6.83321 13.6034 6.87968V6.8962C13.751 6.94371 13.6602 6.73097 13.8409 6.71135L13.6498 6.69792L13.7531 6.61324L13.7634 6.64629C13.7552 6.15059 14.4378 6.11341 14.4584 5.65282C14.5886 5.75609 14.4347 5.54955 14.6319 5.60325C14.9645 5.58053 14.7476 5.41736 14.7579 5.32235C14.747 5.31933 14.7368 5.31406 14.728 5.30686L14.885 5.17261C15.0492 5.32339 14.7817 5.01771 14.9128 5.15093C15.4375 4.86073 15.7122 4.35884 16.2223 3.99532H16.1428C16.2626 3.90032 16.3215 3.75264 16.5032 3.7103C16.685 3.66796 16.5373 3.49549 16.559 3.45832C16.5476 3.34162 16.8378 3.33646 16.7872 3.36847C16.8554 3.2714 16.7397 3.11752 16.971 3.02871C17.2147 3.05969 17.1569 2.63215 17.3893 2.71167L17.3717 2.70341C17.7115 2.60736 17.6185 2.36674 17.9624 2.25521C17.9702 2.26115 17.9771 2.2681 17.9831 2.27587L17.7383 1.70271L16.8956 1.52715L15.9363 1.59944L15.5046 2.03008L15.0915 2.46175L14.5958 2.75091L14.1032 3.04523C14.1032 3.04523 13.6736 3.45832 13.2667 3.8714C12.8598 4.28448 12.4715 4.71306 12.4715 4.71306L12.5293 4.88242C11.9025 5.12407 11.8633 5.64766 11.3211 5.94714L11.4688 5.99878C11.3892 6.10205 11.2994 6.07107 11.2509 6.08966C11.0526 6.32511 10.8708 6.56677 10.6942 6.81255L10.434 7.17607L10.3059 7.35679C10.276 7.3981 10.2822 7.39294 10.2791 7.40016L10.2718 7.41875C10.2347 7.51376 10.1397 7.65215 10.0653 7.6098L10.0591 7.60361C10.024 7.46832 10.0002 7.51376 9.99818 7.39707C9.96307 7.57056 9.86083 7.48795 9.83191 7.44457L9.84637 7.43734H9.80093C9.81182 7.43031 9.82321 7.4241 9.83501 7.41875C9.81217 7.42603 9.78763 7.42603 9.76479 7.41875H9.75549L9.72141 7.38261C9.69766 7.36092 9.67494 7.33717 9.65222 7.31342C9.56444 7.21841 9.49628 7.10687 9.42502 7.02013H9.45188C8.29715 6.19403 7.21913 5.26567 6.23086 4.24627C5.99127 3.72372 5.1207 3.29928 4.80262 2.7158C4.85322 2.57948 3.71518 1.54884 3.56544 1.47035Z" fill="#202020"/>
<path d="M0.105299 1.93508L0.0949714 1.92578C0.0495322 1.99291 0.0825789 1.98258 0.105299 1.93508Z" fill="#202020"/>
<path d="M2.21958 2.65227V2.63574L2.15039 2.74934L2.21958 2.65227Z" fill="#202020"/>
<path d="M0.824219 2.65234C0.862429 2.80622 0.881018 2.80415 0.898574 2.76904C0.887944 2.72275 0.861684 2.68154 0.824219 2.65234Z" fill="#202020"/>
<path d="M1.55755 2.65119C1.65153 2.69043 1.62158 2.6295 1.58337 2.56031C1.52643 2.54676 1.47024 2.53021 1.41504 2.51074C1.46564 2.55102 1.50695 2.61298 1.55755 2.65119Z" fill="#202020"/>
<path d="M1.54022 1.42507L1.58359 1.37137C1.53815 1.36827 1.53196 1.39202 1.54022 1.42507Z" fill="#202020"/>
</g>
<defs>
<clipPath id="clip0_5_1419">
<rect width="18" height="10.6875" fill="white"/>
</clipPath>
</defs>
</svg>
